<?xml version="1.0" encoding="utf-8"?>
<!-- Generator: Adobe Illustrator 22.1.0, SVG Export Plug-In . SVG Version: 6.00 Build 0)  -->
<svg version="1.1" id="Layer_1" xmlns="http://www.w3.org/2000/svg" xmlns:xlink="http://www.w3.org/1999/xlink" x="0px" y="0px"
	 viewBox="0 0 415.5 407.1" style="enable-background:new 0 0 415.5 407.1;" xml:space="preserve">
<style type="text/css">
	.st0{fill:#483DF6;}
	.st1{fill:#FAFAFE;stroke:#FAFAFE;stroke-miterlimit:10;}
	.st2{fill:#ECE0D3;}
	.st3{fill:#E48868;}
	.st4{fill:#464473;}
	.st5{fill:#393762;}
	.st6{fill:#37CFB1;}
	.st7{fill:#8067D7;}
	.st8{fill:#49478A;}
	.st9{fill:#FF2F52;}
	.st10{fill:#CFB199;}
	.st11{fill:#9480FA;}
	.st12{fill:#7FBBF7;}
	.st13{fill:#639BDA;}
	.st14{fill:#BA745D;}
	.st15{fill:#EFC33B;}
	.st16{fill:#C55469;}
	.st17{fill:#E8A12B;}
	.st18{display:none;}
	.st19{display:inline;}
	.st20{fill:#A9B3C0;}
</style>
<g id="Layer_2_1_">
	<rect x="0.5" y="0.5" class="st0" width="414.5" height="386.5"/>
</g>
<g id="Layer_1_1_">
	<g id="BACKGROUND">
		<path class="st1" d="M0.5,0.5v406.1H415V0.5H0.5z M193.4,385.4c-6.6-3.8-8.1-11.9-3.8-17.9c4.1-5.7,11.4-8.9,18.5-7.2
			c0.8,0.2,1.5,0.6,2,1.1c2.7,1.7,4.5,4.8,4.3,8.5C213.9,379.2,203.7,391.4,193.4,385.4z M301.5,348.4c-1.8,13.8-17.4,19.2-30.2,23
			c-9.3,3.9-20.1,5-29.7,3.9c-9.2-1.1-21.1-6.7-15.2-17.5c3.4-6.3,10.4-10.2,15.7-14.9c7-6.1,13.8-12.8,22.4-16.8
			c8.3-3.8,17.1-4.1,25,0.6C297.4,331.1,302.8,339.3,301.5,348.4z"/>
	</g>
	<g id="OBJECTS">
		<path class="st0" d="M389.8,166c-4.2-10.9-5.2-22.6-6.9-34c-1.6-10.7-3.7-22.5-10.9-31.1c-12-14.3-35.7-13.7-52.6-14
			c-20.6-0.4-40.6-3.4-57-16.9c-8.1-6.7-13.9-15.5-20.1-23.9c-4-5.4-7.9-10.1-14.8-11.3c-4.5-0.8-9.3-0.6-13.9-0.3
			c-6.7,0.4-13.3,0.8-19.9,1.8c-13.8,2.2-27.3,6-40.8,9.8c-13.6,3.9-27.2,7.8-41.2,10.2c-11.6,2-23.4,2.7-35.1,3.9
			c-18.3,1.8-49.8,3.9-53.3,27C22,95.9,23.8,105,25,113.6c1.3,9.7,2.5,19.5,0.5,29.3c-2.1,10.6-9,19.7-13.6,29.4
			C7,182.9,3.4,194.2,3,205.9c-0.2,4.7,0.1,19.2,8.3,34.1c4.4,7.9,9.7,13.7,15.7,20.1c4.8,5.2,9.2,9.2,12.5,12
			c19.5,15.5,37.1,26.6,50.2,34.1c32.2,18.5,45.7,19.6,55.9,19.6c9.3,0,19.3-2,26.5-8.3c6.7-5.9,11-13.8,16.3-20.8
			c5.5-7.4,12-13.8,20.9-17c11.4-4,25-4.2,37-3.9c27.2,0.5,53.9,6,81,7.5c18.9,1.1,40.9,1.3,58.8-6c19-7.8,25.7-26.7,26.7-45.9
			c0.6-11.4-1.7-22.3-6.4-32.7C401.4,187.4,394.2,177.3,389.8,166z"/>
		<g id="Layer_4">
		</g>
		<g>
			<g>
				<g>
					<path class="st2" d="M113.7,143.7l0.2,8.3l0,0c0.4,0.1,6.2,2.1,6.5,2.7c0,0,0,0,0,0.1c-0.8,0.1-9.5,0.7-10.2,0.7l0,0l0.3-11.5
						l0,0L113.7,143.7C113.7,143.6,113.7,143.7,113.7,143.7z"/>
				</g>
				<g>
					<path class="st2" d="M36.5,115.3l-7.7-1.8l0,0c-0.2,0.2-5.2,4-5.9,3.9c0,0,0,0,0-0.1l5.1-8.9c0,0,0,0,0.1,0l10.2,4
						c0,0,0,0,0,0.1L36.5,115.3L36.5,115.3z"/>
				</g>
			</g>
			<g>
				<g>
					<path class="st3" d="M97.4,29.2L99,23l0,0c0.3,0.1,2.4,0.6,3.3-0.4c0.4-0.4,0.8-2.2,1-5.1c0-0.3,1.2,0.3,1.2,0
						c0-0.6-2-3.4-1.9-4.6c0.7-4.2,0.3-5.3-0.9-6.5C99,3.8,89.6,3.4,88.3,8c-1.3,4.6-0.9,6.8,1.5,13.3l0,0l-1.4,6.4c0,0,0,0,0,0.1
						L97.4,29.2L97.4,29.2z"/>
				</g>
			</g>
			<g>
				<path class="st4" d="M89.8,21.8c0.3-0.1,0.6-0.3,0.9-0.6c2.1-2-0.8-3.8-0.7-5.9c0-0.4,0.1-0.8,0.5-1.1c0.5-0.4,1.2,0.1,1.6,0.4
					c0.6,0.6,1.3,2,1.8,2.8c0.4-0.3,0.7-0.5,1.1-0.8c-0.1-0.2-0.1-0.3-0.2-0.5c-0.4-1,0.2-2.2,1.3-2.6c0.9-0.3,1.5-1.1,1.6-2
					c0,0,0,0,0.1,0c1.2,0.6,2.7-0.5,3.1-2l0,0c1.7-0.2,3.5-0.7,4.2-2.3c0.7-1.6-0.1-3.8-1.5-4.9c-0.9-0.7-2.2-0.7-3.2-0.3
					c-0.8,0.3-1.6,0.2-2.2-0.4c-0.7-0.7-1.6-1.1-2.6-1.1S93.8,1,93.3,1.7s-1.4,0.9-2.2,0.6c-1.1-0.4-2.4-0.4-3.4,0.3
					C87.4,2.8,86.8,4,86.5,5c-0.2,0.5-0.5,1-0.9,1.3c-0.7,0.4-1.3,1.3-1.5,1.9C84,8.8,84,9.4,84.3,9.9c0.3,0.6,0.1,1.4-0.3,1.9
					c-0.4,0.6-0.6,1.4-0.5,2.2c0.1,0.9,0.7,1.7,1.5,2.2c0.9,0.6,0.9,1.5,0.9,2.4c0,1.1,0.4,2.1,1.3,2.7C88,22,89,22.1,89.8,21.8z"/>
			</g>
			<g>
				<path class="st3" d="M74.7,69.6L74.7,69.6c-0.3,0.2-11.2,7.9-4.8,18.3c5.9,9.8,32.6,26.2,33.1,26.6l0,0l7.1,37.8l0,0l3.6-0.4
					l0,0c0-1.3,1.3-37.7,0.1-41.1c-1.2-3.4-23.2-37.1-23.6-37.6l0,0L74.7,69.6z"/>
			</g>
			<g>
				<path class="st3" d="M95.7,75.9C95.8,76,95.8,76,95.7,75.9c-0.5,1.3-14,32.6-17.8,38.4c-3.8,5.9-8.8,9.5-11,9.7
					c-2.2,0.1-36.7-10.1-38.2-10.5c0,0,0,0,0-0.1l2.4-3.7l0,0l32.1,1.6l0,0L73,81.5l0,0L84.3,72l0,0L95.7,75.9z"/>
			</g>
			<g>
				<path class="st3" d="M125.3,32.8c0,0-9.7,21.2-11.3,21.7c-0.7,0.2-4.7-1.2-8.6-2.8c-4-1.6,2.4-8.8,2.9-9.2c0,0,0,0,0.1,0
					l3.6,2.4c0,0,0,0,0.1,0l8.7-12.1"/>
			</g>
			<g>
				<path class="st5" d="M108.4,42.4l-7.8-5.2h-0.1l-3.3,11l0,0c0.4,0.2,4.2,1.9,8.2,3.5c0,0,0,0,0.1,0
					C106.4,48.6,107.3,45.5,108.4,42.4L108.4,42.4z"/>
			</g>
			<g>
				<path class="st5" d="M89,25.1c-0.7-0.2-7.1,2.2-9.4,3.1c-2.3,0.9-5.7,32.9-5.7,33l0,0l0.7,8.4l0,0l21,6.3c0,0,0,0,0.1,0
					c0.3-0.9,6.2-18.8,7.3-22.7c2.3-8.2-0.8-17.3-1.6-19.1C99.2,29.2,92.5,26.1,89,25.1z"/>
			</g>
			<g>
				<path class="st6" d="M86.9,103.6l6.8-6.6l0,0l-1.6-3.6c0,0,0-0.1,0.1-0.1l3.5,2.4c0,0,0,0,0.1,0l5.7-5.2c0,0,0,0,0-0.1
					l-6.4-11.2l0,0l0.7-3.2l0,0l-21-6.3l0,0c-0.2,0.1-5.1,2.9-6.8,8.7c-1.7,5.7,2.3,10.2,2.5,10.5l0,0l-2.3,7.9l0,0l14.5,8.4
					c0,0,0,0,0.1,0l1.6-3.4c0,0,0,0,0.1,0L86.9,103.6L86.9,103.6z"/>
			</g>
			<g>
				<path class="st7" d="M83.3,100.5c-0.1,0-0.1,0-0.2-0.1c-4.3-3.2-8.4-6.9-12-10.8c-0.1-0.1-0.1-0.3,0-0.4c0.1-0.1,0.3-0.1,0.4,0
					c3.6,3.9,7.7,7.6,12,10.8c0.1,0.1,0.1,0.3,0.1,0.4C83.5,100.5,83.4,100.5,83.3,100.5z"/>
			</g>
			<g id="XMLID_4665_">
				<g>
					<path class="st3" d="M121,30.2c0.7,0.9-0.5,3.3-1.4,4.7l0,0c0.9,1.3,1.1,4.1,1.9,5.5h0.1c3.7-7.8,6.5-11.1,6.7-12.1
						c0.6-2.3,0.8-3.6-1-3.6s-1-2.6-2.5-2.3c-1.5,0.3-1-2.8-2.5-1.8c-1.4,0.9-1.1,4.2-1,4.5l0,0C120.9,25.3,118.4,26.8,121,30.2z"/>
				</g>
			</g>
			<g>
				<path class="st3" d="M71.2,31.4c-6.3,2.4-12.2,4.9-12.7,5.4c-0.9,0.9,0.2,9,0.9,14c1.1,9,0.9,14.4,1.3,15.4
					c0.9,2.2,1.5,3.4,2.9,2.3c1.5-1.1,2.3,1.5,3.4,0.3c1.1-1.1,2.4,1.6,3,0s-1.7-4-1.9-4.2l0,0c0.1-0.3,1.3-3-2.8-4.2
					c-1-0.3-0.9-3.2-0.9-4c-0.1-4.4,0.7-8.7,1.3-13.1l0,0l7.5-1.9l0,0C73.4,40.7,75,29.9,71.2,31.4z"/>
			</g>
			<g>
				<path class="st5" d="M89.5,31.1c-0.9-3.2-4.6-4.8-7.7-3.7c-2.8,1-6.7,2.5-10.5,4l0,0c0.8,3.3,1.5,6.5,2.1,9.8c0,0,0,0,0.1,0
					l11.9-3C88.5,37.6,90.4,34.3,89.5,31.1z"/>
			</g>
			<g>
				<path class="st8" d="M103.6,49.8L103.6,49.8c-0.2,0-0.3-0.1-0.3-0.3c0.1-3.1-0.1-6.3-0.5-9.4c0-0.2,0.1-0.3,0.2-0.3
					c0.1,0,0.3,0.1,0.3,0.2c0.4,3.1,0.5,6.3,0.5,9.4C103.9,49.7,103.8,49.8,103.6,49.8z"/>
			</g>
			<g>
				<path class="st8" d="M77.8,40.2c-0.1,0-0.3-0.1-0.3-0.2c0-0.2,0.1-0.3,0.2-0.3c2.4-0.2,5.2-0.5,7.6-1.7c2.1-1.1,4.1-3.3,4-5.9
					c0-0.2,0.1-0.3,0.3-0.3s0.3,0.1,0.3,0.3c0.1,2.9-2.1,5.3-4.3,6.4C83.1,39.7,80.3,40,77.8,40.2L77.8,40.2z"/>
			</g>
			<g>
				<path class="st8" d="M88.1,69.4c-0.1,0-0.2-0.1-0.2-0.1c-0.1-0.1,0-0.3,0.1-0.4c4.5-2.4,8.4-6,11.1-10.3
					c0.1-0.1,0.3-0.2,0.4-0.1c0.1,0.1,0.2,0.2,0.1,0.4c-2.8,4.4-6.7,8.1-11.3,10.5C88.2,69.4,88.2,69.4,88.1,69.4z"/>
			</g>
		</g>
		<g>
			<g>
				<g>
					<g>
						<path class="st3" d="M303.7,59.2l6.5-9.6c0,0,2.2,0.8,3.3-0.1c0.5-0.4,1-2.1,1.4-4.9c0-0.3,1.1,0.4,1.1,0.1
							c0.1-0.6-1.7-3.5-1.4-4.5c1-4,0.7-5.1-0.3-6.3c-2.4-2.8-11.4-3.9-13,0.4c-1.6,4.3-1.4,6.5,0.3,12.9l-6.3,6.7L303.7,59.2z"/>
					</g>
				</g>
			</g>
			<g>
				<g>
					<path class="st3" d="M281.8,98.1l14.5,24.3l9.9,42.9h3.6c0,0-1.3-44.9-1.4-46.5c-0.2-1.6-13.8-30.7-13.8-30.7L281.8,98.1z"/>
				</g>
				<g>
					<g>
						<g>
							<g>
								<g>
									<g>
										<path class="st8" d="M236.3,151.9h22.6l-21.8-5.8c-0.2,0-0.3-0.2-0.2-0.4c0-0.2,0.2-0.3,0.4-0.2l21.8,5.8L239.5,140
											c-0.2-0.1-0.2-0.3-0.1-0.5s0.3-0.2,0.5-0.1l19.5,11.3l-16-16c-0.1-0.1-0.1-0.3,0-0.5c0.1-0.1,0.3-0.1,0.5,0l16,16
											l-11.3-19.5c-0.1-0.2,0-0.4,0.1-0.5c0.2-0.1,0.4,0,0.5,0.1l11.3,19.5l-5.8-21.8c0-0.2,0.1-0.4,0.2-0.4
											c0.2,0,0.4,0.1,0.4,0.2l5.8,21.8V127c0-0.2,0.2-0.3,0.3-0.3c0.2,0,0.3,0.2,0.3,0.3v22.6l5.8-21.8c0-0.2,0.2-0.3,0.4-0.2
											c0.2,0,0.3,0.2,0.2,0.4l-5.8,21.8l11.3-19.5c0.1-0.2,0.3-0.2,0.5-0.1c0.2,0.1,0.2,0.3,0.1,0.5l-11.3,19.5l16-16
											c0.1-0.1,0.3-0.1,0.5,0c0.1,0.1,0.1,0.3,0,0.5l-16,16l19.5-11.3c0.2-0.1,0.4,0,0.5,0.1c0.1,0.2,0,0.4-0.1,0.5l-19.5,11.3
											l21.8-5.8c0.2,0,0.4,0.1,0.4,0.2c0,0.2-0.1,0.4-0.2,0.4l-21.8,5.8h22.6c0.2,0,0.3,0.2,0.3,0.3s-0.2,0.3-0.3,0.3H264
											l21.8,5.8c0.2,0,0.3,0.2,0.2,0.4c0,0.2-0.2,0.3-0.3,0.3h-0.1l-21.8-5.8l19.5,11.3c0.2,0.1,0.2,0.3,0.1,0.5
											c-0.1,0.1-0.2,0.2-0.3,0.2c-0.1,0-0.1,0-0.2,0l-19.4-11.3l16,16c0.1,0.1,0.1,0.3,0,0.5c-0.1,0.1-0.2,0.1-0.2,0.1
											c-0.1,0-0.2,0-0.2-0.1l-16-16l11.3,19.5c0.1,0.2,0,0.4-0.1,0.5c-0.1,0-0.1,0-0.2,0s-0.2-0.1-0.3-0.2l-11.3-19.5l5.8,21.8
											c0,0.2-0.1,0.4-0.2,0.4H268c-0.2,0-0.3-0.1-0.3-0.3l-5.8-21.8v22.6c0,0.2-0.2,0.3-0.3,0.3c-0.2,0-0.3-0.2-0.3-0.3v-22.6
											l-5.8,21.8c0,0.2-0.2,0.3-0.3,0.3h-0.1c-0.2,0-0.3-0.2-0.2-0.4l5.8-21.8l-11.3,19.5c-0.1,0.1-0.2,0.2-0.3,0.2
											c-0.1,0-0.1,0-0.2,0c-0.2-0.1-0.2-0.3-0.1-0.5l11.3-19.5l-16,16c-0.1,0.1-0.2,0.1-0.2,0.1c-0.1,0-0.2,0-0.2-0.1
											c-0.1-0.1-0.1-0.3,0-0.5l16-16l-19.5,11.3c-0.1,0-0.1,0-0.2,0s-0.2-0.1-0.3-0.2c-0.1-0.2,0-0.4,0.1-0.5l19.5-11.3
											l-21.8,5.8h-0.1c-0.2,0-0.3-0.1-0.3-0.3s0.1-0.4,0.2-0.4l21.8-5.8h-22.6c-0.2,0-0.3-0.2-0.3-0.3S236.1,151.9,236.3,151.9z
											"/>
									</g>
								</g>
							</g>
							<g>
								<g>
									<g>
										<g>
											<path class="st9" d="M232.6,152.3c0-15.9,13-28.9,28.9-28.9s28.9,13,28.9,28.9s-13,28.9-28.9,28.9
												S232.6,168.3,232.6,152.3z M234.9,152.3c0,14.6,11.9,26.6,26.6,26.6s26.6-11.9,26.6-26.6s-11.9-26.6-26.6-26.6
												S234.9,137.7,234.9,152.3z"/>
										</g>
									</g>
								</g>
							</g>
							<g>
								<g>
									<path class="st2" d="M234.5,152.3c0-14.9,12.1-27,27-27s27,12.1,27,27c0,14.9-12.1,27-27,27S234.5,167.2,234.5,152.3z
										 M238,152.3c0,13,10.5,23.5,23.5,23.5s23.5-10.5,23.5-23.5s-10.5-23.5-23.5-23.5S238,139.4,238,152.3z"/>
								</g>
							</g>
							<g>
								<g>
									<g>
										<path class="st10" d="M235.3,152.3c0,14.4,11.7,26.1,26.1,26.1s26.1-11.7,26.1-26.1s-11.7-26.1-26.1-26.1
											C247.1,126.2,235.3,137.9,235.3,152.3z M235.7,152.3c0-14.2,11.6-25.8,25.8-25.8s25.8,11.6,25.8,25.8
											s-11.6,25.8-25.8,25.8S235.7,166.6,235.7,152.3z"/>
									</g>
								</g>
							</g>
						</g>
						<g>
							<g>
								<polygon class="st11" points="300.5,157.9 299.9,155.8 301.8,153.7 302.6,156.3 301.4,157.7 								"/>
							</g>
						</g>
						<g>
							<g>
								<path class="st11" d="M335.3,120.6l-0.8-2.6l2.1-2.3c0.2-0.2,0.4-0.3,0.6-0.3l0.7,2.4L335.3,120.6z"/>
							</g>
						</g>
						<g>
							<g>
								<path class="st2" d="M283.5,103.1c-1.4-0.8-3.5-0.3-4,1.4c-0.5,1.6,1,3.4,2.6,3.2c1.6-0.1,2.9-2,2.3-3.6
									C284.3,103.7,283.9,103.4,283.5,103.1z"/>
							</g>
						</g>
						<g>
							<g>
								<g>
									<g>
										<path class="st9" d="M321.9,152.5c0-15.9,12.9-28.8,28.8-28.8s28.8,12.9,28.8,28.8s-12.9,28.8-28.8,28.8
											S321.9,168.3,321.9,152.5z M324.3,152.5c0,14.6,11.9,26.5,26.5,26.5s26.5-11.9,26.5-26.5S365.4,126,350.8,126
											C336.1,126,324.3,137.9,324.3,152.5z"/>
									</g>
								</g>
							</g>
							<g>
								<g>
									<path class="st2" d="M350.7,125.6c-14.8,0-26.9,12-26.9,26.9c0,14.8,12,26.9,26.9,26.9c14.8,0,26.9-12,26.9-26.9
										S365.6,125.6,350.7,125.6z M373.9,152.4c0,0.9-0.1,1.8-0.2,2.7c-0.4,3.7-4.6,5.7-7.8,3.7l-8.4-5.3c-2.5-1.6-4-4.4-4-7.3
										v-9.9c0-3.8,4-6.2,7.4-4.6C368.5,135.4,373.9,143.3,373.9,152.4z M348,136.2v9.9c0,3-1.5,5.8-4,7.3l-8.4,5.3
										c-3.2,2-7.4,0-7.8-3.7c-0.1-0.9-0.2-1.8-0.2-2.7c0-9.1,5.3-17,13-20.8C344,130,348,132.4,348,136.2z M350.7,175.6
										c-4.5,0-8.6-1.3-12.2-3.5c-3.2-2-3.2-6.7,0-8.7l7.6-4.8c2.8-1.8,6.5-1.8,9.3,0l7.6,4.8c3.2,2,3.2,6.7,0,8.7
										C359.4,174.3,355.2,175.6,350.7,175.6z"/>
								</g>
							</g>
							<g>
								<g>
									<path class="st2" d="M323.9,152.5c0-14.8,12.1-26.9,26.9-26.9s26.9,12.1,26.9,26.9s-12.1,26.9-26.9,26.9
										C335.9,179.3,323.9,167.3,323.9,152.5z M327.3,152.5c0,12.9,10.5,23.4,23.4,23.4s23.4-10.5,23.4-23.4s-10.5-23.4-23.4-23.4
										C337.8,129,327.3,139.5,327.3,152.5z"/>
								</g>
							</g>
							<g>
								<g>
									<path class="st10" d="M324.7,152.5c0,14.4,11.7,26,26,26c14.4,0,26-11.7,26-26c0-14.4-11.7-26-26-26
										C336.4,126.4,324.7,138.1,324.7,152.5z M325.1,152.5c0-14.2,11.5-25.7,25.7-25.7s25.7,11.5,25.7,25.7
										c0,14.2-11.5,25.7-25.7,25.7C336.6,178.1,325.1,166.6,325.1,152.5z"/>
								</g>
							</g>
						</g>
						<g>
							<g>
								<path class="st4" d="M351.3,154.6c0.2,0,0.3,0,0.5-0.1c0.5-0.3,1.2-2.7,0.9-3.1c-0.9-1.6-2.3-2.5-3.1-4.2
									c-0.7-1.4-1.4-2.7-2-4.1c-1.9-4.2-3.2-8.5-4.6-12.8c-1.3-4.3-2.6-8.7-3.9-13.1c-0.1-0.3-0.2-0.6-0.2-0.9
									c-0.2-0.5-1.2-0.8-1.8-0.7c-0.5,0.2-1.7,0.7-1.6,1.2c2,7,5,13.1,6,16.1c0.7,2,1.4,3.9,1.9,5.2c0.2,0.6,0.4,1.1,0.6,1.5
									c0.1,0.2,0.2,0.4,0.3,0.7c1.2,3.8,4.5,12.6,4.7,13C349.3,153.6,351,154.6,351.3,154.6z"/>
							</g>
						</g>
						<g>
							<g>
								<polygon class="st2" points="295.6,145.5 299.7,145.1 287.3,103.6 283.2,104.1 								"/>
							</g>
						</g>
						<g>
							<g>
								<polygon class="st11" points="296.6,156.2 299.3,156.6 299.4,157.2 297.1,157.9 								"/>
							</g>
						</g>
						<g>
							<path class="st4" d="M300.9,156.8l-23.2-7.5c-3.9-1.3-5.4-5.6-3.1-8.8l14.7-20.1c0.3-0.4-0.3-3.6-0.7-3.9
								c-0.4-0.3-2.1-1.8-2.4-1.4c0,0-8.6,16.9-23.4,32.6c-0.6,0.7-1.5,1.2-2.4,1.5c-1.4,0.5-2.4,1.9-2.2,3.5c0.2,1.6,1.5,2.8,3,2.9
								c0.4,0,0.7,0,1.1-0.1c2.9-0.8,5.9-1.1,8.8-0.7l29.5,3.7h0.1c0.4,0,0.8-0.3,0.9-0.7C301.7,157.2,301.4,156.8,300.9,156.8z"/>
						</g>
						<g>
							<path class="st4" d="M338.2,115.7c-0.5-0.4-1.2-0.4-1.6,0.1l-0.2,0.2c-0.3-1.2-0.6-2.4-0.7-3.6l-42.4,8l-2.5-8.4l-5.1,1.5
								l13.1,44.5l0.2-0.1c0.1,0.3,0.1,0.5,0.2,0.6c0.2,0.2,0.5,0.3,0.8,0.3s0.6-0.1,0.9-0.4l1.5-1.5l1.5-0.4l-0.2-0.8l34.7-32.9
								C338.7,122.2,338.7,116.1,338.2,115.7z M297.9,129.4l28.3-5.3l-23.7,19.1c-1,0.8-2.4,0.3-2.8-0.9l-3.2-10.7
								C296.2,130.6,296.8,129.6,297.9,129.4z"/>
						</g>
						<g>
							<g>
								<path class="st2" d="M277.3,99c-1.6-0.2-3.4-0.3-4.3,0.8c-0.4,0.4-0.6,1.1-0.4,1.6c0.6,1.5,4.1,2.3,5.4,2.8
									c2.4,0.9,4.9,1.6,7.4,1.2c3.7-0.6,6.7-3,10.1-4.2c0.4-0.1,0.8-0.3,0.9-0.6c0.3-0.5-0.1-1.2-0.7-1.4c-0.5-0.2-1.1-0.1-1.7,0
									c-2.5,0.5-5,1.1-7.6,1.1c-2.2,0-4.6-0.4-6.9-0.8C279,99.3,278.2,99.1,277.3,99z"/>
							</g>
						</g>
						<g>
							<g>
								<path class="st5" d="M349.9,152.3c0,0.5,0.4,1,1,1c0.5,0,1-0.4,1-1c0-0.5-0.4-1-1-1C350.4,151.3,349.9,151.7,349.9,152.3z"
									/>
							</g>
						</g>
						<g>
							<g>
								<path class="st5" d="M285.6,113.9h0.1l5-1.4c0.2-0.1,0.4-0.3,0.3-0.6c-0.1-0.2-0.3-0.4-0.6-0.3l-5,1.4
									c-0.2,0.1-0.4,0.3-0.3,0.6C285.3,113.7,285.4,113.9,285.6,113.9z"/>
							</g>
						</g>
						<g>
							<g>
								<path class="st5" d="M260.5,152.3c0,0.5,0.4,1,1,1c0.5,0,1-0.4,1-1c0-0.5-0.4-1-1-1S260.5,151.7,260.5,152.3z"/>
							</g>
						</g>
					</g>
					<g>
						<g>
							<path class="st2" d="M336.5,114.4c0.1,0,0.2,0,0.3,0c0.5-0.2,0.8-0.7,0.7-1.2c-0.8-2.8-3.5-12.2-3.9-13.6v-0.1
								c0,0,0.1-0.1,0.1,0c0.5,0.1,1-0.3,1.1-0.9c0.1-0.5-0.3-1-0.9-1.1c-0.7-0.1-1.4,0.2-1.9,0.7s-0.6,1.3-0.4,2
								c0.4,1.4,3.1,10.8,3.9,13.6C335.7,114.1,336.1,114.4,336.5,114.4z"/>
						</g>
					</g>
					<g>
						<g>
							<g>
								<path class="st8" d="M343.4,93.9c1.2,0.9,2.4,1.7,3.3,2.9s1.4,2.6,1.2,4.1c-0.1,0.5-0.3,1-0.4,1.6c0,0.5,0.2,1.2,0.7,1.4
									c-0.6,0.1-1.2-0.4-1.4-1c-0.2-0.6-0.1-1.3,0-1.9c0.1-0.6,0.2-1.3,0-1.9c-0.2-0.8-0.9-1.4-1.7-1.5c-0.9-0.1-1.5,0.3-2.1,0.9
									c-0.3-0.4-0.6-0.8-0.9-1.2c0.6-0.4,1-1,1.3-1.6c0.1-0.3,0.3-0.6,0.2-0.9c0-0.1-0.4-0.5-0.5-0.4
									C343,94.3,343.3,93.9,343.4,93.9z"/>
							</g>
						</g>
					</g>
					<g>
						<g>
							<g>
								<polygon class="st4" points="337.9,123.4 341,122.2 337.3,109.8 334.1,110.7 								"/>
							</g>
						</g>
					</g>
					<g>
						<g>
							<path class="st5" d="M334.1,111.3c0.1,0,0.1,0,0.2,0l3.2-0.9c0.3-0.1,0.4-0.4,0.4-0.7c-0.1-0.3-0.4-0.4-0.7-0.4l-3.2,0.9
								c-0.3,0.1-0.4,0.4-0.4,0.7C333.7,111.1,333.9,111.3,334.1,111.3z"/>
						</g>
					</g>
					<g>
						<g>
							<path class="st5" d="M337.9,124c0.1,0,0.1,0,0.2,0l3.1-1.2c0.3-0.1,0.4-0.4,0.3-0.7s-0.4-0.4-0.7-0.3l-3.1,1.2
								c-0.3,0.1-0.4,0.4-0.3,0.7C337.5,123.8,337.7,124,337.9,124z"/>
						</g>
					</g>
				</g>
				<g>
					<g>
						<polygon class="st2" points="309.8,165.3 310.4,168.6 316,170.8 306.4,173 306.2,165.3 						"/>
					</g>
					<g>
						<g>
							<g>
								<g>
									<g>
										<path class="st5" d="M301.5,148.7l2.2-0.9c0,0-0.9-2-2.3-4.4c-1.5-2.4-0.7-3.2-1.3-4.6c-0.6-1.5-1.9-0.9-1.9-0.9
											s-1.3,0.6-0.7,2c0.6,1.5,1.7,1.4,2.4,4.2C300.7,146.7,301.5,148.7,301.5,148.7z M298.9,139.7c-0.3,0.1-0.7,0-0.8-0.3
											c-0.1-0.3,0-0.7,0.3-0.8s0.7,0,0.8,0.3C299.4,139.2,299.2,139.5,298.9,139.7z"/>
									</g>
								</g>
							</g>
						</g>
						<g>
							<g>
								<g>
									<g>
										<g>
											
												<ellipse transform="matrix(0.5944 -0.8042 0.8042 0.5944 -1.6491 308.5415)" class="st5" cx="305" cy="155.9" rx="6.9" ry="6.9"/>
										</g>
									</g>
								</g>
							</g>
							<g>
								<g>
									<g>
										<g>
											<path class="st5" d="M298.6,148.2c-0.1,0.1-0.2,0.2-0.4,0.3c0.2,0.2,0.2,0.6,0,0.9c-0.2,0.2-0.6,0.3-0.9,0
												c-0.1,0.1-0.2,0.2-0.3,0.4c0.3,0.2,0.3,0.6,0.2,0.9c-0.2,0.3-0.6,0.4-0.9,0.2c-0.1,0.1-0.2,0.3-0.2,0.4
												c0.3,0.2,0.4,0.5,0.3,0.8s-0.5,0.5-0.8,0.3c-0.1,0.1-0.1,0.3-0.2,0.4c0.3,0.1,0.5,0.4,0.4,0.8c-0.1,0.3-0.4,0.5-0.8,0.5
												c0,0.2-0.1,0.3-0.1,0.5c0.3,0,0.6,0.3,0.6,0.7c0,0.3-0.3,0.6-0.7,0.6c0,0.2,0,0.3,0,0.5c0.3,0,0.6,0.2,0.7,0.6
												c0,0.3-0.2,0.7-0.6,0.7c0,0.2,0.1,0.3,0.1,0.5c0.3-0.1,0.7,0.1,0.8,0.4c0.1,0.3-0.1,0.7-0.4,0.8c0.1,0.1,0.1,0.3,0.2,0.4
												c0.3-0.1,0.7,0,0.8,0.3c0.1,0.3,0,0.7-0.3,0.8c0.1,0.1,0.2,0.3,0.2,0.4c0.3-0.2,0.7-0.1,0.9,0.2c0.2,0.3,0.1,0.7-0.1,0.9
												c0.1,0.1,0.2,0.2,0.3,0.4c0.2-0.2,0.6-0.2,0.9,0c0.2,0.2,0.3,0.6,0,0.9c0.1,0.1,0.2,0.2,0.4,0.3c0.2-0.3,0.6-0.3,0.9-0.2
												c0.3,0.2,0.4,0.6,0.2,0.9c0.1,0.1,0.3,0.2,0.4,0.2c0.2-0.3,0.5-0.4,0.8-0.3s0.5,0.5,0.3,0.8c0.1,0.1,0.3,0.1,0.4,0.2
												c0.1-0.3,0.4-0.5,0.8-0.4c0.3,0.1,0.5,0.4,0.5,0.8c0.2,0,0.3,0.1,0.5,0.1c0-0.3,0.3-0.6,0.7-0.6c0.3,0,0.6,0.3,0.6,0.7
												c0.2,0,0.3,0,0.5,0c0-0.3,0.2-0.6,0.6-0.7c0.3,0,0.6,0.2,0.7,0.6c0.2,0,0.3-0.1,0.5-0.1c-0.1-0.3,0.1-0.7,0.4-0.8
												c0.3-0.1,0.7,0.1,0.8,0.4c0.1-0.1,0.3-0.1,0.4-0.2c-0.1-0.3,0-0.7,0.3-0.8c0.3-0.1,0.7,0,0.8,0.3
												c0.1-0.1,0.3-0.2,0.4-0.2c-0.2-0.3-0.1-0.7,0.2-0.9c0.3-0.2,0.7-0.1,0.9,0.1c0.1-0.1,0.2-0.2,0.4-0.3
												c-0.2-0.2-0.2-0.6,0-0.9c0.2-0.2,0.6-0.3,0.9,0c0.1-0.1,0.2-0.2,0.3-0.4c-0.3-0.2-0.3-0.6-0.2-0.9
												c0.2-0.3,0.6-0.4,0.9-0.2c0.1-0.1,0.2-0.3,0.2-0.4c-0.3-0.2-0.4-0.5-0.3-0.8s0.5-0.5,0.8-0.3c0.1-0.1,0.1-0.3,0.2-0.4
												c-0.3-0.1-0.5-0.4-0.4-0.8c0.1-0.3,0.4-0.5,0.8-0.5c0-0.2,0.1-0.3,0.1-0.5c-0.3,0-0.6-0.3-0.6-0.7c0-0.3,0.3-0.6,0.7-0.6
												c0-0.2,0-0.3,0-0.5c-0.3,0-0.6-0.2-0.7-0.6c0-0.3,0.2-0.6,0.6-0.7c0-0.2-0.1-0.3-0.1-0.5c-0.3,0.1-0.7-0.1-0.8-0.4
												c-0.1-0.3,0.1-0.7,0.4-0.8c-0.1-0.1-0.1-0.3-0.2-0.4c-0.3,0.1-0.7,0-0.8-0.3c-0.1-0.3,0-0.7,0.3-0.8
												c-0.1-0.1-0.2-0.3-0.2-0.4c-0.3,0.2-0.7,0.1-0.9-0.2c-0.2-0.3-0.1-0.7,0.1-0.9c-0.1-0.1-0.2-0.2-0.3-0.4
												c-0.2,0.2-0.6,0.2-0.9,0c-0.2-0.2-0.3-0.6,0-0.9c-0.1-0.1-0.2-0.2-0.4-0.3c-0.2,0.3-0.6,0.3-0.9,0.2
												c-0.3-0.2-0.4-0.6-0.2-0.9c-0.1-0.1-0.3-0.2-0.4-0.2c-0.2,0.3-0.5,0.4-0.8,0.3c-0.3-0.1-0.5-0.5-0.3-0.8
												c-0.1-0.1-0.3-0.1-0.4-0.2c-0.1,0.3-0.4,0.5-0.8,0.4c-0.3-0.1-0.5-0.4-0.5-0.8c-0.2,0-0.3-0.1-0.5-0.1
												c0,0.3-0.3,0.6-0.7,0.6c-0.3,0-0.6-0.3-0.6-0.7c-0.2,0-0.3,0-0.5,0c0,0.3-0.2,0.6-0.6,0.7c-0.3,0-0.6-0.2-0.7-0.6
												c-0.2,0-0.3,0.1-0.5,0.1c0.1,0.3-0.1,0.7-0.4,0.8s-0.7-0.1-0.8-0.4c-0.1,0.1-0.3,0.1-0.4,0.2c0.1,0.3,0,0.7-0.3,0.8
												s-0.7,0-0.8-0.3c-0.1,0.1-0.3,0.2-0.4,0.2c0.2,0.3,0.1,0.7-0.2,0.9C299.2,148.5,298.9,148.4,298.6,148.2z M300.6,149.8
												c3.4-2.4,8.1-1.7,10.5,1.7s1.7,8.1-1.7,10.5c-3.4,2.4-8.1,1.7-10.5-1.7C296.4,156.9,297.2,152.2,300.6,149.8z"/>
										</g>
									</g>
								</g>
							</g>
						</g>
						<g>
							<g>
								<g>
									<g>
										<path class="st5" d="M308.5,163.1l-2.2,0.9c0,0,0.9,2,2.3,4.4c1.5,2.4,0.7,3.2,1.3,4.6c0.6,1.5,1.9,0.9,1.9,0.9
											s1.3-0.6,0.7-2c-0.6-1.5-1.7-1.4-2.4-4.2C309.3,165.1,308.5,163.1,308.5,163.1z M311.1,172.2c0.3-0.1,0.7,0,0.8,0.3
											c0.1,0.3,0,0.7-0.3,0.8c-0.3,0.1-0.7,0-0.8-0.3C310.6,172.7,310.8,172.3,311.1,172.2z"/>
									</g>
								</g>
							</g>
						</g>
					</g>
					<g>
						<path class="st3" d="M291.8,80.9l2.7,7.2c0,0,24.6,4.3,26.8,5.6c2.2,1.3,3.4,4.5,0,9.7s-19.2,32.5-19.2,32.5l-4.1-2.2
							c0,0,7.5-22.3,8.3-23.9c0.7-1.6,3.8-6.8,3.8-6.8s-21.4,0-27.7,0s-15.1-9.7-9.5-21.2L291.8,80.9z"/>
					</g>
					<g>
						<polygon class="st2" points="298.7,50.2 301,47.8 309.3,54.5 306,57.4 						"/>
					</g>
					<g>
						<path class="st12" d="M294.6,85.6L294.6,85.6c1.4-0.8,2.2-2.3,2.3-3.9l0.3-0.2c5.9-4.1,9.5-10.6,10.2-17.7
							c0-0.5,0.1-0.8,0.2-1.1c0.7-2-3.9-11.8-7.5-13c-3.7-1.3-9.4,3.5-12,6.5c-2.7,3.1-14.5,16.4-16.1,21.2
							c-0.5,1.4-0.3,2.9,0.5,4.2l0.1,0.2L294.6,85.6z"/>
					</g>
					<g>
						<path class="st4" d="M298.9,103l1.7-13.8l-5.8-1.1l-0.1-2.4l-21.9-3.9c0,0-2.6,5.7-2,11c0.5,5.3,5.4,10.3,11.5,10.3
							C288.4,103,298.9,103,298.9,103z"/>
					</g>
					<g>
						<path class="st5" d="M294.9,139.6l-0.3,1.9l10.5,1.8l0.3-1.6C305.3,141.7,298,139.3,294.9,139.6z"/>
					</g>
					<g>
						<polygon class="st2" points="302,135.8 301.5,137.9 305.3,141.7 294.9,139.6 297.9,133.7 						"/>
					</g>
					<g>
						<polygon class="st5" points="306.4,173 306.7,176.2 316.8,174.2 316,170.8 						"/>
					</g>
					<g>
						<path class="st5" d="M293.1,87.7L293.1,87.7l-2-0.3c-0.1,0-0.2-0.2-0.2-0.3s0.2-0.2,0.3-0.2l2,0.3c0.1,0,0.2,0.2,0.2,0.3
							C293.3,87.6,293.2,87.7,293.1,87.7z"/>
					</g>
					<g>
						<g>
							<path class="st3" d="M317.5,75.2l17.4,17.4c0,0,2.5,0.5,3.3,0.4c0.9,0,1.2,1.2,1,2.6c-0.1,1.4-6.8,1.5-6.8,1.5
								s-1.5-0.7-1.9-2.1c0,0-14.3-11.7-17.1-13.1C312.8,81.5,316.5,73.9,317.5,75.2z"/>
						</g>
						<g>
							<path class="st12" d="M317.5,75.2c-3-7.7-15-27.5-18.2-25.7c-10.4,6.1-1.8,24.6,14.1,32.4C315.5,79.4,315.6,77.7,317.5,75.2z
								"/>
						</g>
					</g>
					<g>
						<path class="st13" d="M289.6,79.9c-1.7,0-3.3-0.1-5-0.4l0.1-0.5c4.5,0.8,9.1,0.5,13.4-0.9l0.2,0.5
							C295.5,79.4,292.5,79.9,289.6,79.9z"/>
					</g>
					<g>
						<path class="st14" d="M302.9,134.8h-0.1c-0.1-0.1-0.2-0.2-0.1-0.4l4.3-8c0.1-0.1,0.2-0.2,0.4-0.1c0.1,0.1,0.2,0.2,0.1,0.4
							l-4.3,8C303.1,134.8,303,134.8,302.9,134.8z"/>
					</g>
				</g>
				<g>
					<path class="st5" d="M296.1,130.8c-0.1,0-0.2-0.1-0.3-0.2l-2.6-9.4c0-0.1,0-0.3,0.2-0.3c0.1,0,0.3,0,0.3,0.2l2.6,9.4
						C296.4,130.6,296.3,130.7,296.1,130.8C296.2,130.8,296.2,130.8,296.1,130.8z"/>
				</g>
				<g>
					<path class="st5" d="M337.6,122.5c-0.1,0-0.2-0.1-0.3-0.2l-2.6-8.8c0-0.1,0-0.3,0.2-0.3c0.1,0,0.3,0,0.3,0.2l2.6,8.8
						C337.8,122.3,337.8,122.5,337.6,122.5L337.6,122.5z"/>
				</g>
				<g>
					<path class="st5" d="M275.2,149.3L275.2,149.3l-3.4-0.4c-0.7-0.1-1.3-0.5-1.5-1.2c-0.3-0.6-0.2-1.3,0.3-1.9l1.7-2.1
						c0.1-0.1,0.3-0.1,0.4,0s0.1,0.3,0,0.4l-1.7,2.1c-0.3,0.4-0.4,0.9-0.2,1.4c0.2,0.5,0.6,0.8,1.1,0.8l3.3,0.4
						c0.1,0,0.2,0.2,0.2,0.3C275.5,149.2,275.4,149.3,275.2,149.3z"/>
				</g>
				<g>
					<path class="st5" d="M287.9,121.4c-0.1,0-0.2-0.1-0.3-0.2l-1.5-5c0-0.1,0-0.3,0.2-0.3c0.1,0,0.3,0,0.3,0.2l1.5,5
						C288.2,121.2,288.1,121.4,287.9,121.4C288,121.4,287.9,121.4,287.9,121.4z"/>
				</g>
				<g>
					<g>
						<path class="st2" d="M339,98c1.4,0,2.6,0.8,3.1,1.9c0.1,0.2,0.3,0.5,0.6,0.6c0.1,0,0.1,0,0.2,0.1c1.2-1.3,0.4-0.4,1.6-1.6
							c-0.9-2-3-3.4-5.4-3.4c0,0,0,0-0.1,0l-7.9,0.1c-0.4,0-0.7,0.2-0.9,0.4c-0.2,0.3-0.3,0.6-0.3,1l0.3,1.8
							c0.1,0.7,0.7,1.2,1.4,1.1c0.7-0.1,1.2-0.7,1.1-1.4l-0.1-0.4L339,98z"/>
					</g>
				</g>
			</g>
			<g>
				<path class="st13" d="M302.7,74c-3.3-3.7-5.9-7.9-7.8-12.4c-0.7-1.6-1.2-3.3-0.9-5c0.4-2.2,2.2-3.8,3.6-5L298,52
					c-1.7,1.5-3.1,2.9-3.4,4.8c-0.3,1.6,0.2,3.2,0.9,4.7c1.9,4.5,4.5,8.6,7.7,12.3L302.7,74z"/>
			</g>
			<g>
				<path class="st4" d="M301,47.8c0,0,2.7-0.2,3.6-4.6c0,0-2.5-1.9-0.7-4.1c1.8-2.2,3.4,5.8,3.4,5.8s-0.6,3.5,2.8,4.7
					s4.1,0,4.5-2.2s0.1-2.8,0.1-2.8s-4.7-0.1-6.2-2.9c-1.1-2.1-0.7-4.3-0.7-4.3s8.2,0.5,8.2-2.2c0-2.8-6.1-6.2-12.2-3.7
					s-4.7,8.9-4.1,11.3C300.6,45.3,301,47.8,301,47.8z"/>
			</g>
		</g>
		<g>
			<g>
				<path class="st3" d="M170.3,126.1l14.5,24.3l9.9,42.9h3.6c0,0-1.3-44.9-1.4-46.5c-0.2-1.6-13.8-30.7-13.8-30.7L170.3,126.1z"/>
			</g>
			<g>
				<g>
					<g>
						<g>
							<polygon class="st11" points="189,185.9 188.4,183.8 190.3,181.7 191,184.3 189.8,185.7 							"/>
						</g>
					</g>
					<g>
						<g>
							<path class="st11" d="M223.7,148.6l-0.8-2.6l2.1-2.3c0.2-0.2,0.4-0.3,0.6-0.3l0.7,2.4L223.7,148.6z"/>
						</g>
					</g>
					<g>
						<g>
							<path class="st2" d="M172,131.2c-1.4-0.8-3.5-0.3-4,1.4c-0.5,1.6,1,3.4,2.6,3.2c1.6-0.1,2.9-2,2.3-3.6
								C172.7,131.8,172.4,131.4,172,131.2z"/>
						</g>
					</g>
					<g>
						<g>
							<g>
								<g>
									<path class="st5" d="M121.1,180.5c0-15.9,12.9-28.8,28.8-28.8s28.8,12.9,28.8,28.8s-12.9,28.8-28.8,28.8
										C134,209.3,121.1,196.4,121.1,180.5z M123.4,180.5c0,14.6,11.9,26.5,26.5,26.5s26.5-11.9,26.5-26.5S164.5,154,149.9,154
										C135.3,154,123.4,165.9,123.4,180.5z"/>
								</g>
							</g>
						</g>
						<g>
							<g>
								<path class="st2" d="M149.9,153.6c-14.8,0-26.9,12-26.9,26.9c0,14.8,12,26.9,26.9,26.9c14.8,0,26.9-12,26.9-26.9
									C176.7,165.6,164.7,153.6,149.9,153.6z M173,180.5c0,0.9-0.1,1.8-0.2,2.7c-0.4,3.7-4.6,5.7-7.8,3.7l-8.4-5.3
									c-2.5-1.6-4-4.4-4-7.3v-9.9c0-3.8,4-6.2,7.4-4.6C167.7,163.4,173,171.3,173,180.5z M147.1,164.3v9.9c0,3-1.5,5.8-4,7.3
									l-8.4,5.3c-3.2,2-7.4,0-7.8-3.7c-0.1-0.9-0.2-1.8-0.2-2.7c0-9.1,5.3-17,13-20.8C143.2,158,147.1,160.5,147.1,164.3z
									 M149.9,203.6c-4.5,0-8.6-1.3-12.2-3.5c-3.2-2-3.2-6.7,0-8.7l7.6-4.8c2.8-1.8,6.5-1.8,9.3,0l7.6,4.8c3.2,2,3.2,6.7,0,8.7
									C158.5,202.3,154.3,203.6,149.9,203.6z"/>
							</g>
						</g>
						<g>
							<g>
								<path class="st2" d="M123,180.5c0-14.8,12.1-26.9,26.9-26.9c14.8,0,26.9,12.1,26.9,26.9s-12.1,26.9-26.9,26.9
									S123,195.3,123,180.5z M126.5,180.5c0,12.9,10.5,23.4,23.4,23.4s23.4-10.5,23.4-23.4s-10.5-23.4-23.4-23.4
									S126.5,167.6,126.5,180.5z"/>
							</g>
						</g>
						<g>
							<g>
								<path class="st10" d="M123.8,180.5c0,14.4,11.7,26,26,26c14.4,0,26-11.7,26-26c0-14.4-11.7-26-26-26
									S123.8,166.1,123.8,180.5z M124.2,180.5c0-14.2,11.5-25.7,25.7-25.7s25.7,11.5,25.7,25.7c0,14.2-11.5,25.7-25.7,25.7
									S124.2,194.6,124.2,180.5z"/>
							</g>
						</g>
					</g>
					<g>
						<g>
							<g>
								<g>
									<path class="st5" d="M210.4,180.5c0-15.9,12.9-28.8,28.8-28.8s28.8,12.9,28.8,28.8s-12.9,28.8-28.8,28.8
										S210.4,196.4,210.4,180.5z M212.7,180.5c0,14.6,11.9,26.5,26.5,26.5s26.5-11.9,26.5-26.5S253.8,154,239.2,154
										S212.7,165.9,212.7,180.5z"/>
								</g>
							</g>
						</g>
						<g>
							<g>
								<path class="st2" d="M239.2,153.6c-14.8,0-26.9,12-26.9,26.9c0,14.8,12,26.9,26.9,26.9c14.8,0,26.9-12,26.9-26.9
									C266,165.6,254,153.6,239.2,153.6z M262.3,180.5c0,0.9-0.1,1.8-0.2,2.7c-0.4,3.7-4.6,5.7-7.8,3.7l-8.4-5.3
									c-2.5-1.6-4-4.4-4-7.3v-9.9c0-3.8,4-6.2,7.4-4.6C257,163.4,262.3,171.3,262.3,180.5z M236.4,164.3v9.9c0,3-1.5,5.8-4,7.3
									l-8.4,5.3c-3.2,2-7.4,0-7.8-3.7c-0.1-0.9-0.2-1.8-0.2-2.7c0-9.1,5.3-17,13-20.8C232.5,158,236.4,160.5,236.4,164.3z
									 M239.2,203.6c-4.5,0-8.6-1.3-12.2-3.5c-3.2-2-3.2-6.7,0-8.7l7.6-4.8c2.8-1.8,6.5-1.8,9.3,0l7.6,4.8c3.2,2,3.2,6.7,0,8.7
									C247.8,202.3,243.6,203.6,239.2,203.6z"/>
							</g>
						</g>
						<g>
							<g>
								<path class="st2" d="M212.3,180.5c0-14.8,12.1-26.9,26.9-26.9s26.9,12.1,26.9,26.9s-12.1,26.9-26.9,26.9
									S212.3,195.3,212.3,180.5z M215.8,180.5c0,12.9,10.5,23.4,23.4,23.4s23.4-10.5,23.4-23.4s-10.5-23.4-23.4-23.4
									S215.8,167.6,215.8,180.5z"/>
							</g>
						</g>
						<g>
							<g>
								<path class="st10" d="M213.1,180.5c0,14.4,11.7,26,26,26c14.4,0,26-11.7,26-26c0-14.4-11.7-26-26-26
									C224.8,154.5,213.1,166.1,213.1,180.5z M213.5,180.5c0-14.2,11.5-25.7,25.7-25.7s25.7,11.5,25.7,25.7
									c0,14.2-11.5,25.7-25.7,25.7S213.5,194.6,213.5,180.5z"/>
							</g>
						</g>
					</g>
					<g>
						<g>
							<path class="st15" d="M239.8,182.6c0.2,0,0.3,0,0.5-0.1c0.5-0.3,1.2-2.7,0.9-3.1c-0.9-1.6-2.3-2.5-3.1-4.2
								c-0.7-1.4-1.4-2.7-2-4.1c-1.9-4.2-3.2-8.5-4.6-12.8c-1.3-4.3-2.6-8.7-3.9-13.1c-0.1-0.3-0.2-0.6-0.2-0.9
								c-0.2-0.5-1.2-0.8-1.8-0.7c-0.5,0.2-1.7,0.7-1.6,1.2c2,7,5,13.1,6,16.1c0.7,2,1.4,3.9,1.9,5.2c0.2,0.6,0.4,1.1,0.6,1.5
								c0.1,0.2,0.2,0.4,0.3,0.7c1.2,3.8,4.5,12.6,4.7,13C237.7,181.6,239.4,182.6,239.8,182.6z"/>
						</g>
					</g>
					<g>
						<g>
							<polygon class="st2" points="184,173.6 188.1,173.1 175.8,131.7 171.7,132.1 							"/>
						</g>
					</g>
					<g>
						<g>
							<polygon class="st11" points="185.1,184.3 187.7,184.6 187.9,185.2 185.6,185.9 							"/>
						</g>
					</g>
					<g>
						<path class="st15" d="M189.3,184.8l-23.2-7.5c-3.9-1.3-5.4-5.6-3.1-8.8l14.7-20.1c0.3-0.4-0.3-3.6-0.7-3.9
							c-0.4-0.3-2.1-1.8-2.4-1.4c0,0-8.6,16.9-23.4,32.6c-0.6,0.7-1.5,1.2-2.4,1.5c-1.4,0.5-2.4,1.9-2.2,3.5s1.5,2.8,3,2.9
							c0.4,0,0.7,0,1.1-0.1c2.9-0.8,5.9-1.1,8.8-0.7l29.5,3.7h0.1c0.4,0,0.8-0.3,0.9-0.7C190.2,185.3,189.8,184.8,189.3,184.8z"/>
					</g>
					<g>
						<path class="st15" d="M226.6,143.7c-0.5-0.4-1.2-0.4-1.6,0.1l-0.2,0.2c-0.3-1.2-0.6-2.4-0.7-3.6l-42.4,8l-2.5-8.4l-5.1,1.5
							l13.1,44.5l0.2-0.1c0.1,0.3,0.1,0.5,0.2,0.6c0.2,0.2,0.5,0.3,0.8,0.3s0.6-0.1,0.9-0.4l1.5-1.5l1.5-0.4l-0.2-0.8l34.7-32.9
							C227.1,150.3,227.1,144.1,226.6,143.7z M186.3,157.5l28.3-5.3l-23.7,19.1c-1,0.8-2.4,0.3-2.8-0.9l-3.2-10.7
							C184.7,158.7,185.3,157.7,186.3,157.5z"/>
					</g>
					<g>
						<g>
							<path class="st5" d="M165.7,127c-1.6-0.2-3.4-0.3-4.3,0.8c-0.4,0.4-0.6,1.1-0.4,1.6c0.6,1.5,4.1,2.3,5.4,2.8
								c2.4,0.9,4.9,1.6,7.4,1.2c3.7-0.6,6.7-3,10.1-4.2c0.4-0.1,0.8-0.3,0.9-0.6c0.3-0.5-0.1-1.2-0.7-1.4c-0.5-0.2-1.1-0.1-1.7,0
								c-2.5,0.5-5,1.1-7.6,1.1c-2.2,0-4.6-0.4-6.9-0.8C167.5,127.3,166.6,127.2,165.7,127z"/>
						</g>
					</g>
					<g>
						<g>
							<path class="st5" d="M238.4,180.3c0,0.5,0.4,1,1,1c0.5,0,1-0.4,1-1c0-0.5-0.4-1-1-1S238.4,179.8,238.4,180.3z"/>
						</g>
					</g>
					<g>
						<g>
							<path class="st5" d="M174.1,141.9h0.1l5-1.4c0.2-0.1,0.4-0.3,0.3-0.6c-0.1-0.2-0.3-0.4-0.6-0.3l-5,1.4
								c-0.2,0.1-0.4,0.3-0.3,0.6C173.7,141.8,173.9,141.9,174.1,141.9z"/>
						</g>
					</g>
					<g>
						<g>
							<path class="st5" d="M149,180.3c0,0.5,0.4,1,1,1c0.5,0,1-0.4,1-1c0-0.5-0.4-1-1-1S149,179.8,149,180.3z"/>
						</g>
					</g>
				</g>
				<g>
					<g>
						<path class="st2" d="M224.9,142.4c0.1,0,0.2,0,0.3,0c0.5-0.2,0.8-0.7,0.7-1.2c-0.8-2.8-3.5-12.2-3.9-13.6v-0.1
							c0,0,0.1-0.1,0.1,0c0.5,0.1,1-0.3,1.1-0.9c0.1-0.5-0.3-1-0.9-1.1c-0.7-0.1-1.4,0.2-1.9,0.7s-0.6,1.3-0.4,2
							c0.4,1.4,3.1,10.8,3.9,13.6C224.1,142.1,224.5,142.4,224.9,142.4z"/>
					</g>
				</g>
				<g>
					<g>
						<g>
							<path class="st8" d="M232.7,122.6c1.2,0.9,2.4,1.7,3.3,2.9s1.4,2.6,1.2,4.1c-0.1,0.5-0.3,1-0.4,1.6c0,0.5,0.2,1.2,0.7,1.4
								c-0.6,0.1-1.2-0.4-1.4-1c-0.2-0.6-0.1-1.3,0-1.9c0.1-0.6,0.2-1.3,0-1.9c-0.2-0.8-0.9-1.4-1.7-1.5c-0.9-0.1-1.5,0.3-2.1,0.9
								c-0.3-0.4-0.6-0.8-0.9-1.2c0.6-0.4,1-1,1.3-1.6c0.1-0.3,0.3-0.6,0.2-0.9c0-0.1-0.4-0.5-0.5-0.4
								C232.3,123,232.6,122.6,232.7,122.6z"/>
						</g>
					</g>
				</g>
				<g>
					<g>
						<g>
							<polygon class="st15" points="226.3,151.5 229.4,150.2 225.7,137.8 222.6,138.8 							"/>
						</g>
					</g>
				</g>
				<g>
					<g>
						<path class="st5" d="M222.6,139.3c0.1,0,0.1,0,0.2,0l3.2-0.9c0.3-0.1,0.4-0.4,0.4-0.7c-0.1-0.3-0.4-0.4-0.7-0.4l-3.2,0.9
							c-0.3,0.1-0.4,0.4-0.4,0.7C222.1,139.1,222.4,139.3,222.6,139.3z"/>
					</g>
				</g>
				<g>
					<g>
						<path class="st5" d="M226.3,152c0.1,0,0.1,0,0.2,0l3.1-1.2c0.3-0.1,0.4-0.4,0.3-0.7s-0.4-0.4-0.7-0.3l-3.1,1.2
							c-0.3,0.1-0.4,0.4-0.3,0.7C225.9,151.9,226.1,152,226.3,152z"/>
					</g>
				</g>
			</g>
			<g>
				<path class="st4" d="M153,80.5c-2.3,1.8-3.4,4.9-3.2,7.8c0.2,2.9,1.6,5.7,3.5,7.8c4.6,5.1,12.1,6.8,18.8,5.8
					c6.8-1,12.9-4.5,18.5-8.5c3.5-2.5,6.8-5.3,9.5-8.7c2.7-3.3,4.8-7.2,5.6-11.4c0.6-3,0.4-6.3-1.5-8.7c-1.7-2.1-4.6-3-7.4-3
					c-6-0.1-11.5,3.3-16.4,6.9c-4.9,3.5-9.7,7.5-15.6,8.8C160.8,78.2,156.2,77.9,153,80.5z"/>
			</g>
			<g>
				<g>
					<polygon class="st2" points="198.2,193.3 198.9,196.7 204.4,198.8 194.9,201 194.6,193.3 					"/>
				</g>
				<g>
					<g>
						<g>
							<g>
								<g>
									<path class="st5" d="M190,176.8l2.2-0.9c0,0-0.9-2-2.3-4.4c-1.5-2.4-0.7-3.2-1.3-4.6c-0.6-1.5-1.9-0.9-1.9-0.9
										s-1.3,0.6-0.7,2c0.6,1.5,1.7,1.4,2.4,4.2S190,176.8,190,176.8z M187.4,167.7c-0.3,0.1-0.7,0-0.8-0.3s0-0.7,0.3-0.8
										c0.3-0.1,0.7,0,0.8,0.3S187.7,167.6,187.4,167.7z"/>
								</g>
							</g>
						</g>
					</g>
					<g>
						<g>
							<g>
								<g>
									<g>
										<ellipse class="st5" cx="193.5" cy="184" rx="6.9" ry="6.9"/>
									</g>
								</g>
							</g>
						</g>
						<g>
							<g>
								<g>
									<g>
										<path class="st5" d="M187.1,176.2c-0.1,0.1-0.2,0.2-0.4,0.3c0.2,0.2,0.2,0.6,0,0.9c-0.2,0.2-0.6,0.3-0.9,0
											c-0.1,0.1-0.2,0.2-0.3,0.4c0.3,0.2,0.3,0.6,0.2,0.9c-0.2,0.3-0.6,0.4-0.9,0.2c-0.1,0.1-0.2,0.3-0.2,0.4
											c0.3,0.2,0.4,0.5,0.3,0.8c-0.1,0.3-0.5,0.5-0.8,0.3c-0.1,0.1-0.1,0.3-0.2,0.4c0.3,0.1,0.5,0.4,0.4,0.8
											c-0.1,0.3-0.4,0.5-0.8,0.5c0,0.2-0.1,0.3-0.1,0.5c0.3,0,0.6,0.3,0.6,0.7c0,0.3-0.3,0.6-0.7,0.6c0,0.2,0,0.3,0,0.5
											c0.3,0,0.6,0.2,0.7,0.6c0,0.3-0.2,0.7-0.6,0.7c0,0.2,0.1,0.3,0.1,0.5c0.3-0.1,0.7,0.1,0.8,0.4s-0.1,0.7-0.4,0.8
											c0.1,0.1,0.1,0.3,0.2,0.4c0.3-0.1,0.7,0,0.8,0.3s0,0.7-0.3,0.8c0.1,0.1,0.2,0.3,0.2,0.4c0.3-0.2,0.7-0.1,0.9,0.2
											c0.2,0.3,0.1,0.7-0.1,0.9c0.1,0.1,0.2,0.2,0.3,0.4c0.2-0.2,0.6-0.2,0.9,0c0.2,0.2,0.3,0.6,0,0.9c0.1,0.1,0.2,0.2,0.4,0.3
											c0.2-0.3,0.6-0.3,0.9-0.2c0.3,0.2,0.4,0.6,0.2,0.9c0.1,0.1,0.3,0.2,0.4,0.2c0.2-0.3,0.5-0.4,0.8-0.3s0.5,0.5,0.3,0.8
											c0.1,0.1,0.3,0.1,0.4,0.2c0.1-0.3,0.4-0.5,0.8-0.4c0.3,0.1,0.5,0.4,0.5,0.8c0.2,0,0.3,0.1,0.5,0.1c0-0.3,0.3-0.6,0.7-0.6
											c0.3,0,0.6,0.3,0.6,0.7c0.2,0,0.3,0,0.5,0c0-0.3,0.2-0.6,0.6-0.7c0.3,0,0.6,0.2,0.7,0.6c0.2,0,0.3-0.1,0.5-0.1
											c-0.1-0.3,0.1-0.7,0.4-0.8c0.3-0.1,0.7,0.1,0.8,0.4c0.1-0.1,0.3-0.1,0.4-0.2c-0.1-0.3,0-0.7,0.3-0.8
											c0.3-0.1,0.7,0,0.8,0.3c0.1-0.1,0.3-0.2,0.4-0.2c-0.2-0.3-0.1-0.7,0.2-0.9c0.3-0.2,0.7-0.1,0.9,0.1
											c0.1-0.1,0.2-0.2,0.4-0.3c-0.2-0.2-0.2-0.6,0-0.9c0.2-0.2,0.6-0.3,0.9,0c0.1-0.1,0.2-0.2,0.3-0.4
											c-0.3-0.2-0.3-0.6-0.2-0.9c0.2-0.3,0.6-0.4,0.9-0.2c0.1-0.1,0.2-0.3,0.2-0.4c-0.3-0.2-0.4-0.5-0.3-0.8
											c0.1-0.3,0.5-0.5,0.8-0.3c0.1-0.1,0.1-0.3,0.2-0.4c-0.3-0.1-0.5-0.4-0.4-0.8c0.1-0.3,0.4-0.5,0.8-0.5
											c0-0.2,0.1-0.3,0.1-0.5c-0.3,0-0.6-0.3-0.6-0.7c0-0.3,0.3-0.6,0.7-0.6c0-0.2,0-0.3,0-0.5c-0.3,0-0.6-0.2-0.7-0.6
											c0-0.3,0.2-0.6,0.6-0.7c0-0.2-0.1-0.3-0.1-0.5c-0.3,0.1-0.7-0.1-0.8-0.4s0.1-0.7,0.4-0.8c-0.1-0.1-0.1-0.3-0.2-0.4
											c-0.3,0.1-0.7,0-0.8-0.3s0-0.7,0.3-0.8c-0.1-0.1-0.2-0.3-0.2-0.4c-0.3,0.2-0.7,0.1-0.9-0.2c-0.2-0.3-0.1-0.7,0.1-0.9
											c-0.1-0.1-0.2-0.2-0.3-0.4c-0.2,0.2-0.6,0.2-0.9,0c-0.2-0.2-0.3-0.6,0-0.9c-0.1-0.1-0.2-0.2-0.4-0.3
											c-0.2,0.3-0.6,0.3-0.9,0.2c-0.3-0.2-0.4-0.6-0.2-0.9c-0.1-0.1-0.3-0.2-0.4-0.2c-0.2,0.3-0.5,0.4-0.8,0.3s-0.5-0.5-0.3-0.8
											c-0.1-0.1-0.3-0.1-0.4-0.2c-0.1,0.3-0.4,0.5-0.8,0.4c-0.3-0.1-0.5-0.4-0.5-0.8c-0.2,0-0.3-0.1-0.5-0.1
											c0,0.3-0.3,0.6-0.7,0.6c-0.3,0-0.6-0.3-0.6-0.7c-0.2,0-0.3,0-0.5,0c0,0.3-0.2,0.6-0.6,0.7c-0.3,0-0.6-0.2-0.7-0.6
											c-0.2,0-0.3,0.1-0.5,0.1c0.1,0.3-0.1,0.7-0.4,0.8c-0.3,0.1-0.7-0.1-0.8-0.4c-0.1,0.1-0.3,0.1-0.4,0.2
											c0.1,0.3,0,0.7-0.3,0.8c-0.3,0.1-0.7,0-0.8-0.3c-0.1,0.1-0.3,0.2-0.4,0.2c0.2,0.3,0.1,0.7-0.2,0.9
											S187.3,176.5,187.1,176.2z M189,177.8c3.4-2.4,8.1-1.7,10.5,1.7c2.4,3.4,1.7,8.1-1.7,10.5s-8.1,1.7-10.5-1.7
											C184.9,185,185.6,180.2,189,177.8z"/>
									</g>
								</g>
							</g>
						</g>
					</g>
					<g>
						<g>
							<g>
								<g>
									<path class="st5" d="M196.9,191.1l-2.2,0.9c0,0,0.9,2,2.3,4.4c1.5,2.4,0.7,3.2,1.3,4.6c0.6,1.5,1.9,0.9,1.9,0.9
										s1.3-0.6,0.7-2c-0.6-1.5-1.7-1.4-2.4-4.2C197.8,193.2,196.9,191.1,196.9,191.1z M199.5,200.2c0.3-0.1,0.7,0,0.8,0.3
										s0,0.7-0.3,0.8c-0.3,0.1-0.7,0-0.8-0.3C199.1,200.7,199.2,200.4,199.5,200.2z"/>
								</g>
							</g>
						</g>
					</g>
				</g>
				<g>
					<path class="st3" d="M180.2,108.9l2.7,7.2c0,0,24.6,4.3,26.8,5.6c2.2,1.3,3.4,4.5,0,9.7s-19.2,32.5-19.2,32.5l-4.1-2.2
						c0,0,7.5-22.3,8.3-23.9c0.7-1.6,3.8-6.8,3.8-6.8s-21.4,0-27.7,0s-15.1-9.7-9.5-21.2L180.2,108.9z"/>
				</g>
				<g>
					<g>
						<path class="st3" d="M191.2,85.7l5.7-6c0,0,1.8,1.2,3,0.7c0.4-0.2,1.3-1.8,2.2-3.8c0.1-0.2,0.2-0.5,0.3-0.8s0.9,0.8,1,0.6
							c0.2-0.6-0.3-2.5-0.1-3.1c0.9-2.7,1.4-5.4,0.7-6.7c-1.5-3-9.3-6-11.7-2.6c-2.4,3.5-2.9,8.2-0.7,12.3l-4,4.7L191.2,85.7z"/>
					</g>
				</g>
				<g>
					<path class="st4" d="M186.2,79.2c0.8,1.1,2.2,1.9,3.6,2.1c2.7,0.3,4.8-1.6,6-3.9c0.6-1.2,1.1-2.6,1.3-3.9
						c0.3-1.5-0.4-2.9,1-4.1c1.8-1.6,3.6,0.2,5.5,0.5c0.4,0.1,0.8,0.1,1.2-0.1c0.5-0.3,0.7-1,0.7-1.6c-0.1-1.7-1.1-3.2-2.4-4.2
						c-1.3-1-3-1.5-4.6-1.9c-1.7-0.3-3.4-0.5-5,0.1s-2.8,1.9-3.8,3.3C186.6,69.6,183.3,75.3,186.2,79.2z"/>
				</g>
				<g>
					<path class="st9" d="M183.1,113.7L183.1,113.7c1.4-0.8,2.2-2.3,2.3-3.9l5.9-7.7c0,0,2.6-4.5,3.3-6.5s-3.9-15.7-7.5-16.9
						c-3.7-1.3-12,6.9-14.6,9.9c-2.7,3.1-10.3,12.2-11.9,16.9c-0.5,1.4-0.3,2.9,0.5,4.2l0.1,0.2L183.1,113.7z"/>
				</g>
				<g>
					<path class="st2" d="M187.3,131l1.7-13.8l-5.8-1.1l-0.1-2.4l-21.9-3.9c0,0-2.6,5.7-2,11c0.5,5.3,5.4,10.3,11.5,10.3
						C176.8,131,187.3,131,187.3,131z"/>
				</g>
				<g>
					<path class="st5" d="M183.3,167.6l-0.3,1.9l10.5,1.8l0.3-1.6C193.7,169.7,186.5,167.3,183.3,167.6z"/>
				</g>
				<g>
					<polygon class="st2" points="190.5,163.9 190,165.9 193.7,169.7 183.3,167.6 186.4,161.7 					"/>
				</g>
				<g>
					<polygon class="st5" points="194.9,201 195.2,204.2 205.3,202.2 204.4,198.8 					"/>
				</g>
				<g>
					<path class="st10" d="M181.5,115.7L181.5,115.7l-2-0.3c-0.1,0-0.2-0.2-0.2-0.3s0.2-0.2,0.3-0.2l2,0.3c0.1,0,0.2,0.2,0.2,0.3
						C181.8,115.7,181.7,115.7,181.5,115.7z"/>
				</g>
				<g>
					<g>
						<path class="st3" d="M197.7,99.5c1.6,1.8,3,3.5,4.1,4.7l21.6,16.3c0,0,2.5,0.5,3.3,0.4c0.9,0,1.2,1.2,1,2.6
							c-0.1,1.4-6.8,1.5-6.8,1.5s-1.5-0.7-1.9-2.1c0,0-18.5-10.7-21.3-12c-0.7-0.4-3-1.9-5.9-4C183.8,100.9,191.7,92.7,197.7,99.5z"
							/>
					</g>
					<g>
						<path class="st9" d="M197.7,99.5c-3-7.7-10.1-20.9-13.7-19.1c-8.1,4.1-0.1,20.5,7.9,26.6C193.8,104.5,195.7,102,197.7,99.5z"
							/>
					</g>
				</g>
				<g>
					<path class="st16" d="M173.7,105.6c-1.7,0-3.3-0.1-5-0.4c-0.1,0-0.2-0.2-0.2-0.3s0.2-0.2,0.3-0.2c4.5,0.8,9.1,0.5,13.4-0.9
						c0.1,0,0.3,0,0.3,0.2c0,0.1,0,0.3-0.2,0.3C179.6,105.2,176.7,105.6,173.7,105.6z"/>
				</g>
				<g>
					<path class="st14" d="M191.3,162.8h-0.1c-0.1-0.1-0.2-0.2-0.1-0.4l4.3-8c0.1-0.1,0.2-0.2,0.4-0.1c0.1,0.1,0.2,0.2,0.1,0.4
						l-4.3,8C191.5,162.8,191.4,162.8,191.3,162.8z"/>
				</g>
			</g>
			<g>
				<path class="st17" d="M184.6,158.8c-0.1,0-0.2-0.1-0.3-0.2l-2.6-9.4c0-0.1,0-0.3,0.2-0.3c0.1,0,0.3,0,0.3,0.2l2.6,9.4
					C184.9,158.6,184.8,158.8,184.6,158.8L184.6,158.8z"/>
			</g>
			<g>
				<path class="st17" d="M226,150.6c-0.1,0-0.2-0.1-0.3-0.2l-2.6-8.8c0-0.1,0-0.3,0.2-0.3c0.1,0,0.3,0,0.3,0.2l2.6,8.8
					C226.3,150.4,226.2,150.5,226,150.6L226,150.6z"/>
			</g>
			<g>
				<path class="st17" d="M163.7,177.3C163.7,177.3,163.6,177.3,163.7,177.3l-3.4-0.4c-0.7-0.1-1.3-0.5-1.5-1.2
					c-0.3-0.6-0.2-1.3,0.3-1.9l1.7-2.1c0.1-0.1,0.3-0.1,0.4,0c0.1,0.1,0.1,0.3,0,0.4l-1.7,2.1c-0.3,0.4-0.4,0.9-0.2,1.4
					s0.6,0.8,1.1,0.8l3.3,0.4c0.1,0,0.2,0.2,0.2,0.3C163.9,177.2,163.8,177.3,163.7,177.3z"/>
			</g>
			<g>
				<path class="st17" d="M176.4,149.4c-0.1,0-0.2-0.1-0.3-0.2l-1.5-5c0-0.1,0-0.3,0.2-0.3c0.1,0,0.3,0,0.3,0.2l1.5,5
					C176.7,149.2,176.6,149.4,176.4,149.4L176.4,149.4z"/>
			</g>
			<g>
				<g>
					<path class="st5" d="M226.9,135.6c0.5,0,0.9-0.1,1.4-0.2l0.6-0.1c2.7-0.7,4.6-3.2,4.5-6c-0.1-3.2-2.7-5.7-5.9-5.7
						c0,0,0,0-0.1,0h-7.9c-0.4,0-0.7,0.2-0.9,0.4c-0.2,0.3-0.3,0.6-0.3,1l0.3,1.8c0.1,0.7,0.7,1.2,1.4,1.1c0.7-0.1,1.2-0.7,1.1-1.4
						l-0.1-0.4l6.5-0.1c1.9,0,3.4,1.4,3.5,3.3c0.1,1.6-1,3.1-2.6,3.5l-0.6,0.1c-0.4,0.1-0.8,0.1-1.2,0.1c-0.7-0.1-1.3,0.4-1.4,1.1
						c-0.1,0.7,0.4,1.3,1.1,1.4C226.4,135.6,226.7,135.6,226.9,135.6z"/>
				</g>
			</g>
			<g>
				<path class="st16" d="M188.5,104.3c-0.1,0-0.2,0-0.2-0.1c-2.6-3.2-4.3-7.1-6-10.8c-1-2.2-2-4.6-1.9-7.1c0.1-2.4,1.6-5.2,4.3-5.7
					c0.2,0,0.3,0.1,0.3,0.2c0,0.1-0.1,0.3-0.2,0.3c-2.4,0.4-3.8,3-3.8,5.2c-0.1,2.4,1,4.8,1.9,6.9c1.6,3.7,3.3,7.5,5.9,10.7
					c0.1,0.1,0.1,0.3,0,0.4C188.6,104.3,188.5,104.3,188.5,104.3z"/>
			</g>
		</g>
		<g>
			<g>
				<path class="st3" d="M57,159.8l14.5,24.3l9.9,42.9H85c0,0-1.3-44.9-1.4-46.5c-0.2-1.6-13.8-30.7-13.8-30.7L57,159.8z"/>
			</g>
			<g>
				<polygon class="st2" points="85,227 85.6,230.4 91.2,232.5 81.6,234.7 81.4,227 				"/>
			</g>
			<g>
				<g>
					<g>
						<path class="st6" d="M67.2,175.5c0-0.6,0.5-1.2,1.1-1.2l45.1-2.1c0.6,0,1.2,0.5,1.2,1.1s-0.5,1.2-1.1,1.2l-45.1,2.1
							c0,0,0,0-0.1,0C67.7,176.6,67.2,176.1,67.2,175.5z M80.8,218.8c0.3,0,0.6-0.1,0.9-0.4l33.7-41.2c0.4-0.5,0.4-1.2-0.1-1.6
							s-1.2-0.4-1.6,0.1L80,216.9c-0.4,0.5-0.4,1.2,0.1,1.6C80.2,218.7,80.5,218.8,80.8,218.8z"/>
					</g>
				</g>
				<g>
					<g>
						<g>
							<polygon class="st11" points="81.4,218 80.8,215.9 82.7,213.8 83.5,216.4 82.3,217.8 							"/>
						</g>
					</g>
				</g>
				<g>
					<g>
						<path class="st2" d="M65.2,165.3c-1.4-0.8-3.5-0.3-4,1.4c-0.5,1.6,1,3.4,2.6,3.3s2.9-2,2.3-3.6
							C65.9,165.9,65.6,165.5,65.2,165.3z"/>
					</g>
				</g>
				<g>
					<g>
						<g>
							
								<rect x="55" y="189.8" transform="matrix(0.7356 -0.6774 0.6774 0.7356 -112.9575 91.8247)" class="st5" width="12.3" height="1.6"/>
						</g>
					</g>
				</g>
				<g>
					<g>
						<g>
							<g>
								<path class="st8" d="M102.8,212.1h22.6l-21.8-5.8c-0.2,0-0.3-0.2-0.2-0.4c0-0.2,0.2-0.3,0.4-0.2l21.8,5.8l-19.5-11.3
									c-0.2-0.1-0.2-0.3-0.1-0.5c0.1-0.2,0.3-0.2,0.5-0.1l19.5,11.3l-16-16c-0.1-0.1-0.1-0.3,0-0.5c0.1-0.1,0.3-0.1,0.5,0l16,16
									l-11.3-19.5c-0.1-0.2,0-0.4,0.1-0.5c0.2-0.1,0.4,0,0.5,0.1l11.3,19.5l-5.8-21.8c0-0.2,0.1-0.4,0.2-0.4
									c0.2,0,0.4,0.1,0.4,0.2l5.8,21.8v-22.6c0-0.2,0.2-0.3,0.3-0.3c0.2,0,0.3,0.2,0.3,0.3v22.6l5.8-21.8c0-0.2,0.2-0.3,0.4-0.2
									c0.2,0,0.3,0.2,0.2,0.4l-5.8,21.8l11.3-19.5c0.1-0.2,0.3-0.2,0.5-0.1s0.2,0.3,0.1,0.5l-11.3,19.5l16-16
									c0.1-0.1,0.3-0.1,0.5,0c0.1,0.1,0.1,0.3,0,0.5l-16,16l19.5-11.3c0.2-0.1,0.4,0,0.5,0.1c0.1,0.2,0,0.4-0.1,0.5l-19.5,11.3
									l21.8-5.8c0.2,0,0.4,0.1,0.4,0.2c0,0.2-0.1,0.4-0.2,0.4l-21.8,5.8h22.6c0.2,0,0.3,0.2,0.3,0.3s-0.2,0.3-0.3,0.3h-22.7
									l21.8,5.8c0.2,0,0.3,0.2,0.2,0.4c0,0.2-0.2,0.3-0.3,0.3h-0.1l-21.8-5.8l19.5,11.3c0.2,0.1,0.2,0.3,0.1,0.5
									c-0.1,0.1-0.2,0.2-0.3,0.2s-0.1,0-0.2,0l-19.5-11.3l16,16c0.1,0.1,0.1,0.3,0,0.5c-0.1,0.1-0.2,0.1-0.2,0.1
									c-0.1,0-0.2,0-0.2-0.1l-16-16l11.3,19.5c0.1,0.2,0,0.4-0.1,0.5c-0.1,0-0.1,0-0.2,0c-0.1,0-0.2-0.1-0.3-0.2l-11.3-19.5
									l5.8,21.8c0,0.2-0.1,0.4-0.2,0.4h-0.1c-0.2,0-0.3-0.1-0.3-0.3l-5.8-21.8v22.6c0,0.2-0.2,0.3-0.3,0.3c-0.2,0-0.3-0.2-0.3-0.3
									V215l-5.8,21.8c0,0.2-0.2,0.3-0.3,0.3h-0.1c-0.2,0-0.3-0.2-0.2-0.4l5.8-21.8l-11.3,19.5c-0.1,0.1-0.2,0.2-0.3,0.2
									s-0.1,0-0.2,0c-0.2-0.1-0.2-0.3-0.1-0.5l11.3-19.5l-16,16c-0.1,0.1-0.2,0.1-0.2,0.1s-0.2,0-0.2-0.1c-0.1-0.1-0.1-0.3,0-0.5
									l16-16l-19.5,11.3c-0.1,0-0.1,0-0.2,0c-0.1,0-0.2-0.1-0.3-0.2c-0.1-0.2,0-0.4,0.1-0.5l19.5-11.3l-21.8,5.8h-0.1
									c-0.2,0-0.3-0.1-0.3-0.3c0-0.2,0.1-0.4,0.2-0.4l21.8-5.8h-22.6c-0.2,0-0.3-0.2-0.3-0.3S102.6,212.1,102.8,212.1z"/>
							</g>
						</g>
					</g>
					<g>
						<g>
							<g>
								<g>
									<path class="st5" d="M99.1,212.5c0-15.9,13-28.9,28.9-28.9s28.9,13,28.9,28.9s-13,28.9-28.9,28.9
										C112,241.4,99.1,228.5,99.1,212.5z M101.4,212.5c0,14.6,11.9,26.6,26.6,26.6c14.6,0,26.6-11.9,26.6-26.6
										s-11.9-26.6-26.6-26.6C113.3,186,101.4,197.9,101.4,212.5z"/>
								</g>
							</g>
						</g>
					</g>
					<g>
						<g>
							<path class="st2" d="M101,212.5c0-14.9,12.1-27,27-27s27,12.1,27,27s-12.1,27-27,27S101,227.4,101,212.5z M104.4,212.5
								c0,13,10.5,23.5,23.5,23.5s23.5-10.5,23.5-23.5S140.9,189,127.9,189C115,189,104.4,199.6,104.4,212.5z"/>
						</g>
					</g>
					<g>
						<g>
							<g>
								<path class="st10" d="M101.8,212.5c0,14.4,11.7,26.1,26.1,26.1c14.4,0,26.1-11.7,26.1-26.1s-11.7-26.1-26.1-26.1
									S101.8,198.1,101.8,212.5z M102.2,212.5c0-14.2,11.6-25.8,25.8-25.8s25.8,11.6,25.8,25.8c0,14.2-11.6,25.8-25.8,25.8
									C113.7,238.3,102.2,226.7,102.2,212.5z"/>
							</g>
						</g>
					</g>
				</g>
				<g>
					<g>
						<g>
							<g>
								<path class="st8" d="M17,212.1h22.6l-21.8-5.8c-0.2,0-0.3-0.2-0.2-0.4c0-0.2,0.2-0.3,0.4-0.2l21.8,5.8l-19.5-11.3
									c-0.2-0.1-0.2-0.3-0.1-0.5s0.3-0.2,0.5-0.1l19.5,11.3l-16-16c-0.1-0.1-0.1-0.3,0-0.5c0.1-0.1,0.3-0.1,0.5,0l16,16
									l-11.3-19.5c-0.1-0.2,0-0.4,0.1-0.5c0.2-0.1,0.4,0,0.5,0.1L41.3,210l-5.8-21.8c0-0.2,0.1-0.4,0.2-0.4c0.2,0,0.4,0.1,0.4,0.2
									l5.8,21.8v-22.6c0-0.2,0.2-0.3,0.3-0.3c0.2,0,0.3,0.2,0.3,0.3v22.6l5.8-21.8c0-0.2,0.2-0.3,0.4-0.2c0.2,0,0.3,0.2,0.2,0.4
									L43.1,210l11.3-19.5c0.1-0.2,0.3-0.2,0.5-0.1s0.2,0.3,0.1,0.5l-11.3,19.5l16-16c0.1-0.1,0.3-0.1,0.5,0
									c0.1,0.1,0.1,0.3,0,0.5l-16,16l19.5-11.3c0.2-0.1,0.4,0,0.5,0.1c0.1,0.2,0,0.4-0.1,0.5l-19.5,11.3l21.8-5.8
									c0.2,0,0.4,0.1,0.4,0.2c0,0.2-0.1,0.4-0.2,0.4l-21.8,5.8h22.6c0.2,0,0.3,0.2,0.3,0.3s-0.2,0.3-0.3,0.3H44.8l21.8,5.8
									c0.2,0,0.3,0.2,0.2,0.4c0,0.2-0.2,0.3-0.3,0.3h-0.1l-21.8-5.8l19.5,11.3c0.2,0.1,0.2,0.3,0.1,0.5c-0.1,0.1-0.2,0.2-0.3,0.2
									c-0.1,0-0.1,0-0.2,0l-19.5-11.3l16,16c0.1,0.1,0.1,0.3,0,0.5c-0.1,0.1-0.2,0.1-0.2,0.1c-0.1,0-0.2,0-0.2-0.1l-16-16
									l11.3,19.5c0.1,0.2,0,0.4-0.1,0.5c-0.1,0-0.1,0-0.2,0s-0.2-0.1-0.3-0.2l-11.3-19.5l5.8,21.8c0,0.2-0.1,0.4-0.2,0.4h-0.1
									c-0.2,0-0.3-0.1-0.3-0.3L42.5,215v22.6c0,0.2-0.2,0.3-0.3,0.3c-0.2,0-0.3-0.2-0.3-0.3V215l-5.8,21.8c0,0.2-0.2,0.3-0.3,0.3
									h-0.1c-0.2,0-0.3-0.2-0.2-0.4l5.8-21.8L30,234.4c-0.1,0.1-0.2,0.2-0.3,0.2c-0.1,0-0.1,0-0.2,0c-0.2-0.1-0.2-0.3-0.1-0.5
									l11.3-19.5l-16,16c-0.1,0.1-0.2,0.1-0.2,0.1c-0.1,0-0.2,0-0.2-0.1c-0.1-0.1-0.1-0.3,0-0.5l16-16l-19.5,11.3
									c-0.1,0-0.1,0-0.2,0s-0.2-0.1-0.3-0.2c-0.1-0.2,0-0.4,0.1-0.5l19.5-11.3l-21.8,5.8H18c-0.2,0-0.3-0.1-0.3-0.3
									c0-0.2,0.1-0.4,0.2-0.4l21.8-5.8H17c-0.2,0-0.3-0.2-0.3-0.3S16.8,212.1,17,212.1z"/>
							</g>
						</g>
					</g>
					<g>
						<g>
							<g>
								<g>
									<path class="st5" d="M13.3,212.5c0-15.9,13-28.9,28.9-28.9s28.9,13,28.9,28.9s-13,28.9-28.9,28.9S13.3,228.5,13.3,212.5z
										 M15.6,212.5c0,14.6,11.9,26.6,26.6,26.6s26.6-11.9,26.6-26.6s-11.9-26.6-26.6-26.6S15.6,197.9,15.6,212.5z"/>
								</g>
							</g>
						</g>
					</g>
					<g>
						<g>
							<path class="st2" d="M15.2,212.5c0-14.9,12.1-27,27-27s27,12.1,27,27s-12.1,27-27,27S15.2,227.4,15.2,212.5z M18.7,212.5
								c0,13,10.5,23.5,23.5,23.5s23.5-10.5,23.5-23.5S55.2,189,42.2,189S18.7,199.6,18.7,212.5z"/>
						</g>
					</g>
					<g>
						<g>
							<g>
								<path class="st10" d="M16,212.5c0,14.4,11.7,26.1,26.1,26.1s26.1-11.7,26.1-26.1s-11.7-26.1-26.1-26.1S16,198.1,16,212.5z
									 M16.4,212.5c0-14.2,11.6-25.8,25.8-25.8S68,198.3,68,212.5c0,14.2-11.6,25.8-25.8,25.8S16.4,226.7,16.4,212.5z"/>
							</g>
						</g>
					</g>
				</g>
				<g>
					<g>
						<g>
							<path class="st6" d="M71.5,211.7h1.6c-0.1-8.1-3.4-15.8-9.2-21.5c-5.8-5.7-13.5-8.9-21.6-8.9c-14,0-26.3,9.4-29.8,23l1.5,0.4
								c3.4-12.8,15-21.8,28.3-21.8C58.1,182.9,71.2,195.8,71.5,211.7z"/>
						</g>
					</g>
				</g>
				<g>
					<g>
						<g>
							<path class="st6" d="M97.6,219.3l1.5-0.4c-0.6-2.3-0.9-4.7-0.9-7.1c0-16.2,13.1-29.3,29.3-29.3c3.9,0,7.6,0.7,11.2,2.2
								l0.6-1.5c-3.8-1.6-7.7-2.3-11.8-2.3c-17,0-30.9,13.8-30.9,30.9C96.7,214.3,97,216.8,97.6,219.3z"/>
						</g>
					</g>
				</g>
				<g>
					<g>
						<g>
							<path class="st8" d="M41.4,212.4H43c0-0.1,1-11.9,1.5-15.6c0.4-3.2,3.3-13.3,4.1-16.3c4.5,1.5,14.1,4.9,15.5,5.6
								c1.4,0.8,2.9,3.6,3.4,4.6l1.4-0.7c-0.2-0.4-2-4.2-4.1-5.3c-2-1.1-15.9-5.8-16.5-6l-0.8-0.3l-0.2,0.8
								c-0.2,0.5-3.9,13.4-4.4,17.3c-0.2,1.6-0.5,4.5-0.8,7.3c-0.4-3.2-0.8-6.4-1.2-7.7c-0.9-2.8-4.7-16.7-4.7-16.8l-1.5,0.4
								c0,0.1,3.9,14,4.7,16.9C40.3,199.4,41.4,212.3,41.4,212.4z"/>
						</g>
					</g>
				</g>
				<g>
					<g>
						<g>
							<path class="st6" d="M125.9,211.8c-0.4,1.5,1,2.9,2.5,2.5c0.7-0.2,1.3-0.8,1.5-1.5c0.4-1.5-1-2.9-2.5-2.5
								C126.7,210.5,126.1,211.1,125.9,211.8z"/>
						</g>
					</g>
				</g>
				<g>
					<g>
						<g>
							<path class="st6" d="M40.2,211.8c-0.4,1.5,1,2.9,2.5,2.5c0.7-0.2,1.3-0.8,1.5-1.5c0.4-1.5-1-2.9-2.5-2.5
								C41,210.5,40.4,211.1,40.2,211.8z"/>
						</g>
					</g>
				</g>
				<g>
					<g>
						<path class="st2" d="M113.5,174.3c0.1,0,0.2,0,0.3,0c0.5-0.2,0.8-0.7,0.7-1.2c-0.8-2.8-3.7-14.1-4.1-15.5v-0.1
							c0,0,0.1-0.1,0.1,0c0.5,0.1,1-0.3,1.1-0.9c0.1-0.5-0.3-1-0.9-1.1c-0.7-0.1-1.4,0.2-1.9,0.7s-0.6,1.3-0.4,2
							c0.4,1.4,3.3,12.6,4.1,15.5C112.7,174,113.1,174.3,113.5,174.3z"/>
					</g>
				</g>
				<g>
					<g>
						<g>
							<path class="st6" d="M128.4,213.6c0.2,0,0.3,0,0.5-0.1c0.5-0.3,0.7-0.9,0.4-1.4c-0.7-1.3-1.4-2.5-2-3.8
								c-0.6-1.1-1.2-2.3-1.7-3.5c-1.5-3.1-2.8-6.3-4-9.6c-0.1-0.3-0.2-0.5-0.3-0.8c-0.9-2.7-1.8-5.3-2.7-8
								c-1.1-3.3-2.1-6.7-3.1-10.1c0-0.1,0-0.1,0-0.2c-0.2-0.5-0.7-0.8-1.2-0.7c-0.5,0.2-0.8,0.7-0.7,1.2c2,7,4.1,13.1,5.1,16.2
								c1.1,3.1,2.3,6.3,3.5,9.4c1,2.3,2.1,4.5,3.2,6.7c0.7,1.4,1.4,2.7,2.2,4.1l0,0C127.7,213.4,128,213.6,128.4,213.6z"/>
						</g>
					</g>
				</g>
				<g>
					<g>
						<g>
							<path class="st6" d="M80.8,218.5c0.4,0,0.8-0.3,0.9-0.8c0.1-0.5-0.3-0.9-0.8-1l-36.8-4.9l25-35.9c0.3-0.4,0.2-0.9-0.2-1.2
								c-0.4-0.3-0.9-0.2-1.2,0.2L41.9,212c-0.2,0.3-0.2,0.6-0.1,0.9s0.4,0.5,0.7,0.5l38.2,5C80.7,218.5,80.7,218.5,80.8,218.5z"/>
						</g>
					</g>
				</g>
				<g>
					<g>
						<g>
							<g>
								<polygon class="st6" points="114.9,183.4 118,182.2 114.3,169.7 111.1,170.7 								"/>
							</g>
						</g>
					</g>
				</g>
				<g>
					<g>
						
							<rect x="72.4" y="164.9" transform="matrix(0.9598 -0.2808 0.2808 0.9598 -50.9131 28.2718)" class="st2" width="1.6" height="53.8"/>
					</g>
				</g>
				<g>
					<g>
						<g>
							<polygon class="st11" points="77.5,216.3 80.1,216.7 80.3,217.3 78,218 							"/>
						</g>
					</g>
				</g>
				<g>
					<g>
						
							<rect x="73" y="172.1" transform="matrix(0.9594 -0.282 0.282 0.9594 -52.0772 28.8524)" class="st6" width="2.4" height="46.5"/>
					</g>
				</g>
				<g>
					<g>
						<g>
							<path class="st5" d="M58.9,161.2c-1.6-0.2-3.4-0.3-4.3,0.8c-0.4,0.4-0.6,1.1-0.4,1.6c0.6,1.5,4.1,2.3,5.4,2.8
								c2.4,0.9,4.9,1.6,7.4,1.2c3.7-0.6,6.7-3,10.1-4.3c0.4-0.1,0.8-0.3,0.9-0.6c0.3-0.5-0.1-1.2-0.7-1.4c-0.5-0.2-1.1-0.1-1.7,0
								c-2.5,0.5-5,1.1-7.6,1.1c-2.2,0-4.6-0.4-6.9-0.8C60.7,161.5,59.8,161.3,58.9,161.2z"/>
						</g>
					</g>
				</g>
				<g>
					<g>
						<g>
							<g>
								<g>
									<path class="st5" d="M76.8,210.5l2.2-0.9c0,0-0.9-2-2.3-4.4c-1.5-2.4-0.7-3.2-1.3-4.6c-0.6-1.5-1.9-0.9-1.9-0.9
										s-1.3,0.6-0.7,2c0.6,1.5,1.7,1.4,2.4,4.2C75.9,208.5,76.8,210.5,76.8,210.5z M74.1,201.4c-0.3,0.1-0.7,0-0.8-0.3
										c-0.1-0.3,0-0.7,0.3-0.8c0.3-0.1,0.7,0,0.8,0.3C74.6,200.9,74.4,201.2,74.1,201.4z"/>
								</g>
							</g>
						</g>
					</g>
					<g>
						<g>
							<g>
								<g>
									<g>
										<path class="st5" d="M85.8,213.6c2.2,3.1,1.5,7.4-1.6,9.7c-3.1,2.2-7.4,1.5-9.7-1.6c-2.2-3.1-1.5-7.4,1.6-9.7
											C79.3,209.8,83.6,210.5,85.8,213.6z"/>
									</g>
								</g>
							</g>
						</g>
						<g>
							<g>
								<g>
									<g>
										<path class="st5" d="M73.9,209.9c-0.1,0.1-0.2,0.2-0.4,0.3c0.2,0.2,0.2,0.6,0,0.9c-0.2,0.2-0.6,0.3-0.9,0
											c-0.1,0.1-0.2,0.2-0.3,0.4c0.3,0.2,0.3,0.6,0.2,0.9c-0.2,0.3-0.6,0.4-0.9,0.2c-0.1,0.1-0.2,0.3-0.2,0.4
											c0.3,0.2,0.4,0.5,0.3,0.8s-0.5,0.5-0.8,0.3c-0.1,0.1-0.1,0.3-0.2,0.4c0.3,0.1,0.5,0.4,0.4,0.8c-0.1,0.3-0.4,0.5-0.8,0.5
											c0,0.2-0.1,0.3-0.1,0.5c0.3,0,0.6,0.3,0.6,0.7c0,0.3-0.3,0.6-0.7,0.6c0,0.2,0,0.3,0,0.5c0.3,0,0.6,0.2,0.7,0.6
											c0,0.3-0.2,0.6-0.6,0.7c0,0.2,0.1,0.3,0.1,0.5c0.3-0.1,0.7,0.1,0.8,0.4c0.1,0.3-0.1,0.7-0.4,0.8c0.1,0.1,0.1,0.3,0.2,0.4
											c0.3-0.1,0.7,0,0.8,0.3c0.1,0.3,0,0.7-0.3,0.8c0.1,0.1,0.2,0.3,0.2,0.4c0.3-0.2,0.7-0.1,0.9,0.2c0.2,0.3,0.1,0.7-0.1,0.9
											c0.1,0.1,0.2,0.2,0.3,0.4c0.2-0.2,0.6-0.2,0.9,0c0.2,0.2,0.3,0.6,0,0.9c0.1,0.1,0.2,0.2,0.4,0.3c0.2-0.3,0.6-0.3,0.9-0.2
											c0.3,0.2,0.4,0.6,0.2,0.9c0.1,0.1,0.3,0.2,0.4,0.2c0.2-0.3,0.5-0.4,0.8-0.3s0.5,0.5,0.3,0.8c0.1,0.1,0.3,0.1,0.4,0.2
											c0.1-0.3,0.4-0.5,0.8-0.4c0.3,0.1,0.5,0.4,0.5,0.8c0.2,0,0.3,0.1,0.5,0.1c0-0.3,0.3-0.6,0.7-0.6c0.3,0,0.6,0.3,0.6,0.7
											c0.2,0,0.3,0,0.5,0c0-0.3,0.2-0.6,0.6-0.7s0.6,0.2,0.7,0.6c0.2,0,0.3-0.1,0.5-0.1c-0.1-0.3,0.1-0.7,0.4-0.8
											c0.3-0.1,0.7,0.1,0.8,0.4c0.1-0.1,0.3-0.1,0.4-0.2c-0.1-0.3,0-0.7,0.3-0.8c0.3-0.1,0.7,0,0.8,0.3c0.1-0.1,0.3-0.2,0.4-0.2
											c-0.2-0.3-0.1-0.7,0.2-0.9c0.3-0.2,0.7-0.1,0.9,0.1c0.1-0.1,0.2-0.2,0.4-0.3c-0.2-0.2-0.2-0.6,0-0.9
											c0.2-0.2,0.6-0.3,0.9,0c0.1-0.1,0.2-0.2,0.3-0.4c-0.3-0.2-0.3-0.6-0.2-0.9c0.2-0.3,0.6-0.4,0.9-0.2
											c0.1-0.1,0.2-0.3,0.2-0.4c-0.3-0.2-0.4-0.5-0.3-0.8c0.1-0.3,0.5-0.5,0.8-0.3c0.1-0.1,0.1-0.3,0.2-0.4
											c-0.3-0.1-0.5-0.4-0.4-0.8c0.1-0.3,0.4-0.5,0.8-0.5c0-0.2,0.1-0.3,0.1-0.5c-0.3,0-0.6-0.3-0.6-0.7c0-0.3,0.3-0.6,0.7-0.6
											c0-0.2,0-0.3,0-0.5c-0.3,0-0.6-0.2-0.7-0.6c0-0.3,0.2-0.6,0.6-0.7c0-0.2-0.1-0.3-0.1-0.5c-0.3,0.1-0.7-0.1-0.8-0.4
											s0.1-0.7,0.4-0.8c-0.1-0.1-0.1-0.3-0.2-0.4c-0.3,0.1-0.7,0-0.8-0.3s0-0.7,0.3-0.8c-0.1-0.1-0.2-0.3-0.2-0.4
											c-0.3,0.2-0.7,0.1-0.9-0.2s-0.1-0.7,0.1-0.9c-0.1-0.1-0.2-0.2-0.3-0.4c-0.2,0.2-0.6,0.2-0.9,0c-0.2-0.2-0.3-0.6,0-0.9
											c-0.1-0.1-0.2-0.2-0.4-0.3c-0.2,0.3-0.6,0.3-0.9,0.2c-0.3-0.2-0.4-0.6-0.2-0.9c-0.1-0.1-0.3-0.2-0.4-0.2
											c-0.2,0.3-0.5,0.4-0.8,0.3s-0.5-0.5-0.3-0.8c-0.1-0.1-0.3-0.1-0.4-0.2c-0.1,0.3-0.4,0.5-0.8,0.4c-0.3-0.1-0.5-0.4-0.5-0.8
											c-0.2,0-0.3-0.1-0.5-0.1c0,0.3-0.3,0.6-0.7,0.6c-0.3,0-0.6-0.3-0.6-0.7c-0.2,0-0.3,0-0.5,0c0,0.3-0.2,0.6-0.6,0.7
											c-0.3,0-0.7-0.2-0.7-0.6c-0.2,0-0.3,0.1-0.5,0.1c0.1,0.3-0.1,0.7-0.4,0.8c-0.3,0.1-0.7-0.1-0.8-0.4
											c-0.1,0.1-0.3,0.1-0.4,0.2c0.1,0.3,0,0.7-0.3,0.8c-0.3,0.1-0.7,0-0.8-0.3c-0.1,0.1-0.3,0.2-0.4,0.2
											c0.2,0.3,0.1,0.7-0.2,0.9C74.5,210.2,74.1,210.2,73.9,209.9z M75.8,211.5c3.4-2.4,8.1-1.7,10.5,1.7
											c2.4,3.4,1.7,8.1-1.7,10.5s-8.1,1.7-10.5-1.7C71.6,218.7,72.4,213.9,75.8,211.5z"/>
									</g>
								</g>
							</g>
						</g>
					</g>
					<g>
						<g>
							<g>
								<g>
									<path class="st5" d="M83.7,224.8l-2.2,0.9c0,0,0.9,2,2.3,4.4c1.5,2.4,0.7,3.2,1.3,4.6c0.6,1.5,1.9,0.9,1.9,0.9
										s1.3-0.6,0.7-2c-0.6-1.5-1.7-1.4-2.4-4.2C84.6,226.9,83.7,224.8,83.7,224.8z M86.3,233.9c0.3-0.1,0.7,0,0.8,0.3
										s0,0.7-0.3,0.8c-0.3,0.1-0.7,0-0.8-0.3S86,234.1,86.3,233.9z"/>
								</g>
							</g>
						</g>
					</g>
				</g>
				<g>
					<g>
						<rect x="26.9" y="178.4" class="st2" width="29.7" height="1.6"/>
					</g>
				</g>
				<g>
					<g>
						<g>
							<path class="st5" d="M127,212.1c-0.2,0.7,0.5,1.4,1.2,1.2c0.3-0.1,0.6-0.3,0.7-0.7c0.2-0.7-0.5-1.4-1.2-1.2
								C127.4,211.5,127.1,211.8,127,212.1z"/>
						</g>
					</g>
				</g>
				<g>
					<g>
						<g>
							<path class="st5" d="M111.1,171.2c0.1,0,0.1,0,0.2,0l3.2-0.9c0.3-0.1,0.4-0.4,0.4-0.7c-0.1-0.3-0.4-0.4-0.7-0.4l-3.2,0.9
								c-0.3,0.1-0.4,0.4-0.4,0.7C110.7,171,110.9,171.2,111.1,171.2z"/>
						</g>
					</g>
				</g>
				<g>
					<g>
						<g>
							<path class="st5" d="M114.9,183.9c0.1,0,0.1,0,0.2,0l3.1-1.2c0.3-0.1,0.4-0.4,0.3-0.7c-0.1-0.3-0.4-0.4-0.7-0.3l-3.1,1.2
								c-0.3,0.1-0.4,0.4-0.3,0.7C114.5,183.8,114.7,183.9,114.9,183.9z"/>
						</g>
					</g>
				</g>
				<g>
					<g>
						<g>
							<path class="st5" d="M66.5,173.8L66.5,173.8l2.4-0.7c0.2-0.1,0.4-0.3,0.3-0.6c-0.1-0.2-0.3-0.4-0.6-0.3l-2.3,0.7
								c-0.2,0.1-0.4,0.3-0.3,0.6C66.1,173.7,66.3,173.8,66.5,173.8z"/>
						</g>
					</g>
				</g>
				<g>
					<g>
						<g>
							<path class="st5" d="M41.3,212.1c-0.2,0.7,0.5,1.4,1.2,1.2c0.3-0.1,0.6-0.3,0.7-0.7c0.2-0.7-0.5-1.4-1.2-1.2
								C41.6,211.5,41.4,211.8,41.3,212.1z"/>
						</g>
					</g>
				</g>
			</g>
			<g>
				<path class="st3" d="M67,142.6l2.7,7.2c0,0,24.6,4.3,26.8,5.6s3.4,4.5,0,9.7c-3.4,5.2-19.2,32.5-19.2,32.5l-4.1-2.2
					c0,0,7.5-22.3,8.3-23.9c0.7-1.6,3.8-6.8,3.8-6.8s-21.4,0-27.7,0c-6.3,0-15.1-9.7-9.5-21.2L67,142.6z"/>
			</g>
			<g>
				<g>
					<path class="st3" d="M78,119.4l5.7-6c0,0,1.8,1.2,3,0.7c0.4-0.2,1.3-1.8,2.2-3.8c0.1-0.2,0.2-0.5,0.3-0.8s0.9,0.8,1,0.6
						c0.2-0.6-0.3-2.5-0.1-3.1c0.9-2.7,1.4-5.4,0.7-6.7c-1.5-3-9.3-6-11.7-2.6c-2.4,3.5-2.9,8.2-0.7,12.3l-4,4.7L78,119.4z"/>
				</g>
			</g>
			<g>
				<path class="st2" d="M87.8,105.5c-2.4,0.4-4.6,0.2-6.7-0.2c0,0,0.7,2.1-0.8,4.7c-1.5,2.5-3.6,4.9-6.6,5.1
					c-6.6,0.4-15.4-4.7-15.5-12c-0.1-3.7,2.5-7.3,6.2-7.8c2.2-0.3,4.4,0.2,6.6,0.6c2.9,0.5,5.9,0.4,8.7-0.4c2.8-0.8,5.8-1.9,8.7-0.7
					c2.2,0.8,4.7,3.1,4.8,5.6C93.4,103.5,90.8,104.9,87.8,105.5z"/>
			</g>
			<g>
				<path class="st2" d="M69.9,147.3L69.9,147.3c1.4-0.8,2.2-2.3,2.3-3.9l3.7-12.3c0,0,5.3-0.6,6-2.7c0.7-2-4.4-15-8-16.2
					c-3.7-1.3-12,6.9-14.6,9.9c-2.7,3.1-10.3,12.2-11.9,16.9c-0.5,1.4-0.3,2.9,0.5,4.2l0.1,0.2L69.9,147.3z"/>
			</g>
			<g>
				<path class="st15" d="M74.1,164.7l1.7-13.8l-5.8-1.1l-0.1-2.4L48,143.5c0,0-2.6,5.7-2,11c0.5,5.3,5.4,10.3,11.6,10.3
					C63.6,164.7,74.1,164.7,74.1,164.7z"/>
			</g>
			<g>
				<path class="st5" d="M70.1,201.3l-0.3,1.9l10.5,1.8l0.3-1.6C80.5,203.4,73.3,201,70.1,201.3z"/>
			</g>
			<g>
				<polygon class="st2" points="77.3,197.6 76.8,199.6 80.5,203.4 70.1,201.3 73.1,195.4 				"/>
			</g>
			<g>
				<polygon class="st5" points="81.6,234.7 81.9,237.9 92,235.9 91.2,232.5 				"/>
			</g>
			<g>
				<path class="st17" d="M68.3,149.4L68.3,149.4l-2-0.3c-0.1,0-0.2-0.2-0.2-0.3s0.2-0.2,0.3-0.2l2,0.3c0.1,0,0.2,0.2,0.2,0.3
					C68.6,149.3,68.4,149.4,68.3,149.4z"/>
			</g>
			<g>
				<path class="st3" d="M66.5,119.4C71,117.1,83.4,132,88.6,138l20.6,12.1c0,0,4.6-1.6,5.5-1.7c0.9,0,1.2,1.2,1,2.6
					c-0.1,1.4-9.6,4.4-9.6,4.4s-0.9-1.5-1.3-2.9c0,0-17.4-6.4-20.3-7.8C81.7,143.3,55.5,124.9,66.5,119.4z"/>
			</g>
			<g>
				<g>
					<path class="st2" d="M107.2,157.6c0.4,0,0.9-0.2,1.1-0.6c0,0,3.6-4.8,7.1-3.1c0.7,0.3,1.6,0,1.9-0.7c0.3-0.7,0-1.6-0.7-1.9
						c-5.7-2.6-10.4,3.8-10.6,4.1c-0.5,0.6-0.3,1.5,0.3,2C106.6,157.5,106.9,157.6,107.2,157.6z"/>
				</g>
			</g>
			<g>
				<path class="st10" d="M60.5,139.3c-1.7,0-3.3-0.1-5-0.4c-0.1,0-0.2-0.2-0.2-0.3s0.2-0.2,0.3-0.2c4.5,0.8,9.1,0.5,13.4-0.9
					c0.1,0,0.3,0,0.3,0.2c0,0.1,0,0.3-0.2,0.3C66.4,138.9,63.5,139.3,60.5,139.3z"/>
			</g>
			<g>
				<path class="st14" d="M74.5,191.1L74.5,191.1c-0.2-0.1-0.3-0.2-0.2-0.4l4.4-12.2c0-0.1,0.2-0.2,0.3-0.2c0.1,0,0.2,0.2,0.2,0.3
					l-4.4,12.2C74.7,191,74.6,191.1,74.5,191.1z"/>
			</g>
			<g>
				<path class="st14" d="M78.1,196.5L78.1,196.5c-0.2-0.1-0.3-0.2-0.2-0.4l4.3-8c0.1-0.1,0.2-0.2,0.4-0.1c0.1,0.1,0.2,0.2,0.1,0.4
					l-4.3,8C78.3,196.5,78.2,196.5,78.1,196.5z"/>
			</g>
		</g>
		<g>
			<g>
				<g>
					<path class="st9" d="M373.6,274.6l0.2,8.4c0,0,6.5,2.2,6.6,2.8l-10.3,0.7l0.3-11.6L373.6,274.6z"/>
				</g>
				<g>
					<path class="st9" d="M296.3,246.3l-7.8-1.8c0,0-5.4,4.2-5.9,3.9l5.1-9l10.2,4L296.3,246.3z"/>
				</g>
			</g>
			<g>
				<path class="st3" d="M334.6,200.6c0,0,7.7,26.5,14.3,31.9c6.8,5.5,12.9,9.7,12.9,9.7l6.2,30.9c0,0,5.7,5.6,5.5-0.4
					c-0.3-12.4-1-31.9-1.8-34.2c-1.2-3.5-21.4-34.4-21.4-34.4L334.6,200.6z"/>
			</g>
			<g>
				<path class="st2" d="M368,273.1l2,10.2l3.7-0.4c0,0-0.1-4.3-0.3-10.2C371.6,272.9,369.8,273,368,273.1z"/>
			</g>
			<g>
				<path class="st3" d="M354.6,205.8c0,0-12.9,32.5-16.7,38.4c-3.8,5.9-6.6,10.6-8.8,10.7c-1.4,0.1-17.8-4.3-29.3-7.4
					c-6.3-1.7,0.7-6.2,0.7-6.2l25,1.9l7.6-31l11.3-9.5L354.6,205.8z"/>
			</g>
			<g>
				<path class="st2" d="M300.4,241.4l-9.4-0.7l-2.4,3.8c0,0,4.8,1.4,11.2,3.1C300,245.5,300.2,243.5,300.4,241.4z"/>
			</g>
			<g>
				<polygon class="st2" points="330.4,222.8 342.9,233.9 345.6,228.3 332.2,214.2 				"/>
			</g>
			<g>
				<path class="st3" d="M382.3,168.4c0,0-9.7,18.3-11.3,18.7c-0.7,0.2-5.4-1.7-9.2-3.1c-4.2-1.5,2.9-8,2.9-8l4.6,2.2l8.4-9.8"/>
			</g>
			<g>
				<path class="st5" d="M363.5,154.7c0,0.3,0,0.6-0.1,0.9c-0.6,6-4.6,11.5-10.2,13.8c-2.3,0.9-4.6,0.3-7,0.5
					c-3.6,0.4-7.2,0.3-10.7-0.5c-4.1-0.9-8.9-2.6-11.3-6.3c-1.7-2.6-1.8-6-0.5-8.8s3.9-4.9,6.8-5.7c2.5-0.7,5.2-0.6,7.8-1.3
					c4.7-1.4,8.4-5.6,13.3-6.2c3.4-0.4,6.9,1.3,9,3.9C362.8,147.7,363.7,151.3,363.5,154.7z"/>
			</g>
			<g>
				<path class="st9" d="M364.7,176.1l-7.9-4.6l-3.3,9.5c0,0,4.1,1.6,8.2,3C362.7,181.4,363.7,178.7,364.7,176.1z"/>
			</g>
			<g>
				<g>
					<path class="st3" d="M353.5,167.2l2.7-6.1c0,0,2.3,0.6,3.3-0.4c0.4-0.4,0.8-2.3,0.9-4.7c0-0.3,0-0.6,0.1-0.9
						c0-0.3,1.3,0.5,1.3,0.2c0-0.7-1.2-2.5-1.2-3.1c-0.1-3.1-0.5-6-1.6-7.1c-2.6-2.6-11.8-2.9-13,1.5s-0.1,9.5,3.6,12.9l-2.5,6.3
						L353.5,167.2z"/>
				</g>
			</g>
			<g>
				<path class="st2" d="M334.6,200.6c0,0-0.8,0.5-2,1.4c-2.2,2-5.1,6.4-0.7,13.6c3,4.9,10.3,11.5,17,16.8l4.7-4.6l-1.6-3.7l3.7,2.5
					l5.7-5.3c-2.4-3.8-4.8-7.5-6.8-10.6l0,0v-5l-4.3-1.6v0.5"/>
			</g>
			<g>
				<path class="st9" d="M347.5,162.3c-4-0.6-8.6,2.6-10.9,3.5c-2.3,0.9,1,28,1,28l-3,6.9l20,5.2l0.8-13.6
					c2.3-8.2,6.3-14.5,5.5-16.3C358.5,171.1,351.8,162.9,347.5,162.3z"/>
			</g>
			<g>
				<path class="st10" d="M344,228.5c-0.1,0-0.1,0-0.2-0.1c-3.4-2.5-6-5.5-8.8-8.6c-0.8-0.9-1.6-1.8-2.5-2.7c-0.1-0.1-0.1-0.3,0-0.4
					s0.3-0.1,0.4,0c0.8,0.9,1.7,1.8,2.5,2.7c2.8,3.1,5.4,6,8.7,8.5c0.1,0.1,0.1,0.3,0.1,0.4C344.2,228.5,344.1,228.5,344,228.5z"/>
			</g>
			<g>
				<path class="st3" d="M321.4,197.5c0.3-1.6,0.6-3.2,1.5-4.6c0.4,1.6,0.5,3.2,0.4,4.8c0,0.4-0.1,0.8-0.3,1.1
					c-0.2,0.3-0.6,0.6-1,0.5s-0.6-0.4-0.7-0.8C321.3,198.2,321.4,197.9,321.4,197.5z"/>
			</g>
			<g id="XMLID_5_">
				<g>
					<path class="st3" d="M377.9,166.2c0.7,0.8-0.5,2.9-1.4,4.1c0.9,1.1,1.1,3.6,1.9,4.8c3.7-6.7,6.5-9.6,6.8-10.5
						c0.6-2,0.8-3.1-1-3.1s-1-2.2-2.5-2s-1-2.4-2.5-1.6c-1.5,0.8-1,3.9-1,3.9S375.3,163.1,377.9,166.2z"/>
				</g>
			</g>
			<g>
				<path class="st3" d="M331.2,167.9c-5.5,2.1-10.7,4.3-11.1,4.7c-0.8,0.8,0.2,7.9,0.8,12.2c0.9,7.9,0.8,12.5,1.1,13.4
					c0.8,1.9,1.3,2.9,2.6,2c1.3-1,2,1.3,3,0.3c0.9-1,2.1,1.4,2.7,0c0.5-1.4-1.6-3.7-1.6-3.7s1.3-2.6-2.4-3.7
					c-0.9-0.3-0.8-2.8-0.8-3.5c-0.1-2.7,0.5-7.4,1.1-12.2l6.9-2.4C333.3,175.1,334.6,166.6,331.2,167.9z"/>
			</g>
			<g>
				<path class="st9" d="M349.6,167.5c-0.7-3.4-4.3-5.4-7.6-4.2c-2.9,1-6.9,3.1-10.8,4.6c0.8,3.3,1.5,3.9,2.1,7.2l12-0.8
					C348.3,173.5,350.2,170.5,349.6,167.5z"/>
			</g>
			<g>
				<path class="st16" d="M338.1,175.5c-0.1,0-0.3-0.1-0.3-0.2c0-0.2,0.1-0.3,0.2-0.3c2.5-0.2,5.2-0.5,7.6-1.7
					c2.1-1.1,4.1-3.3,4-5.9c0-0.2,0.1-0.3,0.3-0.3c0.2,0,0.3,0.1,0.3,0.3c0.1,2.9-2.1,5.3-4.3,6.4
					C343.4,175.1,340.6,175.3,338.1,175.5L338.1,175.5z"/>
			</g>
			<g>
				<path class="st9" d="M359.5,182.6h-0.1c-0.1-0.1-0.2-0.2-0.1-0.4c1-2,1.4-4.4,1-6.6c0-0.1,0.1-0.3,0.2-0.3s0.3,0.1,0.3,0.2
					c0.3,2.3-0.1,4.8-1.1,6.9C359.7,182.5,359.6,182.6,359.5,182.6z"/>
			</g>
			<g>
				<path class="st5" d="M353,150c-0.2,0.4-0.3,0.8-0.4,1.3c-0.3,1.9,0.6,3.8,0.3,5.6c-0.3,1.7-1.6,3.3-3.2,3.9
					c-1.7,0.6-3.6,0.1-4.9-1.1c-0.9-0.9-1.5-2.3-1.5-3.6c0.1-1,0.6-1.8,0.8-2.8c0.4-2.6-0.9-6,1.3-8.2c2.1-2.2,6.1-2.6,9.2-2.5
					c1.1,0.1,3.7,1.2,4.6,1.7c1.2,0.7,1.1,2.9,1.1,4.3c0-0.4-2-0.8-2.3-0.9c-0.8-0.1-1.7-0.1-2.5,0.2C354.3,148.4,353.5,149,353,150
					z"/>
			</g>
		</g>
	</g>
	<g id="DESIGNED_BY_FREEPIK" class="st18">
		<g>
			<g id="XMLID_50_" class="st19">
				<g id="XMLID_69_">
					<path id="XMLID_132_" class="st20" d="M212.6,372.1c-0.4,0.4-0.8,0.9-1.1,1.5l-0.5-0.2c-0.1-0.3-0.3-0.5-0.7-0.5
						c-0.3,0-0.6,0.3-0.5,0.7c0,0.3,0.3,0.6,0.7,0.5c0.1,0,0.1,0,0.2-0.1l0.5,0.2c-0.3,0.6-0.4,1.1-0.5,1.7l0.7,0.1
						c0.2-1.3,0.8-2.5,1.8-3.5L212.6,372.1z"/>
					<path id="XMLID_131_" class="st20" d="M218.1,369.8c-0.2,0-0.3,0-0.5,0l-0.1-0.6c0.2-0.1,0.3-0.4,0.3-0.6
						c0-0.4-0.4-0.7-0.8-0.6c-0.4,0-0.7,0.4-0.6,0.8c0,0.3,0.2,0.5,0.4,0.6l0.1,0.6c-0.7,0.1-1.4,0.3-2.1,0.6l0.3,0.7
						c0.9-0.4,1.9-0.7,3-0.7c0.5,0,1,0.1,1.5,0.2l0.2-0.7C219.2,369.8,218.6,369.8,218.1,369.8z"/>
					<path id="XMLID_130_" class="st20" d="M224.7,372.3c0.3,0,0.6-0.3,0.5-0.7c0-0.3-0.3-0.6-0.7-0.5c-0.3,0-0.5,0.3-0.5,0.6
						l-0.4,0.4c-0.4-0.4-0.9-0.8-1.4-1.1l-0.4,0.6c1.1,0.7,2,1.7,2.6,2.9l0.7-0.3c-0.3-0.6-0.6-1.1-0.9-1.5L224.7,372.3
						C224.6,372.3,224.6,372.3,224.7,372.3z"/>
					<path id="XMLID_129_" class="st20" d="M217.5,380c-0.4,0-0.8,0-1.2,0c-0.9,0-1.7-0.1-2.5-0.2c-0.4-0.1-0.8-0.2-1.3-0.3
						c1,1.9,3.1,3.1,5.4,3.1c2.9,0,5.3-1.9,5.9-4.5c-0.7,0.4-1.5,0.8-2.5,1.1C220.3,379.6,219,379.9,217.5,380z"/>
					<path id="XMLID_70_" class="st20" d="M218.1,371.3c-3.4,0-6.1,2.7-6.1,5.9c0,0.4,0,0.8,0.1,1.3c0.7,0.5,2.7,0.9,5.3,0.7
						c2.9-0.2,5.3-1,6.7-2.2c0-0.2,0-0.4,0-0.6C223.7,373.5,221.2,371.3,218.1,371.3z M215.9,377.8c-1,0-1.8-0.8-1.8-1.8
						s0.8-1.8,1.8-1.8s1.8,0.8,1.8,1.8C217.8,377,217,377.8,215.9,377.8z M220.7,376.9c-0.8,0-1.4-0.6-1.4-1.4s0.6-1.4,1.4-1.4
						s1.4,0.6,1.4,1.4S221.4,376.9,220.7,376.9z"/>
				</g>
				<path id="XMLID_67_" class="st20" d="M234.1,373.1c-0.3-0.1-0.8-0.3-1.4-0.2c-0.6,0.1-0.8,0.3-0.8,1v0.9h2.2v1.7h-2.2v5.5H230
					v-5.5h-1.3v-1.7h1.3v-0.9c0-1.7,0.9-2.8,2.6-2.8c0.6,0,1.2,0.1,1.6,0.3L234.1,373.1z"/>
				<path id="XMLID_65_" class="st20" d="M238.8,376.5c-0.2,0-0.4,0-0.5,0c-0.9,0-1.5,0.5-1.5,1.6v3.9h-1.9v-7.2h1.9v0.8
					c0.5-0.7,1.1-1,2-1c0.4,0,0.8,0.1,1.1,0.3L238.8,376.5z"/>
				<path id="XMLID_62_" class="st20" d="M246.5,378.4c0,0.2,0,0.5,0,0.7h-5.1c0.2,1,0.9,1.5,1.8,1.5c0.6,0,1.3-0.3,1.8-0.7l1.1,1.2
					c-0.8,0.7-1.9,1.1-3.1,1.1c-2.2,0-3.7-1.5-3.7-3.8s1.5-3.8,3.6-3.8C245,374.6,246.5,376.1,246.5,378.4z M241.4,377.7h3.2
					c-0.2-0.9-0.7-1.4-1.6-1.4S241.5,376.8,241.4,377.7z"/>
				<path id="XMLID_59_" class="st20" d="M254.1,378.4c0,0.2,0,0.5,0,0.7H249c0.2,1,0.9,1.5,1.8,1.5c0.6,0,1.3-0.3,1.8-0.7l1.1,1.2
					c-0.8,0.7-1.9,1.1-3.1,1.1c-2.2,0-3.7-1.5-3.7-3.8s1.5-3.8,3.6-3.8C252.7,374.6,254.1,376.1,254.1,378.4z M249,377.7h3.2
					c-0.2-0.9-0.7-1.4-1.6-1.4S249.2,376.8,249,377.7z"/>
				<path id="XMLID_56_" class="st20" d="M262.5,378.4c0,2.2-1.5,3.8-3.5,3.8c-1,0-1.6-0.4-2.1-0.9v3.7H255v-10.1h1.9v0.8
					c0.5-0.6,1.2-1,2.1-1C261,374.6,262.5,376.2,262.5,378.4z M256.8,378.4c0,1.1,0.7,2,1.8,2c1.1,0,1.9-0.9,1.9-2s-0.7-2-1.9-2
					C257.5,376.4,256.8,377.2,256.8,378.4z"/>
				<path id="XMLID_53_" class="st20" d="M265.6,372.4c0,0.7-0.5,1.2-1.2,1.2s-1.2-0.5-1.2-1.2s0.5-1.2,1.2-1.2
					C265,371.2,265.6,371.7,265.6,372.4z M265.3,382h-1.9v-7.2h1.9V382z"/>
				<path id="XMLID_51_" class="st20" d="M268.5,377.3l2.7-2.6h2.4l-3.5,3.4l3.5,3.8h-2.4l-2.7-2.9v2.9h-1.9v-10.7h1.9V377.3z"/>
			</g>
			<g class="st19">
				<path class="st20" d="M136.9,381.9v-1.1c-0.5,0.7-1.4,1.2-2.4,1.2c-1.8,0-3.1-1.4-3.1-3.7c0-2.3,1.3-3.7,3.1-3.7
					c1,0,1.8,0.5,2.4,1.2V372h1.1v9.8h-1.1V381.9z M136.9,380v-3.2c-0.4-0.6-1.2-1.1-2.1-1.1c-1.4,0-2.3,1.2-2.3,2.7
					c0,1.6,0.8,2.7,2.3,2.7C135.7,381.1,136.5,380.6,136.9,380z"/>
				<path class="st20" d="M139.4,378.3c0-2.1,1.5-3.7,3.5-3.7c2.1,0,3.4,1.7,3.4,3.8v0.3h-5.7c0.1,1.3,1,2.4,2.5,2.4
					c0.8,0,1.6-0.3,2.2-0.9l0.5,0.7c-0.7,0.7-1.7,1.1-2.8,1.1C140.9,382.1,139.4,380.6,139.4,378.3z M142.9,375.5
					c-1.5,0-2.3,1.3-2.3,2.4h4.6C145.2,376.9,144.5,375.5,142.9,375.5z"/>
				<path class="st20" d="M147.1,381l0.6-0.8c0.5,0.5,1.4,1,2.3,1c1.1,0,1.7-0.5,1.7-1.2c0-1.7-4.4-0.7-4.4-3.3c0-1.1,1-2,2.6-2
					c1.2,0,2.1,0.5,2.6,1l-0.5,0.8c-0.4-0.5-1.2-0.9-2.1-0.9c-1,0-1.6,0.5-1.6,1.1c0,1.6,4.4,0.5,4.4,3.3c0,1.2-1,2.1-2.8,2.1
					C148.8,382.1,147.8,381.7,147.1,381z"/>
				<path class="st20" d="M154,373.1c0-0.4,0.3-0.7,0.7-0.7s0.7,0.3,0.7,0.7c0,0.4-0.3,0.7-0.7,0.7S154,373.5,154,373.1z
					 M154.2,381.9v-7.1h1.1v7.1H154.2z"/>
				<path class="st20" d="M157.1,383.7l0.6-0.8c0.6,0.7,1.3,1,2.3,1c1.2,0,2.3-0.6,2.3-2.1v-1c-0.5,0.7-1.4,1.3-2.4,1.3
					c-1.8,0-3.1-1.4-3.1-3.7c0-2.3,1.3-3.7,3.1-3.7c1,0,1.8,0.5,2.4,1.2v-1.1h1.1v6.9c0,2.3-1.6,3.1-3.4,3.1
					C158.7,384.8,157.9,384.5,157.1,383.7z M162.2,379.9v-3.1c-0.4-0.6-1.2-1.1-2.1-1.1c-1.4,0-2.3,1.1-2.3,2.7s0.8,2.7,2.3,2.7
					C161,381,161.8,380.5,162.2,379.9z"/>
				<path class="st20" d="M169.9,381.9v-4.6c0-1.2-0.6-1.6-1.6-1.6c-0.9,0-1.7,0.5-2.1,1.1v5.2h-1.1v-7.1h1.1v1
					c0.5-0.6,1.5-1.2,2.5-1.2c1.5,0,2.3,0.7,2.3,2.3v5L169.9,381.9L169.9,381.9z"/>
				<path class="st20" d="M172.4,378.3c0-2.1,1.5-3.7,3.5-3.7c2.1,0,3.4,1.7,3.4,3.8v0.3h-5.7c0.1,1.3,1,2.4,2.5,2.4
					c0.8,0,1.6-0.3,2.2-0.9l0.5,0.7c-0.7,0.7-1.7,1.1-2.8,1.1C173.9,382.1,172.4,380.6,172.4,378.3z M175.9,375.5
					c-1.5,0-2.3,1.3-2.3,2.4h4.6C178.2,376.9,177.5,375.5,175.9,375.5z"/>
				<path class="st20" d="M185.9,381.9v-1.1c-0.5,0.7-1.4,1.2-2.4,1.2c-1.8,0-3.1-1.4-3.1-3.7c0-2.3,1.3-3.7,3.1-3.7
					c1,0,1.8,0.5,2.4,1.2V372h1.1v9.8h-1.1V381.9z M185.9,380v-3.2c-0.4-0.6-1.2-1.1-2.1-1.1c-1.4,0-2.3,1.2-2.3,2.7
					c0,1.6,0.8,2.7,2.3,2.7C184.6,381.1,185.5,380.6,185.9,380z"/>
				<path class="st20" d="M192.2,381.9v-9.8h1.1v3.8c0.6-0.8,1.4-1.2,2.4-1.2c1.8,0,3.1,1.5,3.1,3.7c0,2.3-1.3,3.7-3.1,3.7
					c-1,0-1.9-0.5-2.4-1.2v1.1h-1.1V381.9z M195.4,381.1c1.4,0,2.3-1.2,2.3-2.7c0-1.6-0.8-2.7-2.3-2.7c-0.9,0-1.7,0.5-2.1,1.1v3.2
					C193.7,380.6,194.5,381.1,195.4,381.1z"/>
				<path class="st20" d="M200,383.7c0.2,0.1,0.4,0.1,0.6,0.1c0.5,0,0.8-0.2,1.1-0.7l0.5-1.1l-3-7.1h1.2l2.4,5.8l2.3-5.8h1.2
					l-3.5,8.5c-0.4,1-1.1,1.4-2.1,1.4c-0.2,0-0.6,0-0.8-0.1L200,383.7z"/>
			</g>
		</g>
	</g>
</g>
</svg>
