<?xml version="1.0" encoding="utf-8"?>
<!-- Generator: Adobe Illustrator 22.1.0, SVG Export Plug-In . SVG Version: 6.00 Build 0)  -->
<svg version="1.1" id="Layer_1" xmlns="http://www.w3.org/2000/svg" xmlns:xlink="http://www.w3.org/1999/xlink" x="0px" y="0px"
	 viewBox="0 0 300 300" style="enable-background:new 0 0 300 300;" xml:space="preserve">
<style type="text/css">
	.st0{fill:#172C32;}
	.st1{fill:#E48868;}
	.st2{fill:#121C21;}
	.st3{fill:#464473;}
	.st4{fill:#483DF6;}
	.st5{clip-path:url(#SVGID_2_);fill:#464473;}
	.st6{fill:#FF2F52;}
</style>
<g>
	<polygon class="st0" points="163.6,136.8 157.6,162.8 142.9,133.4 	"/>
	<path class="st1" d="M157.8,154.5l-3,5.4c-0.6,1.1-1.5,2.1-2.6,2.8l-45.3,30.6l-5.4-5.7l18.9-15c0,0,7.1-16.6,19.5-15.5l3.2-16.1
		L157.8,154.5z"/>
	<path class="st2" d="M108.9,189.8l-2.2-2.3c0,0,0.5-4.1-1.2-4.8c-1.7-0.7-8.6,5-8.6,5s7.4,17.9,21.6,21.6c0,0,2.4-1,0.6-4.6
		c-1.8-3.3-7-6.7-4.1-14.3c0.3-0.8,0.6-2.3-0.3-2.5C112.8,187.4,109.9,187.2,108.9,189.8z"/>
	<path class="st0" d="M138.4,159.4c0,0,0.8,3.1,11-1.2c9-3.8,10.9-4.5,10.8-7.8c-0.1-3.3-15.9-3.5-15.9-3.5L138.4,159.4z"/>
	<path class="st1" d="M158.3,149.5l1.8,5.9c0.4,1.2,0.5,2.6,0.2,3.8l-9.1,53.9h-7.9l2.2-24.1c0,0-7.1-16.6,2.3-24.8l-9.4-13.5
		L158.3,149.5z"/>
	<path class="st3" d="M136.7,124.5c0,0-8.1,6.8-5,17.3c3.1,10.5,6.7,17.6,6.7,17.6s7.7-11.5,21.8-9l-6.3-18.1L136.7,124.5z"/>
	<path class="st1" d="M167.1,87.6c0,0-2.6-4.3-13.5-4.5c0,0-4.8-3.6-16.3-3.9c-1.1,0-2.1,0.5-2.7,1.3l-14.7,19.9l5.1,3.1L138.4,89
		l11.4,4.9l3.5,4.1l8.7,4.7L167.1,87.6z"/>
	<g>
		<path class="st4" d="M167.1,87.6c-4.5,11.4-13.8,10.4-13.9,10.4c-7,9.3-13.8,23.3-13.8,23.3l19.9,13l28-27.1
			C184.3,97.2,173,90.5,167.1,87.6z"/>
	</g>
	<path class="st1" d="M173.5,101.9L173.5,101.9c-1.7-2.5-1-5.9,1.6-7.6l7.4-4.8l6,9.1l-7.4,4.8C178.5,105.1,175.1,104.4,173.5,101.9
		z"/>
	<g>
		<g>
			<defs>
				<path id="SVGID_1_" d="M183.5,102.8l-1-0.3c-5.1-1.4-8.2-6.6-6.8-11.7l1.5-5.8c1.4-5.1,6.6-8.2,11.7-6.8l1,0.3
					c5.1,1.4,8.2,6.6,6.8,11.7l-1.5,5.8C193.9,101.1,188.6,104.2,183.5,102.8z"/>
			</defs>
			<use xlink:href="#SVGID_1_"  style="overflow:visible;fill:#E48868;"/>
			<clipPath id="SVGID_2_">
				<use xlink:href="#SVGID_1_"  style="overflow:visible;"/>
			</clipPath>
			<path class="st5" d="M175.5,93l1-1.1c1.3,0.1,4.3,0.2,4.3,0.2l0.2-2.8c0,0,2.3-2,1.3-4.5c-0.2-0.4-0.1-0.9,0.1-1.3
				c0.4-0.8,1.3-0.7,3.2,0.3c3.1,1.6,10.7,5,13.6,0c3.7-6.2-18.5-7.2-18.5-7.2l-5.8,6.2L175.5,93L175.5,93z"/>
		</g>
		<path class="st1" d="M178.9,90.4c-0.5,1.8-2.4,2.9-4.2,2.4c-1.8-0.5-2.9-2.4-2.4-4.2c0.5-1.8,2.4-2.9,4.2-2.4
			C178.3,86.7,179.4,88.6,178.9,90.4z"/>
	</g>
	<path class="st1" d="M132.1,114.3c3.4,0.7,5.5,4,4.8,7.3c-0.7,3.4-4,5.5-7.3,4.8c-3.4-0.7-5.5-4-4.8-7.3
		C125.5,115.8,128.7,113.7,132.1,114.3z"/>
	<path class="st1" d="M122,94.6c3,0.6,4.9,3.5,4.3,6.5c-0.6,3-3.5,4.9-6.5,4.3c-3-0.6-4.9-3.5-4.3-6.5C116.1,95.9,119,94,122,94.6z"
		/>
	<circle class="st6" cx="121.1" cy="111.2" r="12.9"/>
	<path class="st1" d="M187.3,107.2c0,0,7.9,9.6-6,17.1c0,0-5.1,10.3-18.3,15.8c-1.3,0.5-2.8,0.4-3.9-0.3l-24.4-15.2l1.5-7.4
		c18.2,9.9,25.3,13.1,25.3,13.1l15.1-12.7L187.3,107.2z"/>
	<path class="st2" d="M150,209.2h-3.2c0,0-2.6-3.2-4.3-2.5c-1.7,0.8-2.3,9.7-2.3,9.7s18.1,7,30.5-0.7c0,0,0.9-2.5-2.9-3.6
		c-3.6-1-9.7,0.4-13.2-6.9c-0.4-0.8-1.3-2-2-1.6C151,204.7,148.8,206.7,150,209.2z"/>
</g>
</svg>
