<?xml version="1.0" encoding="utf-8"?>
<!-- Generator: Adobe Illustrator 22.1.0, SVG Export Plug-In . SVG Version: 6.00 Build 0)  -->
<svg version="1.1" id="Layer_1" xmlns="http://www.w3.org/2000/svg" xmlns:xlink="http://www.w3.org/1999/xlink" x="0px" y="0px"
	 viewBox="0 0 300 300" style="enable-background:new 0 0 300 300;" xml:space="preserve">
<style type="text/css">
	.st0{fill:#7FBBF7;}
	.st1{fill:#E48868;}
	.st2{fill:#FF6C76;}
	.st3{fill:#FCE0D3;}
	.st4{fill:#FF2F52;}
	.st5{clip-path:url(#SVGID_2_);fill:#464473;}
	.st6{fill:#464473;}
</style>
<g>
	<g>
		<path class="st0" d="M176.6,139.9c0,0,11.8,2.3,13.9,12.3c1.8,8.4-9.2,28-9.2,28s-5.9,0.7-14.3-3.8c0,0,1.9-20.1,9.5-27.8
			L176.6,139.9z"/>
		<path class="st1" d="M167.1,176.4c0,0-2.8,9.9-2.6,16.8c0,2.3,1.5,4.3,3.7,5.1c7.2,2.8,27.8,8.4,44.7,13.2l2.9-5.2l-40-16.5
			l5.6-9.6L167.1,176.4z"/>
		<path class="st1" d="M175.7,189.9c0,0,7.3-4.2,20.7,7.7C209.9,209.5,175.7,189.9,175.7,189.9z"/>
	</g>
	<g>
		<path class="st1" d="M154.5,109c0,0-4.1-2.7-12.9,0l-47.3,0.5l1.9,5.5l24.4,1.5c0.7,0.1,1.3,0.2,2,0.2l25,1.5l9.4,5.8
			C157,124.1,155,115.5,154.5,109z"/>
	</g>
	<path class="st0" d="M169.5,105.9c0.5,0,0.9,0,1.4,0c3,0.3,12.6,2.2,14.4,14.1c1,7,2.2,15.9,3,20.7c0.8,4.8,1.3,5.5,1.3,5.5
		l-22,3.3c-3.5-19.4-17.4-24.7-15-41.3C152.6,108.3,156.9,106.5,169.5,105.9z"/>
	<path class="st2" d="M164.1,151.5"/>
	<g>
		<path class="st0" d="M167.6,149.5c0,0,2.2,13.2,4.8,14.9c1,0.7,14.8-10.3,14.8-10.3l2.4-8L167.6,149.5z"/>
		<path class="st0" d="M189.6,146.2c0,0,6.4,10.2,0.4,18.8c-5.1,7.2-27.3,13.1-27.3,13.1s-4.5-3.8-6.9-13.1c0,0,16.4-12.8,27.3-12.7
			L189.6,146.2z"/>
		<path class="st1" d="M155.7,165c0,0-9.3,5-14.4,9.9c-1.7,1.6-2.2,4.1-1.3,6.3c2.9,7.2,12.1,25.9,20,41.6l5.9-1.5l-14.3-40.5
			l11-2.7L155.7,165z"/>
		<path class="st1" d="M151.6,180.7c0,0,8.1,2.3,8.4,20.5C160.3,219.4,151.6,180.7,151.6,180.7z"/>
		<polygon class="st3" points="153.8,210.3 160.1,222.7 165.9,221.2 161.2,207.7 		"/>
		<path class="st0" d="M166.3,219.7c-0.2-0.5-0.8-0.6-1.2-0.3c-0.8,0.6-1.2,2.1-3.2,2c-2.1-0.1-3.3-1.4-3.7-2.2
			c-0.2-0.4-0.6-0.6-1-0.4l-13.3,6.3c-0.8,0.4-1.4,1.1-1.6,1.9l0,0c-0.3,0.8,0.3,1.6,1.2,1.5l22.4-1.5c0.9-0.1,1.5-0.8,1.4-1.7
			l-0.5-4.8c0-0.1,0-0.1-0.1-0.2L166.3,219.7z"/>
		<polygon class="st3" points="200.4,200.1 197.2,207.1 212.8,211.6 215,206.1 		"/>
	</g>
	<g>
		<path class="st3" d="M101.5,108.7c-1.2-0.3-3.2-0.6-4.2,0.2c0,0-1.3,3.3-0.7,5.8c0.2,0.9,1.1,1.5,2.1,1.4l2.6-0.3
			c0.6-0.1,1.1-0.6,1.1-1.2l0-4.8C102.5,109.4,102.1,108.9,101.5,108.7z"/>
		<path class="st4" d="M98.2,109.9c0-0.5-0.3-0.9-0.7-1.1c-2.4-1.6-11-6.8-14.4,2.4c-3.5,9.5,5.4,11.6,8.1,7.7c0,0,5.3,1.3,7.1-3
			c0.3-0.7,0.4-1.6,0.3-2.3L98.2,109.9z"/>
	</g>
	<path class="st1" d="M168,106c0,0-1.8,10-8.5,9.2c-5.4-0.6-4.1-7.7-4.1-7.7S161.2,105.7,168,106z"/>
	<g>
		<path class="st1" d="M161.9,110.7l0.7-0.5c2.2-1.5,5.3-0.9,3.8-3.1L153.5,89l-7.8,5.5l10.7,15.1
			C157.7,111.5,160.2,111.9,161.9,110.7z"/>
		<path class="st1" d="M157,99.6c0,0,0.9,4.2-2,8.1l-1.9-2.6L157,99.6z"/>
		<path class="st1" d="M144,91.5c0.8,5.7,6.1,9.7,11.8,8.9c5.7-0.8,9.7-6.1,8.9-11.8c-0.8-5.7-6.1-9.7-11.8-8.9
			C147.2,80.6,143.2,85.8,144,91.5z"/>
		<path class="st1" d="M152.8,105.2L152.8,105.2c2.7-0.4,4.6-2.9,4.2-5.6l-1.4-9.9L144,91.4l1.1,8.1
			C145.6,103.2,149,105.7,152.8,105.2z"/>
		<path class="st1" d="M144.6,93.8l-1.8,3.6c-0.2,0.6,0.3,1.2,0.9,1.1l2.7,0.1L144.6,93.8z"/>
		<g>
			<defs>
				<path id="SVGID_1_" d="M144,91.5c0.8,5.7,6.1,9.7,11.8,8.9c5.7-0.8,9.7-6.1,8.9-11.8c-0.8-5.7-6.1-9.7-11.8-8.9
					C147.2,80.6,143.2,85.8,144,91.5z"/>
			</defs>
			<clipPath id="SVGID_2_">
				<use xlink:href="#SVGID_1_"  style="overflow:visible;"/>
			</clipPath>
			<path class="st5" d="M153.9,94.7c0,0-3.5-0.9-2.4-6.5c0,0-7.3,1.9-9.2-0.5c0,0,4.2-15.4,16.6-10.8c12.4,4.6,8.9,18.5,8.9,18.5
				l-9.1,4L153.9,94.7z"/>
		</g>
		<path class="st1" d="M153.4,94.8c0.2,1.6,1.7,2.7,3.2,2.4c1.6-0.2,2.7-1.7,2.4-3.2c-0.2-1.6-1.7-2.7-3.2-2.4
			C154.2,91.8,153.1,93.2,153.4,94.8z"/>
		<path class="st6" d="M161.7,95.3l0.4,5c0,0-5.2,1.9-5.8-3l3.2,0.1L161.7,95.3z"/>
		<path class="st6" d="M151.6,88.3c0,0-10.2,3.6-11.7-2.7c-1.2-5.1,3.2-7.9,7.1-5.9c2.6,1.4,3.5,0.7,5.2,0.2"/>
	</g>
	<path class="st1" d="M172.8,106.2c0,0-6.5,14.8,1.9,21.4c2,1.5,4.5,2.1,6.9,1.3c1.9-0.6,3.3-2.2,3.1-5.8
		C184.4,115.5,184.2,107.9,172.8,106.2z"/>
	<g>
		<path class="st1" d="M172.5,109.6l-11,15.3l-8.2-10.5l-5.5,2.4l11.1,19.6c0.9,1.8,3.3,2.2,4.8,0.8l16.5-18.1
			c2-2.1,1.6-6.4-1.6-9.2l0,0C176.4,107.9,174.3,107.3,172.5,109.6z"/>
		<g>
			<path class="st3" d="M153.5,113.5c-0.3-1.2-0.9-3.1-2.1-3.6c0,0-3.5,0.4-5.4,2c-0.7,0.6-0.9,1.7-0.4,2.5l1.4,2.2
				c0.3,0.5,1,0.7,1.5,0.4l4.3-2.1C153.3,114.6,153.6,114,153.5,113.5z"/>
			<path class="st4" d="M150.9,111c0.4-0.2,0.7-0.7,0.7-1.1c0.4-2.8,1.2-12.9-8.7-11.8c-10,1.1-8,10-3.3,10.7c0,0,1.2,5.3,5.9,4.9
				c0.8-0.1,1.5-0.4,2.2-0.8L150.9,111z"/>
		</g>
	</g>
	<polygon class="st3" points="167.9,151.5 189.6,146.2 188.3,140.7 166.8,146.2 	"/>
	<path class="st0" d="M214.9,205.1c-0.5-0.2-1,0.1-1,0.6c-0.1,1,0.7,2.2-0.8,3.6c-1.5,1.5-3.3,1.4-4.1,1.1c-0.4-0.1-0.9,0.1-1,0.5
		l-4.5,13.7c-0.3,0.8-0.2,1.7,0.2,2.4l0,0c0.4,0.7,1.4,0.8,1.9,0.2l14.2-16.9c0.6-0.7,0.4-1.6-0.3-2.2l-3.8-2.8
		c-0.1,0-0.1-0.1-0.2-0.1L214.9,205.1z"/>
</g>
</svg>
