<?xml version="1.0" encoding="utf-8"?>
<!-- Generator: Adobe Illustrator 22.1.0, SVG Export Plug-In . SVG Version: 6.00 Build 0)  -->
<svg version="1.1" id="Layer_1" xmlns="http://www.w3.org/2000/svg" xmlns:xlink="http://www.w3.org/1999/xlink" x="0px" y="0px"
	 viewBox="0 0 300 300" style="enable-background:new 0 0 300 300;" xml:space="preserve">
<style type="text/css">
	.st0{fill:#B06437;}
	.st1{fill:#E48868;}
	.st2{fill:#413030;}
	.st3{fill:none;stroke:#413030;stroke-width:0.7914;stroke-miterlimit:10;}
	.st4{fill:#EFC33B;}
	.st5{fill:#FF2F52;}
	.st6{fill:#F6F7F9;}
</style>
<g>
	<path class="st0" d="M183.2,82.6c0,0-6.9-15.3-17.3-6.7c-10.4,8.6-12.4,5.4-12.4,5.4s7.7,11.6,17.8,2.1c0,0,5.8-6.6,11.2,1.4
		L183.2,82.6z"/>
	<g>
		<polygon class="st1" points="177.4,108.4 165.2,122 167.1,133.7 181.7,117.6 		"/>
		<path class="st1" d="M167.3,102c0,0,4.3,18.9-0.2,31.7c0,0-6.1,4.1-7.9-2.2c-1.8-6.2,3.2-13,4.6-30.2L167.3,102z"/>
		<path class="st1" d="M177.1,170.9c0,0-23.7,10.3-36.2,9.4c-0.3,0-0.6-0.1-0.9-0.2l-31.8-26.2l1.7-6.8l12.6,8.8
			c0,0,14.8,3.9,18.3,12.7c0,0,22-12.3,26.7-9.1L177.1,170.9z"/>
		<g>
			<polygon class="st2" points="159.5,83.2 163.8,99.1 168.3,97.6 161.9,82.8 			"/>
			<path class="st2" d="M160.2,86l-6.9-8.8c6,4.8,11.1,4.3,11.1,4.3l-1.6,3.5L160.2,86z"/>
			<path class="st2" d="M163.6,81.8c-1.2,0.2-2.7-0.1-4.5-0.9c-2.7-1.2-5.7-3.3-8.5-5.9c-2.8-2.7-5-5.6-6.2-8.3
				c-1.3-2.8-1.4-5-0.2-6.2c1.2-1.2,3.4-1.2,6.2,0c2.7,1.2,5.7,3.3,8.5,5.9l0,0c2.8,2.7,5,5.6,6.2,8.3c1.3,2.8,1.4,5,0.2,6.2
				C164.9,81.4,164.3,81.7,163.6,81.8z M146,60.7c-0.5,0.1-0.9,0.3-1.1,0.5c-0.8,0.9-0.7,2.7,0.4,5c1.2,2.5,3.3,5.4,6,7.9
				c2.7,2.6,5.6,4.6,8.2,5.7c2.4,1,4.2,1.1,5,0.3c0.8-0.9,0.7-2.7-0.4-5c-1.2-2.5-3.3-5.4-6-7.9l0,0c-2.7-2.6-5.6-4.6-8.2-5.7
				C148.3,60.8,147,60.5,146,60.7z"/>
			<line class="st3" x1="145.4" y1="67.2" x2="165.3" y2="79.4"/>
			<line class="st3" x1="144.1" y1="63.6" x2="165" y2="75.9"/>
			<line class="st3" x1="144.4" y1="60.9" x2="162.5" y2="71.5"/>
			<line class="st3" x1="145.8" y1="60.2" x2="153.2" y2="76.8"/>
			<line class="st3" x1="153.4" y1="63.1" x2="161.5" y2="81.3"/>
			<line class="st3" x1="158.2" y1="66.6" x2="164.5" y2="80.8"/>
			<line class="st3" x1="148.9" y1="60.3" x2="157.7" y2="79.9"/>
		</g>
		<path class="st4" d="M177.4,108.4c0,0-2.5,9.9-3.4,31.9l16,4.3c0,0,5.9-13.2,8.8-17.7c2.6-4.1,7.4-8.7,5.9-21.1l-16.8,5.9
			L177.4,108.4z"/>
		<g>
			<path class="st1" d="M190.9,110.8L190.9,110.8c-2.7,0-4.9-2.1-5-4.8l-0.3-11.2l9.8-0.2l0.3,11.2
				C195.8,108.5,193.6,110.8,190.9,110.8z"/>
			<path class="st1" d="M185.1,99.6c0,0,1.8,4.7,6.9,3.9c4.5-0.7,3.3-5.4,3.3-5.4L185.1,99.6z"/>
			<path class="st1" d="M191.9,101.9l-1.2,0.1c-4.8,0.4-8.9-3.2-9.3-7.9l-0.4-5.1c-0.4-4.8,3.2-8.9,7.9-9.3l1.2-0.1
				c4.8-0.4,8.9,3.2,9.3,7.9l0.4,5.1C200.2,97.3,196.7,101.5,191.9,101.9z"/>
			<path class="st1" d="M184.1,93.3c0.1,1.7-1.1,3.2-2.9,3.4c-1.7,0.1-3.2-1.1-3.4-2.9c-0.1-1.7,1.1-3.2,2.9-3.4
				S183.9,91.5,184.1,93.3z"/>
		</g>
		<path class="st1" d="M171.6,98.4c-0.6,3.4-3.8,5.6-7.2,5c-3.4-0.6-5.6-3.8-5-7.2c0.6-3.4,3.8-5.6,7.2-5
			C169.9,91.9,172.2,95.1,171.6,98.4z"/>
		<path class="st1" d="M177.8,149.7c0,0,7.9,22.8,9,35.9c0,0.3,0,0.6,0,0.9l-7.5,50.2l-7.4-0.7l2.3-23.4c0,0-3.7-13.9,1.2-24.5
			c0,0-17.5-25.2-14.8-30.6L177.8,149.7z"/>
		<path class="st5" d="M171.6,234c0.2-0.5,0.7-0.7,1.1-0.4c0.8,0.6,1.9,2,3.9,1.6c2.1-0.4,3.1-1.8,3.4-2.7c0.1-0.4,0.6-0.7,1-0.5
			l13.5,4.9c0.8,0.3,1.4,0.9,1.8,1.7l0,0c0.3,0.8-0.2,1.6-1,1.7l-23.3,1.1c-0.9,0-1.6-0.7-1.5-1.6l1-4.9c0-0.1,0-0.1,0-0.2
			L171.6,234z"/>
		<path class="st5" d="M113.6,147.9c0.3,0.4,0.1,1-0.4,1.1c-0.9,0.2-2.7,0.2-3.8,1.9c-1.1,1.8-0.6,3.6-0.2,4.3
			c0.2,0.4,0.2,0.9-0.2,1.1l-12.4,7.1c-0.7,0.4-1.6,0.5-2.4,0.2l0,0c-0.8-0.2-1.1-1.2-0.6-1.9l14.2-18.5c0.5-0.7,1.5-0.8,2.2-0.1
			l3.1,3.9c0.1,0,0.1,0.1,0.1,0.2L113.6,147.9z"/>
		<path class="st1" d="M207.1,105.1c1,2.5-0.4,5.3-3,6.1l-14,3.9l-0.2,0.1c-0.9,0.3-1.9,0.1-2.7-0.3l-20.6-11.5l3.5-6.2l20.4,11.7
			l-2.9-0.2l13.2-6.1C203.2,101.4,206.1,102.6,207.1,105.1L207.1,105.1z"/>
		<path class="st4" d="M174,140.4c0,0-16.5,8.4-19.8,21.9l30.7,10.7c0,0,2.6-14.5,5.1-28.3L174,140.4z"/>
	</g>
	<path class="st0" d="M184.9,86.5l-2.2,5.4c-0.3,0.6-1.2,0.5-1.3-0.2l-0.4-2.8L184.9,86.5z"/>
	<path class="st0" d="M180.6,86.4L180.6,86.4c0,0-0.4-7.2,8-8.2c10.2-1.2,10.5,6.1,10.5,6.1L180.6,86.4z"/>
	<path class="st6" d="M180.1,89.8l-0.1-3.5c0-0.1,0-0.2,0.1-0.3c0.9-1,6.6-7.3,19.3-2.9c0.2,0.1,0.3,0.2,0.3,0.3l0.8,3.7
		c0.1,0.3-0.3,0.6-0.6,0.5c-9.1-2.9-16.8,1.1-19.1,2.5C180.5,90.4,180.1,90.2,180.1,89.8z"/>
</g>
</svg>
