<?xml version="1.0" encoding="utf-8"?>
<!-- Generator: Adobe Illustrator 22.1.0, SVG Export Plug-In . SVG Version: 6.00 Build 0)  -->
<svg version="1.1" id="Layer_1" xmlns="http://www.w3.org/2000/svg" xmlns:xlink="http://www.w3.org/1999/xlink" x="0px" y="0px"
	 viewBox="0 0 300 300" style="enable-background:new 0 0 300 300;" xml:space="preserve">
<style type="text/css">
	.st0{fill:#E48868;}
	.st1{fill:#37CFB1;}
	.st2{fill:#EFC33B;}
	.st3{fill:#121C21;}
	.st4{fill:#393762;}
</style>
<g>
	<path class="st0" d="M173.3,171.7c0,0,15.3,11.9,21.6,19.6c0,0,23.1,14.4,32,21.8l-4.1,2.3l-23.5-9.8c-3.9-1.6-7.4-4.1-10.3-7.2
		c-0.8-0.8-1.6-1.7-2.5-2.7c0,0-11.2-2.6-27.8-14C158.7,181.7,163,171.2,173.3,171.7z"/>
	<path class="st0" d="M120.7,162.5c0,0-16,0.4-24,4.2c-1.6,0.8-2.6,2.5-2.6,4.3l1.3,43.3l6.2,1.1l0-13.3c0,0,6.8-18.4,0.8-23.7
		c0,0,14.7,1.9,27.5,0.7l1.6-9.2L120.7,162.5z"/>
	<path class="st0" d="M134.3,150.1c0,0-0.7,8.5-1.8,12.4l25.9,1.7c0,0-2.2-6.7-1-14.1H134.3z"/>
	<path class="st1" d="M132.2,126.4c0,0-1.9,5.2,1.4,9.1l0.8,14.6h23.1l4.9-23.1l3.1-12.2c0-1.2-6.8-0.6-8-0.6l-23,0.5L132.2,126.4z"
		/>
	<g>
		<path class="st2" d="M151.1,95.7c0,0,8.8-14.9,22.6-16.4c11.9-1.2,12.9,14.9,1.8,18.2c-3,0.9-6.3,0.4-9.1-1.1
			c-3.7-2-10.7-4.5-13.8,2.4L151.1,95.7z"/>
		<path class="st3" d="M158.2,96.1c0.5,0,0.9-0.2,1.1-0.6c1.3-3.8-1.8-6.2-3.6-6.9c-0.5-0.2-1.1,0-1.4,0.4c-0.2,0.4,0,0.9,0.5,1.1
			l0,0c0.1,0.1,3.5,1.5,2.4,4.9c-0.1,0.4,0.2,0.9,0.7,1C158,96.1,158.1,96.1,158.2,96.1z"/>
		<g>
			<path class="st2" d="M133.7,96.7c1.8,5.6,7.5,10.9,12,9.5c4.5-1.4,6.7-7.1,5-12.6c-1.8-5.6-6.8-8.9-11.3-7.5
				C134.8,87.5,131.9,91.1,133.7,96.7z"/>
			<path class="st0" d="M145.7,117.6L145.7,117.6c2.5,0,5.3,0.4,5.3-2.1l-0.1-16.5l-9,0l0.1,17.3C142,118.4,143.7,117.6,145.7,117.6
				z"/>
			<path class="st0" d="M135.4,96.9c0,5.4,4.4,9.7,9.8,9.7c5.4,0,9.7-4.4,9.7-9.8c0-5.4-4.4-9.7-9.8-9.7
				C139.7,87.2,135.3,91.6,135.4,96.9z"/>
			<path class="st0" d="M141.8,108.5L141.8,108.5c2.6,0,4.6-1.9,4.6-4.2l0-6l-11-1.4l0,5.9C135.4,106,138.3,108.5,141.8,108.5z"/>
			<path class="st0" d="M135.7,98.1l-2.1,3.1c-0.3,0.5,0.1,1.1,0.7,1.1l2.5,0.5L135.7,98.1z"/>
			<g>
				<defs>
					<path id="SVGID_1_" d="M135.4,96.9c0,5.4,4.4,9.7,9.8,9.7c5.4,0,9.7-4.4,9.7-9.8c0-5.4-4.4-9.7-9.8-9.7
						C139.7,87.2,135.3,91.6,135.4,96.9z"/>
				</defs>
				<clipPath id="SVGID_2_">
					<use xlink:href="#SVGID_1_"  style="overflow:visible;"/>
				</clipPath>
			</g>
			<path class="st0" d="M143.6,101.1c0,1.5,1.2,2.7,2.7,2.7c1.5,0,2.7-1.2,2.7-2.7c0-1.5-1.2-2.7-2.7-2.7
				C144.8,98.4,143.6,99.6,143.6,101.1z"/>
			<path class="st2" d="M138,91.9c0,5.8,5.7,14.5,11.5,14.5c5.8,0,8.8-5.8,8.7-11.6c0-5.8-4.8-10.5-10.6-10.5
				C141.8,84.3,138,86,138,91.9z"/>
		</g>
		<path class="st0" d="M141.8,108.5c0,0,2.5,0.2,4.4-1.3l-4.2,5.1L141.8,108.5z"/>
	</g>
	<path class="st0" d="M138.4,114.6c0.5-0.2,19-0.4,19-0.4s-2.7,10.4-12.1,9.8C136.1,123.4,138.4,114.6,138.4,114.6z"/>
	<g>
		<path class="st0" d="M136.1,114.8c0,0-6.1-2.2-14.3,0l-43.2,0.4l1.8,3.5l23.9,3.2c0.6,0.1,1.2,0.1,1.8,0.2l23.5,1.2l2.4,3.1
			C132,126.4,136.6,120.1,136.1,114.8z"/>
		<path class="st0" d="M78.6,115.2H61.5v0.5c0,0.7,0.6,1.3,1.3,1.4l6.2,0.4c0,0,1.4,2.9,11.4,1.2L78.6,115.2z"/>
	</g>
	<g>
		<g>
			<path class="st0" d="M159.5,114.9c0,0,2.7-3.5,14.3,0l47.9,0.4l-1.8,3.5l-28.6,3.2c-0.6,0.1-1.2,0.1-1.8,0.2l-23.5,1.3l-6.5,4.5
				C159.5,127.8,159,120.2,159.5,114.9z"/>
			<path class="st0" d="M221.7,115.3h17.1v0.5c0,0.7-0.6,1.3-1.3,1.4l-6.2,0.4c0,0-1.4,2.9-11.4,1.2L221.7,115.3z"/>
		</g>
		<path class="st0" d="M159.5,114.9c0,0-3.9,7.7-1,13.5c0.3,0.5,1,0.4,1.5,0.1c1.6-1.2,5.4-4.2,6.4-6.6
			C169.7,114.3,159.5,114.9,159.5,114.9z"/>
	</g>
	<path class="st4" d="M133.3,158.4l24.1,0.7l15.8,12.6l-14.6,10l-11.8-4.5l-16.9,2c0,0-2.7-13.2-9.2-16.6h11.8L133.3,158.4z"/>
	<path class="st0" d="M95.5,214.3l-7.2,5.3l-6.2,1.2c-0.6,0.1-1,0.6-1,1.2l0,0c0,0.7,0.5,1.2,1.2,1.2H91h8.8c1.3,0,2.3-1.1,2.2-2.4
		l-0.3-5.4L95.5,214.3z"/>
	<path class="st0" d="M222.8,215.4v7.1c0,0.4,0.3,0.6,0.6,0.6h13.5c0.5,0,0.8-0.6,0.5-1c-1.4-1.9-7-6-10.6-9.1L222.8,215.4z"/>
</g>
</svg>
