<?xml version="1.0"?>
<svg xmlns="http://www.w3.org/2000/svg" xmlns:xlink="http://www.w3.org/1999/xlink" version="1.1" id="Capa_1" x="0px" y="0px" viewBox="0 0 58 58" style="enable-background:new 0 0 58 58;" xml:space="preserve" width="512px" height="512px" class=""><g><path style="fill:#EABCA0" d="M12,0C9.694,0,7.781,1.758,7.53,4L7.5,5c0,2.2,1.8,4,4,4h1h3h2l2-4h12l-1.961,3.921  C29.521,8.958,29.548,9,29.588,9h0.211H50.5V0H12z" data-original="#EAD8BB" class="" data-old_color="#E9BB9F"/><path style="fill:#22E5C7" d="M29.5,9v26.201c0,0.505-0.665,0.69-0.925,0.256L23.5,27l-5.075,8.458  c-0.26,0.433-0.925,0.249-0.925-0.256V9h-6c-2.2,0-4-1.8-4-4v48.958C7.5,56.19,9.31,58,11.542,58H50.5V9H29.5z" data-original="#6B4842" class="" data-old_color="#22e5c7"/><path style="fill:#26CDB0" d="M12.5,9h-1c-2.2,0-4-1.8-4-4v48.958C7.5,56.19,9.31,58,11.542,58H12.5V9z" data-original="#513531" class="" data-old_color="#27CDB0"/><path style="fill:#CEAA8A" d="M50.5,2h-9c-0.553,0-1,0.447-1,1s0.447,1,1,1h9V2z" data-original="#D3BEA1" class="active-path" data-old_color="#CFAB8B"/><path style="fill:#CEAA8A" d="M50.5,5h-8c-0.553,0-1,0.447-1,1s0.447,1,1,1h8V5z" data-original="#D3BEA1" class="active-path" data-old_color="#CFAB8B"/><path style="fill:#E5D942" d="M19.5,5l-2,4v26.201c0,0.505,0.666,0.69,0.925,0.256L23.5,27l5.075,8.458  c0.26,0.433,0.925,0.249,0.925-0.256V9l2-4H19.5z" data-original="#DD352E" class="" data-old_color="#e5d942"/><polygon style="fill:#E5D942" points="19.5,5 17.5,9 29.5,9 31.5,5 " data-original="#B02721" class="" data-old_color="#e5d942"/></g> </svg>
