<?xml version="1.0" encoding="utf-8"?>
<!-- Generator: Adobe Illustrator 22.1.0, SVG Export Plug-In . SVG Version: 6.00 Build 0)  -->
<svg version="1.1" id="Layer_1" xmlns="http://www.w3.org/2000/svg" xmlns:xlink="http://www.w3.org/1999/xlink" x="0px" y="0px"
	 viewBox="0 0 300 300" style="enable-background:new 0 0 300 300;" xml:space="preserve">
<style type="text/css">
	.st0{fill:#E48868;}
	.st1{fill:#FCE0D3;}
	.st2{fill:#7FAAF7;}
	.st3{fill:#7FBBF7;}
	.st4{fill:#162026;}
	.st5{clip-path:url(#SVGID_2_);fill:#464473;}
	.st6{fill:#464473;}
	.st7{fill:none;stroke:#AFB8CA;stroke-width:0.7577;stroke-linecap:round;stroke-linejoin:round;stroke-miterlimit:10;}
</style>
<g>
	<g>
		<g>
			<path class="st0" d="M108.7,130.2c-2.8,1.7-6.6,0.8-8.3-2c-1.7-2.8-0.8-6.6,2-8.3c2.8-1.7,6.6-0.8,8.3,2
				C112.5,124.8,111.6,128.5,108.7,130.2z"/>
			<polygon class="st0" points="106.6,129.4 120.3,127 119.1,120.6 107.6,122.4 			"/>
		</g>
		<g>
			<path class="st1" d="M96.8,55.3c0,0-4.3,0.3-3.3,4.7c0.9,3.8,11.2,77.5,11.2,77.5h2.1L101.1,60C101.1,60,102,54.9,96.8,55.3z"/>
			<path class="st1" d="M103.1,137.4l4.7-0.4c0.5,0,1,0.4,1,0.9v0c0,0.5-0.4,0.9-0.8,0.9l-4.7,0.4c-0.5,0-1-0.4-1-0.9l0,0
				C102.3,137.9,102.7,137.5,103.1,137.4z"/>
		</g>
		<path class="st2" d="M111.1,130.2l-1.5-11.7l18.7-2.4l2.8-11.6l11.5,2.8l-3.8,15.6c-0.6,2.4-2.6,4.1-5,4.5L111.1,130.2z"/>
		<path class="st3" d="M143.6,99.8c0,0-9.9,0-12.7,5.1c-2.9,5.2,12.4,22,14,40.9l28.2-2.7c0,0-9.1-37.5-18.8-42.6
			C154.3,100.5,150.9,98.1,143.6,99.8z"/>
		<g>
			<path class="st0" d="M106.1,133.7c-3.2,1-6.6-0.7-7.6-3.9c-1-3.2,0.7-6.6,3.9-7.6c3.2-1,6.6,0.7,7.6,3.9
				C110.9,129.2,109.2,132.6,106.1,133.7z"/>
			<polygon class="st0" points="104.2,132.4 118,133.2 118.4,126.7 106.7,125.8 			"/>
		</g>
		<polygon class="st1" points="131.2,230.2 130.3,239.4 122.2,238.5 123.2,229.4 		"/>
		<path class="st4" d="M131.2,237.5c-0.2-0.5-0.8-0.7-1.2-0.3c-0.8,0.6-2.2,1.4-4.4,1.2c-2.2-0.2-3-1.3-3.3-2.1
			c-0.2-0.4-0.6-0.6-1.1-0.5l-13.4,6c-0.8,0.4-1.5,1-1.8,1.9l0,0c-0.3,0.8,0.3,1.6,1.1,1.6l23.1-0.7c0.9,0,1.6-0.8,1.5-1.7l-0.4-4.5
			c0-0.1,0-0.1,0-0.2L131.2,237.5z"/>
		<polygon class="st1" points="201.7,231.2 206.5,240.4 198.4,239.5 193.7,230.4 		"/>
		<path class="st4" d="M206.5,238.5c-0.2-0.5-0.8-0.7-1.2-0.3c-0.8,0.6-2.2,1.4-4.4,1.2c-2.2-0.2-3-1.3-3.3-2.1
			c-0.2-0.4-0.6-0.6-1.1-0.5l-13.4,6c-0.8,0.4-1.5,1-1.8,1.9l0,0c-0.3,0.8,0.3,1.6,1.1,1.6l24.3-1c0.9,0,1.6-0.8,1.5-1.7l-1.6-4.2
			c0-0.1,0-0.1,0-0.2L206.5,238.5z"/>
		<path class="st0" d="M144.2,105.8L144.2,105.8c-3,0.5-5.9-1.6-6.4-4.6l-1.4-8.9l11-1.8l1.4,8.9
			C149.3,102.4,147.2,105.3,144.2,105.8z"/>
		<path class="st0" d="M137.2,97.2c0,0,2.6,4.5,7.9,2.9c4.7-1.4,2.8-6,2.8-6L137.2,97.2z"/>
		<path class="st0" d="M143.1,98.5l-1,0.1c-4.9,0.3-9.2-3.4-9.5-8.3l-0.4-5.6c-0.3-4.9,3.4-9.2,8.3-9.5l1-0.1
			c4.9-0.3,9.2,3.4,9.5,8.3l0.4,5.6C151.8,93.9,148,98.2,143.1,98.5z"/>
		<g>
			<defs>
				<path id="SVGID_1_" d="M143.1,98.5l-1,0.1c-4.9,0.3-9.2-3.4-9.5-8.3l-0.4-5.6c-0.3-4.9,3.4-9.2,8.3-9.5l1-0.1
					c4.9-0.3,9.2,3.4,9.5,8.3l0.4,5.6C151.8,93.9,148,98.2,143.1,98.5z"/>
			</defs>
			<use xlink:href="#SVGID_1_"  style="overflow:visible;fill:#E48868;"/>
			<clipPath id="SVGID_2_">
				<use xlink:href="#SVGID_1_"  style="overflow:visible;"/>
			</clipPath>
			<path class="st5" d="M132.6,91l1.8-0.2c1.2-0.3,2.8-1,2.6-2.2l-0.7-2.5c0,0,1.4-2.5-0.2-4.3c-0.3-0.3-0.4-0.8-0.3-1.2
				c0.1-0.8,0.6-1.9,2.6-1.6c3.2,0.5,9.5,0.8,10.6-4.4c1.4-6.6-16.7,0.5-16.7,0.5l-3.3,7.2L132.6,91L132.6,91z"/>
		</g>
		<path class="st0" d="M135.3,88.9c0.1,1.8-1.2,3.3-3,3.4c-1.8,0.1-3.3-1.2-3.4-3c-0.1-1.8,1.2-3.3,3-3.4
			C133.7,85.8,135.2,87.2,135.3,88.9z"/>
		<path class="st3" d="M139,138.2c-0.2,0-0.4,0-0.6,0l-26.5-2.9l1.3-11.7l25,0l10.2-16.3c1.7-2.8,5.4-3.6,8.1-1.9l0,0
			c2.8,1.7,3.6,5.4,1.9,8.1l-14.4,22C142.9,137.2,141,138.2,139,138.2z"/>
		<polygon class="st6" points="145,145.8 125.1,184 120.3,231.7 133.4,231.7 140.1,188.4 165.8,154.3 		"/>
		<polygon class="st6" points="173.1,143.1 183.7,188.3 206,232.6 192.4,233.6 168.7,192.4 154.3,157.8 145,145.8 		"/>
	</g>
	<line class="st7" x1="143.1" y1="136.5" x2="158.3" y2="113.5"/>
	<line class="st7" x1="138.1" y1="123.5" x2="142" y2="117.3"/>
</g>
</svg>
