<svg id="Layer_1" data-name="Layer 1" xmlns="http://www.w3.org/2000/svg" viewBox="0 0 23 23"><defs><style>.cls-1{fill:#22e5c7;}</style></defs><title>brain</title><path class="cls-1" d="M12,1.63S14.06-.24,16.52,2A2.23,2.23,0,0,1,19,3.49s3.69,0,3.28,5.22A3.71,3.71,0,0,1,21,14.29,3.41,3.41,0,0,1,19,18.39,1.87,1.87,0,0,1,17.34,21s-2.87,4.47-5.33.37h0C9.53,25.47,6.66,21,6.66,21A1.87,1.87,0,0,1,5,18.39a3.41,3.41,0,0,1-2-4.1A3.71,3.71,0,0,1,1.74,8.71C1.33,3.49,5,3.49,5,3.49A2.23,2.23,0,0,1,7.48,2C9.94-.24,12,1.63,12,1.63Z" transform="translate(-0.5 -0.5)"/><path d="M14.35,23.5h0A3,3,0,0,1,12,22.13,3,3,0,0,1,9.68,23.5c-1.63,0-2.92-1.62-3.29-2.14a2.39,2.39,0,0,1-1.61-1,2.39,2.39,0,0,1-.27-1.78,3.71,3.71,0,0,1-2-4.14A4,4,0,0,1,1.29,8.61,5.5,5.5,0,0,1,2.58,4.14a3.83,3.83,0,0,1,2.14-1A2.68,2.68,0,0,1,7.33,1.57,3.73,3.73,0,0,1,12,1.12,3.78,3.78,0,0,1,13.23.59a3.86,3.86,0,0,1,3.44,1,2.68,2.68,0,0,1,2.61,1.55,3.83,3.83,0,0,1,2.14,1,5.5,5.5,0,0,1,1.29,4.47,4,4,0,0,1-1.19,5.86,3.71,3.71,0,0,1-2,4.14,2.43,2.43,0,0,1-.27,1.78,2.39,2.39,0,0,1-1.61,1C17.24,21.88,16,23.5,14.35,23.5ZM12,21a.46.46,0,0,1,.4.21c.6,1,1.26,1.51,1.94,1.52,1.15,0,2.29-1.37,2.63-1.9a.46.46,0,0,1,.31-.19A1.69,1.69,0,0,0,18.46,20a1.8,1.8,0,0,0,.1-1.47.39.39,0,0,1,.25-.49,3,3,0,0,0,1.8-3.64.37.37,0,0,1,.18-.43,3.33,3.33,0,0,0,1.11-5,.41.41,0,0,1-.08-.25c.15-1.82-.2-3.16-1-4A2.82,2.82,0,0,0,19,3.89a.45.45,0,0,1-.41-.25,1.76,1.76,0,0,0-1.95-1.25.47.47,0,0,1-.41-.11C14.14.4,12.5,1.75,12.32,1.91A.6.6,0,0,1,12,2h0a.54.54,0,0,1-.31-.12C11.5,1.75,9.86.4,7.79,2.28a.49.49,0,0,1-.42.11A1.75,1.75,0,0,0,5.43,3.64.45.45,0,0,1,5,3.89a2.82,2.82,0,0,0-1.81.81c-.83.82-1.18,2.16-1,4a.39.39,0,0,1-.08.25,3.33,3.33,0,0,0,1.11,5,.39.39,0,0,1,.18.43A3,3,0,0,0,5.19,18a.38.38,0,0,1,.24.49A1.87,1.87,0,0,0,5.54,20a1.67,1.67,0,0,0,1.19.62A.46.46,0,0,1,7,20.8c.34.53,1.48,1.9,2.61,1.9h0c.68,0,1.34-.52,1.94-1.52A.43.43,0,0,1,12,21Z" transform="translate(-0.5 -0.5)"/><path class="cls-1" d="M7.48,6.1S7.48,4.24,5,3.49" transform="translate(-0.5 -0.5)"/><path d="M7.48,6.5A.42.42,0,0,1,7,6.1C7,6,7,4.51,4.88,3.87a.4.4,0,0,1-.28-.51.46.46,0,0,1,.56-.25c2.73.83,2.76,2.9,2.76,3A.42.42,0,0,1,7.48,6.5Z" transform="translate(-0.5 -0.5)"/><path class="cls-1" d="M7.07,13.18A2.56,2.56,0,0,1,3,14.29" transform="translate(-0.5 -0.5)"/><path d="M4.76,15.35a3.66,3.66,0,0,1-2.06-.74.37.37,0,0,1-.08-.56A.46.46,0,0,1,3.23,14a2.39,2.39,0,0,0,1.93.52A2.76,2.76,0,0,0,6.66,13a.45.45,0,0,1,.56-.24.39.39,0,0,1,.26.51,3.49,3.49,0,0,1-2.08,2A2.74,2.74,0,0,1,4.76,15.35Z" transform="translate(-0.5 -0.5)"/><path class="cls-1" d="M7.89,19.88a3.13,3.13,0,0,1,1.23-3" transform="translate(-0.5 -0.5)"/><path d="M7.89,20.28a.44.44,0,0,1-.43-.3,3.48,3.48,0,0,1,1.35-3.36.46.46,0,0,1,.62,0,.37.37,0,0,1,0,.56,2.75,2.75,0,0,0-1.11,2.61.4.4,0,0,1-.32.48Z" transform="translate(-0.5 -0.5)"/><path class="cls-1" d="M3.38,9.08S5,10.94,7.07,10.2s2.46-1.87,3.28-1.49" transform="translate(-0.5 -0.5)"/><path d="M6.07,10.77A4.44,4.44,0,0,1,3,9.33a.37.37,0,0,1,.06-.56.47.47,0,0,1,.62.06,3.18,3.18,0,0,0,3.19,1,7.53,7.53,0,0,0,1.89-1c.54-.39,1.06-.75,1.75-.44a.38.38,0,0,1,.19.53.46.46,0,0,1-.59.18C10,9,9.87,9,9.34,9.42a8.28,8.28,0,0,1-2.11,1.15A3.5,3.5,0,0,1,6.07,10.77Z" transform="translate(-0.5 -0.5)"/><path class="cls-1" d="M16.5,6.1s0-1.86,2.46-2.61" transform="translate(-0.5 -0.5)"/><path d="M16.5,6.5h0a.43.43,0,0,1-.44-.4c0-.09,0-2.16,2.77-3a.45.45,0,0,1,.55.25.4.4,0,0,1-.28.51C17,4.51,16.94,6,16.94,6.1A.42.42,0,0,1,16.5,6.5Z" transform="translate(-0.5 -0.5)"/><path class="cls-1" d="M16.91,13.18A2.57,2.57,0,0,0,21,14.29" transform="translate(-0.5 -0.5)"/><path d="M19.23,15.35a2.82,2.82,0,0,1-.65-.08,3.52,3.52,0,0,1-2.08-2,.39.39,0,0,1,.26-.51.45.45,0,0,1,.56.24,2.72,2.72,0,0,0,1.51,1.46A2.37,2.37,0,0,0,20.75,14a.46.46,0,0,1,.61.07.37.37,0,0,1-.08.56A3.66,3.66,0,0,1,19.23,15.35Z" transform="translate(-0.5 -0.5)"/><path class="cls-1" d="M14.86,17.65a3.13,3.13,0,0,0-1.23-3" transform="translate(-0.5 -0.5)"/><path d="M14.86,18.05l-.1,0a.39.39,0,0,1-.32-.48A2.78,2.78,0,0,0,13.32,15a.38.38,0,0,1,0-.57.48.48,0,0,1,.62,0,3.49,3.49,0,0,1,1.35,3.36A.44.44,0,0,1,14.86,18.05Z" transform="translate(-0.5 -0.5)"/><path class="cls-1" d="M20.34,10.78s-2.47.82-3.79-.78-1-2.75-2-2.82" transform="translate(-0.5 -0.5)"/><path d="M18.91,11.39a3.39,3.39,0,0,1-2.71-1.15,7.05,7.05,0,0,1-1.15-2c-.24-.57-.31-.67-.49-.69a.41.41,0,0,1-.4-.43.43.43,0,0,1,.47-.36c.77.06,1,.61,1.24,1.2a6.36,6.36,0,0,0,1,1.78c1.12,1.35,3.27.66,3.29.65a.44.44,0,0,1,.56.24.38.38,0,0,1-.26.51A5.46,5.46,0,0,1,18.91,11.39Z" transform="translate(-0.5 -0.5)"/><path d="M12,21.77a.42.42,0,0,1-.44-.4V1.63a.44.44,0,0,1,.88,0V21.37A.42.42,0,0,1,12,21.77Z" transform="translate(-0.5 -0.5)"/><path class="cls-1" d="M14.76,4.67A7.31,7.31,0,0,1,13.32,9" transform="translate(-0.5 -0.5)"/><path d="M13.32,9.41a.46.46,0,0,1-.27-.09A.37.37,0,0,1,13,8.76a7,7,0,0,0,1.34-4.09.42.42,0,0,1,.44-.4h0a.42.42,0,0,1,.44.39,7.6,7.6,0,0,1-1.53,4.6A.47.47,0,0,1,13.32,9.41Z" transform="translate(-0.5 -0.5)"/><path class="cls-1" d="M7.48,10.2s-1.64,3,.82,4.47" transform="translate(-0.5 -0.5)"/><path d="M8.3,15.07A.51.51,0,0,1,8.06,15c-2.21-1.33-1.6-3.84-1-5a.46.46,0,0,1,.59-.18.38.38,0,0,1,.19.53c-.06.12-1.43,2.69.67,4a.38.38,0,0,1,.13.56A.49.49,0,0,1,8.3,15.07Z" transform="translate(-0.5 -0.5)"/><path class="cls-1" d="M9.94,13.55a1.26,1.26,0,0,0,.41-1.86" transform="translate(-0.5 -0.5)"/><path d="M9.94,14a.43.43,0,0,1-.36-.18.37.37,0,0,1,.11-.55.86.86,0,0,0,.3-1.31.38.38,0,0,1,.12-.56.48.48,0,0,1,.61.11,1.61,1.61,0,0,1-.54,2.42A.42.42,0,0,1,9.94,14Z" transform="translate(-0.5 -0.5)"/><path class="cls-1" d="M13.63,19.51s.82-2.24,2.46-2.24" transform="translate(-0.5 -0.5)"/><path d="M13.63,19.91l-.14,0a.39.39,0,0,1-.27-.51c0-.1.94-2.5,2.87-2.5a.41.41,0,0,1,.44.39.42.42,0,0,1-.44.4c-1.08,0-1.84,1.42-2,2A.44.44,0,0,1,13.63,19.91Z" transform="translate(-0.5 -0.5)"/><path class="cls-1" d="M7.48,2S8.71,3.49,9.12,3.86" transform="translate(-0.5 -0.5)"/><path d="M9.12,4.26a.47.47,0,0,1-.31-.12c-.43-.38-1.63-1.84-1.68-1.9a.37.37,0,0,1,.09-.56.46.46,0,0,1,.61.08c.34.41,1.28,1.53,1.6,1.82a.37.37,0,0,1,0,.56A.47.47,0,0,1,9.12,4.26Z" transform="translate(-0.5 -0.5)"/><path d="M15.27,3.52A.5.5,0,0,1,15,3.44a.38.38,0,0,1-.09-.56L16,1.59a.49.49,0,0,1,.62-.08.38.38,0,0,1,.09.56L15.62,3.36A.45.45,0,0,1,15.27,3.52Z" transform="translate(-0.5 -0.5)"/></svg>