<?xml version="1.0" encoding="utf-8"?>
<!-- Generator: Adobe Illustrator 22.1.0, SVG Export Plug-In . SVG Version: 6.00 Build 0)  -->
<svg version="1.1" id="Layer_1" xmlns="http://www.w3.org/2000/svg" xmlns:xlink="http://www.w3.org/1999/xlink" x="0px" y="0px"
	 viewBox="0 0 412.5 409.5" style="enable-background:new 0 0 412.5 409.5;" xml:space="preserve">
<style type="text/css">
	.st0{fill:#483DF6;}
	.st1{fill:#37CFB1;}
	.st2{fill:none;stroke:#535B77;stroke-width:2;stroke-miterlimit:10;}
	.st3{display:none;opacity:0.89;fill:#483DF6;enable-background:new    ;}
	.st4{fill:#E48868;}
	.st5{fill:#26354F;}
	.st6{fill:#464466;}
	.st7{fill:#464473;}
	.st8{fill:#7FBBF7;}
	.st9{fill:#4A537A;}
	.st10{fill:#E1E1E1;}
	.st11{fill:#ECE0D3;}
	.st12{fill:#FF2F52;}
	.st13{fill:#BB3333;}
	.st14{fill:#393762;}
	.st15{fill:none;stroke:#535B77;stroke-width:1.7609;stroke-linecap:round;stroke-linejoin:round;stroke-miterlimit:10;}
	.st16{fill:none;stroke:#535B77;stroke-width:1.2327;stroke-linecap:round;stroke-linejoin:round;stroke-miterlimit:10;}
	.st17{fill:none;stroke:#535B77;stroke-width:0.8805;stroke-miterlimit:10;}
	.st18{fill:none;stroke:#535B77;stroke-width:0.4402;stroke-miterlimit:10;}
</style>
<path class="st0" d="M44.7,311.1c-3,5.2-4.5,10.8-2.6,16.6c2.7,8.3,8.3,13.5,13.3,17.7c7.8,6.5,18.2,16.5,29.6,31.7
	c24.9,15.2,39.3,14.8,48,11c6.8-2.9,18.5-11.4,37-12.5c4-0.2,8.1-0.7,38.9,9.8c13.4,4.6,26.9,9.1,40.6,12.4
	c11.7,2.8,25.2,5.8,37.2,3c10.7-2.4,14.3-10.2,13.7-20.7c-0.7-11.7-3.8-23.4-2.8-35.1c0.9-11,5.4-22,13.6-29.7
	c14.6-13.7,36.8-13.2,55.4-14.8c8.2-0.7,17.1-1.2,24.7-4.8c8.3-3.9,12.4-11.4,14.9-19.8c6.1-20.4,3.8-44.6-13.4-58.8
	c-15.3-12.6-36.2-12.9-55.1-12.6c-19.8,0.4-40.5,1.9-59.6-4.7c-20-6.9-34-25.4-55.5-28.4c-12.8-1.8-25.5,0.6-37.5,5.2
	c-11.1,4.3-20.9,11.4-32.7,13.8c-21.7,4.4-43-3.2-64.7-2.7c-11,0.3-22.5,3.3-30.8,10.8c-8,7.2-9.8,17.4-7.9,27.6
	s10.1,17.3,14.1,26.6c3.2,7.4,4.6,15,2.8,23C62.8,289.5,51.5,299.1,44.7,311.1z"/>
<g>
	<path class="st1" d="M147.2,166.6c-3.9-2.2-6-6.5-7.7-10.5c-3.8-9-7.2-18.9-4.9-28.4c2.2-9.5,12.2-17.8,21.5-14.7
		c9.2,3,12.3,14.4,12.3,24.1c0,8.4-1.3,16.9-3.9,24.9c4.2-3.3,4.9-10.1,9.7-12.4c4.3-2,9.6,1.2,11.3,5.6c1.7,4.4,0.7,9.3-1,13.7
		c-3.5,9.1-9.9,17.1-18,22.5c3.4-4.2,10.3-5,14.5-1.5c4.2,3.4,4.8,10.4,1.3,14.5c-1.6,1.8-3.7,3-5.8,4.2c-9.4,4.9-20,8.3-30.5,6.9
		c-10.5-1.5-20.6-8.9-22.7-19.3c-0.3-1.5-0.4-3.1,0.2-4.5c1.2-3,5.2-3.9,8.2-2.9s5.3,3.5,7.5,5.9c-3.8-8.2-7.6-16.4-11.5-24.6
		c-2-4.4-4.1-9.1-3.7-13.9c0.5-4.8,4.6-9.6,9.4-9c3.2,0.4,5.9,3.5,5.9,6.7"/>
	<line class="st2" x1="151.5" y1="165.4" x2="151.5" y2="230.1"/>
</g>
<g>
	<path class="st3" d="M304.2,261.1c-30.7-5.4-57.1-10.4-88-8.3c-2.9,0.2-6.1,0.6-8,3.2c-4.7,6.5,3.5,17.6-0.1,25.1
		c-1.7,3.4-5.2,4.6-8.4,5.4c-62,15.3-130.7-1.3-185.8,36.2c2.6,7.4,9.9,10.2,16.4,11.8c46.7,11.3,95.1,3.7,142.5,9.4
		c19.1,2.3,38,6.7,57.2,7.6c34.7,1.6,69.1-8.6,103.8-10.3c31-1.5,62.8,3.6,92.7-7c4.2-1.5,9.3-5.9,7.3-10.6c-0.7-1.6-2-2.5-3.3-3.3
		c-29-19-64.2-11.2-97.1-14c-4-0.3-9-2.1-9.4-6.9c-0.4-6.6,8.2-8.1,10.8-14c3-6.8-3.6-13.9-9.4-17c-10.8-5.7-22.6-8.9-34.4-9.4"/>
	<g>
		<path class="st1" d="M246.7,316.7c-3.9-8.2-17.6-15.7-30.8-13c-7.8,1.6-13,6.3-14.8,11.2c-1.9,4.9-1.1,10-0.2,15
			c1.1,6.6,2.2,13.1,3.3,19.7c-2.2-3.3-4.4-6.6-8.4-9.2s-10.1-4.2-15.5-3.1c-6.2,1.2-9.6,5.6-9.2,9.6c0.4,4,3.9,7.6,7.8,10.8
			c7.1,5.7,15.9,10.6,25.9,14.4c-10.1-5-27.4-2.7-33.2,4.5c-0.9,1.1-1.5,2.4-0.8,3.6c1,1.7,4.2,2.3,7.1,2.7
			c23.9,3.4,48.9,3.8,73.1,1.3c4.5-0.5,9.1-1.1,12.7-2.7c3.7-1.6,6.2-4.5,4.9-7.2c-2-4.2-10.7-5.1-16.9-7.2
			c8.4-4.2,16.5-8.9,20.5-15.1c3.9-6.2,2.6-14.1-5.8-18.2c-5.8-2.9-20.1-3.5-22.3,1.6C249.4,330.1,249.5,322.5,246.7,316.7z"/>
		<line class="st2" x1="225.2" y1="332.4" x2="225.2" y2="409.1"/>
	</g>
	<g>
		<path class="st1" d="M16.2,314.9c-5.8-4.8-10.2-10.8-11.3-17.3S6.6,284,13,279.8s16.7-4.8,23.1-0.5c-2.1-7.7-4.1-15.7-1.6-23.3
			c2.6-7.6,11.3-14.5,21.2-13.8c8.6,0.6,15.3,6.8,17.5,13.4s0.9,13.6-0.4,20.3c1.6-6.1,10.1-10.2,18-9.4c7.9,0.7,14.5,5.5,17.6,11.2
			s3.1,12.3,1.6,18.4s-4.5,12-9.1,17.1c-4.5,5-10.5,9.2-17.2,12.3C61.9,335.6,32.9,328.8,16.2,314.9z"/>
		<path class="st1" d="M12.9,367.1c-6.5-5-12.2-11.7-10.7-18.8c1.9-9.2,15.9-14.4,27.5-12.5s20.6,9,27.5,16.6
			c9-6.8,18.8-12.9,29.2-18.4c3.5-1.8,7.3-3.7,11.5-3.9c10-0.5,17.2,8.7,15.7,16.5s-8.8,14-16.2,19.3
			C70.8,385.1,40,387.6,12.9,367.1z"/>
		<line class="st2" x1="57.1" y1="300.5" x2="57.1" y2="409.5"/>
	</g>
	<g>
		<g>
			<path class="st4" d="M101.8,196c0,0,20.3,30.4,19.9,30c-0.4-0.3-36.8,18.3-36.8,18.7c0,0.5,2.4,9.8,2.4,9.3s0.9-5.6,0.9-5.6
				l46.4-12.5c0,0,3.2-1.2,3.8-2.5c1-2,0-5.1-0.3-6.8c-2.5-14.6-19.1-47.2-19.1-47.2L101.8,196z"/>
			<path class="st4" d="M89.3,181.9c0,1.4,4.6,40.9,4.6,40.9l-47.4-1.4v9.3l2.3-4.2L95,237.6c2.5,0.6,8.8,2.4,11,0.4
				c1.7-1.6,1.6-7.9,1.6-9.7l0.9-40.4L89.3,181.9z"/>
			<g>
				<path class="st4" d="M41.6,123.5c0.2-1.2,0.4-2.4,0.1-3.6c0-0.1-0.1-0.2-0.2-0.2s-0.1,0.1-0.1,0.2c-0.3,0.8-0.4,1.6-0.5,2.4
					c0,0.1,0,0.3-0.1,0.4c-0.1,0.1-0.2,0.2-0.3,0.1l-0.1-0.1c-1.1-1.9-1.4-4.5-2.6-6.3c-0.2-0.4-0.5-0.7-0.9-0.9c-0.1,0-0.2,0-0.2,0
					s0,0.1,0,0.2c0,1.2,0.5,2.2,0.9,3.3c0.4,0.8,0.7,1.7,1,2.5c0.1,0.3,0.2,0.6,0.2,1c0,0.1,0,0.1-0.1,0.2c-0.1,0.1-0.2,0-0.3-0.1
					c-1.1-1.3-1.6-3.1-2.3-4.7c-0.3-0.6-0.7-1.2-1.3-1.2c0.2,1.8,0.8,3.5,1.8,5c0.4,0.6,0.9,1.3,0.8,2c0,0.1,0,0.2-0.1,0.2
					c-0.1,0.2-0.3-0.1-0.5-0.2c-0.5-1-1-1.9-1.5-2.9c-0.2-0.4-0.5-0.8-0.7-1.2c-0.1-0.1-0.2-0.2-0.3-0.3c-0.1-0.1-0.3,0-0.3,0.1
					c-0.1,0.1,0,0.2,0,0.4c0.3,1.4,0.8,2.7,1.5,3.8c0.3,0.5,0.7,1,0.8,1.6v0.1c0,0.1-0.2,0-0.2-0.1c-0.5-0.8-1.1-1.5-1.8-2.1
					c-0.1-0.1-0.2-0.1-0.2-0.1c-0.1,0-0.1,0.1-0.1,0.2c0,1,0.3,2,0.9,2.7c0.4,0.6,1,1,1.3,1.7c0.1,0.4,0.3,0.5,0.5,1.1
					c0.1,0.2,4.5-0.7,4.6-1c0.1-0.5,0.3-1.2,0.3-1.6C41.4,125.2,41.5,124.4,41.6,123.5z"/>
				<path class="st4" d="M36.4,128.3c-0.1,6.7-0.9,13.1-0.5,19.8c0.2,3.3,1,6.8,2.9,9.2c2.5,3,6.3,3.6,9.9,3.4
					c6.3-0.4,12.5-2.9,18.3-5.7c0.9-0.4,1.9-0.9,2.5-1.8c1.2-1.5,1.2-3.9,0.9-5.9c-0.2-1.4-0.5-2.7-1.1-3.9s-1.6-2.1-2.7-2.3
					s-2.3,0.4-3.2,1.3c-0.9,0.9-1.6,2-2.4,3c-3.9,5.2-9.6,8.4-15.4,8.7c-1.2,0.1-2-0.3-3-1c-1.7-1.1-2.1-3.5-2.5-5.8
					c-0.6-3.9-1.2-7.8-0.5-11.7c0.5-2.9,1.4-4.9,1.3-7.9"/>
			</g>
			<g>
				<path class="st4" d="M95.6,52.7c0-2.5,0-4.9,0.1-7.4c1.3-0.1,0.7,4.5,1.2,6.7c0.2-1.5,0.3-2.4,0.4-3.5c0.1-1.3,0-2.3,0.9-2.8
					c0.5,0,0,5-0.1,8.1c0,0.6-0.1,1.2,0,1.7c0.1,0.6,0.5,1.1,0.9,1.2c0.6,0.1,1.1-0.5,1.3-1.2s0.1-1.4,0.2-2.1
					c0-0.4,0.2-0.8,0.5-0.8c0.2,0.1,0.3,0.4,0.3,0.6c0.4,4.6-1,9.3-3.7,12.6c-0.2,0.2-0.3,0.4-0.6,0.5c-0.4,0.1-0.8-0.2-1.1-0.6
					c-1.7-1.8-0.7-3.3-0.4-5.8C95.6,57.4,95.6,55,95.6,52.7z"/>
				<path class="st4" d="M97.7,64.2c-0.3,19.5-0.5,39.9-10,56.7c-0.7,1.3-0.4,3.6-1.7,3.9c-1,0.2-3-1-3.8-1.8
					c-1.2-1.2-1.3-3.1-2.1-4.7c8.4-16.9,12.8-35.3,14.8-54.8"/>
			</g>
			<path class="st4" d="M74.2,110.4c0.4,0.4,0.9,0.9,0.6,1.5c-0.1,0.3-0.4,0.4-0.5,0.7s0,0.7,0.2,1c0.5,1.1,1.2,2,1.6,3.2
				c0.4,1.1,0.5,2.5,0,3.6c-0.7,1.3-2,1.7-3.2,1.9c-1.7,0.4-3.5,0.8-5.2,0.5c-1.2-0.2-2.5-0.8-3.2-2c-0.8-1.4-0.7-3.3-0.4-4.9
				c0.5-3.2,1.4-6.6,3.3-9c1.2-1.4,1.4-1.2,2.6-0.1C71.3,108,72.8,109.2,74.2,110.4z"/>
			<path class="st4" d="M67.4,127.4c-0.1,1.9-0.4,3.7-0.7,5.6c0,0.2-0.1,0.4,0,0.6c0.1,0.4,0.5,0.4,0.8,0.4c0.9-0.1,1.8-0.5,2.7-0.8
				c0.7-0.3,1.5-0.6,2.1-1.2c0.7-0.7,1.1-1.7,1.6-2.7c0.4-0.8,0.7-1.8,0.5-2.7c-0.1-0.5-0.4-0.8-0.7-1.2c-0.7-1-1.1-2.2-1.2-3.5
				c-1-0.1-2.1-0.2-3.1-0.3C65.8,121.1,67.6,124.5,67.4,127.4z"/>
			<path class="st5" d="M70.8,103.4c0.5-0.9,0.5-2.3-0.2-3c-0.4-0.4-0.9-0.4-1.4-0.4c-2.3,0-4.6,1.4-5.9,3.8c-0.3,0.5-0.5,1-0.8,1.4
				c-1.2,1.4-3.3,0.9-4.6,2.1c-1.4,1.1-1.5,3.9-0.3,5.3c-1,0.1-1.7,1.3-1.7,2.5s0.5,2.3,1.2,3.1s1.5,1.5,2.2,2.3
				c0.7,0.7,1.2,1.6,1.9,2.2c0.7,0.6,1.6,1.1,2.5,0.9c0.9-0.2,1.6-1.3,1.5-2.3c-0.1-0.5-0.3-0.9-0.6-1.4c-0.8-1.7-0.7-3.9-0.2-5.8
				c0.5-2.3,1.4-4.4,2.7-6.2C68.1,106.1,69.9,105,70.8,103.4z"/>
			<path class="st4" d="M64.1,115.3c-0.3-0.7-0.6-1.4-1.1-1.8c-0.5-0.4-1.3-0.4-1.7,0.2c-0.2,0.4-0.2,0.9-0.2,1.4
				c0,0.8,0.1,1.5,0.4,2.2s0.8,1.3,1.4,1.4c0.6,0.2,1.3-0.2,1.6-0.9"/>
			<path class="st6" d="M114.1,170.7c6,9.9,11.3,20.3,15.9,31.2c-2.7,2.5-5.7,4.2-8.8,5.8c-3.9,2.1-7.8,4.3-11.7,6.4
				c-3.6-6.7-4.5-14.9-5.2-22.8c-0.2-2.2-0.4-4.4,0.2-6.4c0.4-1.6,1.3-3,2.2-4.2c1.6-2.2,3.5-4.2,5.6-5.8c1-0.8,2-1.5,3.2-1.5"/>
			<path class="st7" d="M89.6,217.5c6.3,1.1,12.7,1.3,19,0.6c0.3,0,0.7-0.1,0.9-0.4c0.1-0.2,0.1-0.5,0.2-0.7
				c0.8-13.2-0.1-26.5-2.4-39.5c-0.1-0.4-0.3-1-0.6-1c-0.2,0-0.3,0.1-0.4,0.2c-5,4.2-10,8.4-14.9,12.7c-3.9,3.4-2.2,10.6-2,15.7
				C89.1,206.3,89.5,217.5,89.6,217.5z"/>
			<path class="st8" d="M65.8,134.1c-2.2,4.4-4.4,8.9-6.6,13.3c1.4,4.7,2.9,9.5,4.3,14.2c2.6-3.6,7.5-3.7,11-1.5
				c3.5,2.3,5.9,6.5,7.7,10.7c3.2,7.1,5,15.1,6.1,23.1c9.4-3.5,20.9-10.1,29-19.5c0.2-0.3-2.6-5.3-3.5-7.4c-1.1-2.5-2.4-4.9-3.8-7.3
				c-3.2-5.6-6.3-11.2-9.5-16.9c-4-7.1-8-14.2-13.1-20.1c-2.9,0.5-6-1.8-7.1-5.1c0.1,0.2-3.7,5.1-4.1,5.7c-0.7,1.3-1.3,2.7-2,4
				c-0.8,1.4-1.9,2.3-3.1,3.2C69.4,131.8,66.9,132,65.8,134.1z"/>
			<path class="st9" d="M46.4,221.4c0,0.2,0,9.3,0,9.3l2.3-4.2l0.2-0.1l0.5-5L46.4,221.4z"/>
			<polyline class="st10" points="48.7,226.5 56.7,228.4 57.7,221.7 49.4,221.5 48.7,226.5 			"/>
			<polygon class="st10" points="86.4,243.9 93.1,240.4 94.8,246.7 88.2,248.5 			"/>
			<path class="st9" d="M86.4,243.9l-1.6,0.9c0,0,2.4,9.6,2.4,9.3c0-0.3,0.9-5.6,0.9-5.6L86.4,243.9z"/>
		</g>
		<path class="st0" d="M116.6,18.6c0,7.7-5.1,13.9-11.5,13.9c-6.3,0-11.5-6.2-11.5-13.9s5.1-13.9,11.5-13.9
			C111.4,4.7,116.6,10.9,116.6,18.6z"/>
	</g>
	<g>
		<path class="st11" d="M333.1,218.9c-0.3,26.2,12.7,96.4,12.7,96.4l2.9-0.4v-54.4l15.7,54l3.6-0.8c0,0-7.5-50-7.8-52
			s2.3-47.6,2.6-50.4C363.1,208.6,333.2,209.7,333.1,218.9z"/>
		<path class="st12" d="M334.9,331.5c-0.3,0.2-0.7,0.6-0.5,1c0.1,0.3,0.3,0.4,0.5,0.4c1.6,0.5,3.3,1,4.9,0.5
			c1.8-0.6,3.1-2.3,4.4-3.9c0.6-0.8,1.2-1.5,1.7-2.3c1.5-1.9,3-3.9,3.7-6.4c0.5-1.6,0.7-6.1-1.1-6.9c-2.1-1-2.7,2.3-3.4,3.9
			C343,323.5,339.4,328.4,334.9,331.5z"/>
		<path class="st12" d="M361.4,325.7c-0.7,1.5-1.7,3-3,3.5c-0.3,0.1-0.6,0.2-0.9,0.4c-0.5,0.5-0.4,1.6,0.1,2.1s1.2,0.7,1.8,0.8
			c1.4,0.3,2.8,0.5,4-0.2c0.7-0.4,1.3-1.1,1.8-1.9c2.3-3.6,3.4-8.3,3.4-12.8c0-1.1,0-2.2-0.5-3.2c-1.7-3.9-3.4-0.4-3.8,1.7
			C363.6,319.5,362.9,322.7,361.4,325.7z"/>
		<path class="st13" d="M340.3,330.8c-0.5,0.8-1,1.6-1.5,2.4c1.4,0,2.7-0.9,3.9-1.9c1.6-1.4,9.4-9.9,6.8-13.2c-1.1-1.4-3,3-3.8,4.3
			C343.9,325.2,342.1,328,340.3,330.8z"/>
		<path class="st13" d="M361.9,329.7c-0.9,0.8-2.1,1.2-2.8,2.4c2,0.2,4.3,0.3,5.7-1.4c0.5-0.6,0.9-1.4,1.2-2.2
			c0.6-1.4,3.7-12.1,0.4-9.6C364.1,320.7,364.7,327.3,361.9,329.7z"/>
		<path class="st12" d="M329.6,147.1c-0.4,5.2-1.9,10.2-4.2,14.5c-0.3,0.5-0.6,1.1-0.6,1.7c0,0.7,0.3,1.3,0.6,1.9
			c2.4,5,2.6,11.2,2.9,17c0.7,17.6,2.2,35.2,4.6,52.7c2.3-4.8,7-6.7,11.4-8.3c6.3-2.3,12.6-4.6,18.9-6.9c-0.5-10.5-1-21.1-3.5-31.1
			c-1.1-4.4-2.5-8.7-3.2-13.2c-0.6-3.6-0.6-7.3-0.7-10.9c-0.1-3.6-0.2-7.2-0.2-10.8c-0.1-5-3-12.4-5.6-15c0.6,1-6.1,3.2-6.8,3.2
			c-0.1,3.9,0.2,6.7-3.3,7.6C336.4,150.3,332.5,149.2,329.6,147.1z"/>
		<path class="st4" d="M303.4,129.7c4,12.1,12.3,21.2,20.3,29.9c0.9,1,2.1,2,3.2,1.3c0.4-0.3,0.7-0.7,0.9-1.2
			c1.4-2.6,2.2-5.5,2.5-8.6c0.1-1,0.1-2.2-0.5-3c-0.5-0.7-1.2-0.9-1.8-1.2c-8-3.3-15.1-10-19.7-18.6c-5.1-9.6-5.5-19-6-29.9
			C296.8,99.4,302,125.6,303.4,129.7z"/>
		<path class="st4" d="M337,129.2c0.1,0.3,0.2,0.5,0.4,0.7c0.2,0.1,0.5,0.1,0.7,0.1c1.4-0.2,3-0.7,3.6-2.2c0.7-1.8-0.4-3.8-1.4-5.4
			c-6.4-10.1-9.8-25.3-18.5-33c-3,1.7,0.7,6.1,1.7,8.1c1.7,3.4,3.4,6.9,4.9,10.4C331.5,114.8,334.4,122,337,129.2z"/>
		<path class="st4" d="M320.4,83.5c0-0.8-0.1-1.6-0.5-2.1c-0.2-0.3-0.4-0.5-0.6-0.2c-0.1,0.1-0.1,0.2-0.1,0.4
			c-0.2,0.8,0.2,0.9,0.2,2.6c-0.9-1.4-3.4-4.4-3.6-3.8c-0.1,0.9,1,2.8,1.5,3.5c-0.3-0.6-2.1-2.5-2.4-2c-0.2,0.3,1.4,2.3,1.6,2.8
			c-0.1-0.4-1.7-1.8-1.9-1.2c-0.2,0.5,1.3,1.8,1.5,2c-0.2-0.1-1.6-0.7-1.8-0.4c-0.2,0.4,0.1,0.6,0.3,0.9c0.7,1,1.7,1.6,2.5,2.4
			c1.5,1.5,3.3,3.6,4.2,5c0.1,0.2,0.4,0.3,0.6,0.2s0.3-0.4,0.4-0.8c0.2-1.5,1.2-1.5,0.5-2.7C321.3,88,320.5,85.1,320.4,83.5z"/>
		<path class="st4" d="M302.9,94.5c0-0.2,0.1-0.5,0-0.7s-0.3-0.4-0.5-0.3c-0.1,0.1-0.1,0.2-0.2,0.3c-0.2,0.5-0.5,1-0.7,1.6
			c-0.1-1-0.3-1.9-0.4-2.9c-0.1-0.7-0.2-2.1-0.8-1.7c-0.2,0.5,0.1,3.3,0.1,3.9c0-0.5-0.6-4-1-3.3c-0.3,0.2,0.4,3.3,0.3,4
			c0.1-0.2-0.9-3.1-1.2-2.7c-0.2,0.3,0.3,2.9,0.4,3.1c-0.1-0.2-0.7-2.6-0.9-2.1c-0.4,3.8,1.5,6.8,1.9,10.6c0.9-1.7,2.7,0.5,2.6-1.3
			C302.2,98.9,302.7,96.2,302.9,94.5z"/>
		<path class="st14" d="M341.6,124.7c2.8-0.4,5.8,1.1,7.5,3.8s2.2,6.6,1.2,9.8s-3.5,5.7-6.3,6.3c-0.4,0.1-0.9,0.1-1.3-0.1
			c-0.5-0.4-0.7-1.2-0.8-2c-0.3-1.8-0.6-3.7-0.9-5.5c-0.2-1.1-0.4-2.3-0.4-3.4C340.6,132.9,341.4,124.7,341.6,124.7z"/>
		<path class="st4" d="M338,127.5c-0.6,0.3-1.2,0.7-1.6,1.4s-0.4,1.7,0.2,2.2c-1.5,0.4-2.8,1.9-3.3,3.7s-0.2,3.9,0.8,5.4
			c0.9,1.3,2.2,2.1,2.8,3.5c0.8,1.8,0.4,4.4-0.3,6.2c1.5,0.1,2.9-0.2,4.4,0c0.3,0,0.7,0.1,0.9-0.2c0.3-0.2,0.4-0.7,0.5-1.1
			c0.7-3.3,0.6-6.8-0.3-9.9c0.6-0.3,1.3-0.6,1.7-1.2c0.4-0.7,0.4-1.8-0.2-2.2s-1.6,0.1-2-0.6c-0.1-0.2-0.1-0.4-0.2-0.6
			C341,129.5,343.8,124.3,338,127.5z"/>
		<path class="st14" d="M362.3,136.1c1,1.4,1.8,3.1,2.1,5c0.5,3.5-0.9,7.2-3,9.6c-2,2.2-4.6,3.5-6.6,5.7c-0.9,1-1.8,2.6-1.1,3.9
			c0.4,0.8,1.4,1.2,2.1,0.7s1-1.7,0.6-2.5c1.4,1.2,1.3,3.9,0.2,5.6c-1.1,1.6-2.8,2.3-4.5,2.7c-1.6,0.4-3.4,0.5-4.9-0.5
			c-2.2-1.5-2.7-5.1-2.1-8.1c0.6-2.9,2-5.5,3-8.3s1.5-6.1,0.3-8.7c0.9-4.6,0.5-8.8,5-9.2C356.6,131.5,360.1,133.1,362.3,136.1z"/>
	</g>
	<g>
		<line class="st15" x1="173.8" y1="82.8" x2="173.8" y2="315.6"/>
		<line class="st16" x1="289.7" y1="261.5" x2="289.7" y2="112.4"/>
		<line class="st17" x1="173.8" y1="82.8" x2="289.7" y2="112.4"/>
		<line class="st17" x1="173.8" y1="185.9" x2="289.7" y2="183.9"/>
		<line class="st18" x1="186.4" y1="85.9" x2="186.1" y2="184.9"/>
		<line class="st18" x1="201.5" y1="88.9" x2="201.5" y2="184.9"/>
		<line class="st18" x1="216.6" y1="94.1" x2="216.6" y2="183.9"/>
		<line class="st18" x1="232.6" y1="98.1" x2="233.4" y2="183.9"/>
		<line class="st18" x1="244.3" y1="100.7" x2="244.6" y2="184.2"/>
		<line class="st18" x1="256.1" y1="103.2" x2="256.1" y2="182.9"/>
		<line class="st18" x1="267.8" y1="108.3" x2="267.6" y2="183.9"/>
		<line class="st18" x1="281.3" y1="111.4" x2="281.3" y2="183.6"/>
		<line class="st18" x1="175.4" y1="105.3" x2="288" y2="129.8"/>
		<line class="st18" x1="173.8" y1="135.9" x2="288.8" y2="149.2"/>
		<line class="st18" x1="172.9" y1="163.5" x2="288.8" y2="168.6"/>
	</g>
</g>
</svg>
