<?xml version="1.0" encoding="utf-8"?>
<!-- Generator: Adobe Illustrator 22.1.0, SVG Export Plug-In . SVG Version: 6.00 Build 0)  -->
<svg version="1.1" id="Capa_1" xmlns="http://www.w3.org/2000/svg" xmlns:xlink="http://www.w3.org/1999/xlink" x="0px" y="0px"
	 viewBox="0 0 710.5 710.5" style="enable-background:new 0 0 710.5 710.5;" xml:space="preserve">
<style type="text/css">
	.st0{opacity:0.1;fill:#37CFB1;}
	.st1{fill:#37CFB1;}
</style>
<circle class="st0" cx="355.3" cy="355.3" r="355.3"/>
<g>
	<g>
		<g>
			<path class="st1" d="M355.3,324.3c-17.1,0-31,13.9-31,31c0,17.1,13.9,31,31,31c17.1,0,31-13.9,31-31
				C386.2,338.2,372.3,324.3,355.3,324.3z"/>
		</g>
	</g>
	<g>
		<g>
			<rect x="99.3" y="308.7" class="st1" width="66.6" height="92.2"/>
		</g>
	</g>
	<g>
		<g>
			<rect x="546.9" y="308.7" class="st1" width="64.4" height="92.2"/>
		</g>
	</g>
	<g>
		<g>
			<path class="st1" d="M340.3,296.1V179h-241v99.7h96.5v152.2H99.3v100.6h241V414.4c-26.4-6.7-46-30.7-46-59.1
				S313.9,302.8,340.3,296.1z"/>
		</g>
	</g>
	<g>
		<g>
			<path class="st1" d="M611.3,278.7V179h-241v117.1c26.4,6.7,46,30.7,46,59.1s-19.6,52.4-46,59.1v117.1h241V430.9h-94.4V278.7
				H611.3z"/>
		</g>
	</g>
</g>
</svg>
