<?xml version="1.0" encoding="utf-8"?>
<!-- Generator: Adobe Illustrator 22.1.0, SVG Export Plug-In . SVG Version: 6.00 Build 0)  -->
<svg version="1.1" id="Layer_1" xmlns="http://www.w3.org/2000/svg" xmlns:xlink="http://www.w3.org/1999/xlink" x="0px" y="0px"
	 viewBox="0 0 1942 550" style="enable-background:new 0 0 1942 550;" xml:space="preserve">
<style type="text/css">
	.st0{fill:#483DD6;stroke:#483D89;stroke-width:0.25;stroke-miterlimit:10;}
	.st1{fill:#483DF6;}
</style>
<g id="Layer_2_1_">
	<rect y="189" class="st0" width="1942" height="361.1"/>
	<rect x="717" y="84" class="st0" width="1225" height="137"/>
</g>
<g id="Layer_1_1_">
	<path class="st1" d="M1231,313.6c-47-5-97.3-5.8-143.8,3c-45.2,8.6-85.9,25.9-124.8,50.3c-79.2,49.7-143.7,119.8-219.8,174.6
		c-4,2.9-8.1,5.7-12.2,8.5h696.7c-5.2-16.7-9.4-33.7-13.6-50.6c-11.5-46.4-25-98.2-57.7-134.6C1324.8,330.3,1275.7,318.3,1231,313.6
		z"/>
	<path class="st1" d="M110.4,234.2c44.9-14.5,96.9-31.1,142-9.2c38.7,18.8,57.3,62.7,71.4,100.6c15.7,42.2,20.8,87.1,30.9,130.7
		c7.9,34.1,18.9,69.4,41.9,93.8h232.6c47.3-22.2,91-52.3,131.3-85.4c71.9-59.1,139.5-128,225.2-167.3
		c46.6-21.4,95.9-33.4,147.1-35.9c50-2.5,101.4-0.7,150.3,10.5c53.5,12.3,98.8,38.5,129.1,85.2c28.3,43.5,41.2,95.6,53.5,145.4
		c3.9,15.6,8.1,31.9,13.9,47.5H1744c59-43.2,111.4-96.1,163.2-146.9c11.4-11.2,23-22.3,34.7-33.2V63.1c-277.8-15.5-592.2-19.2-936,0
		C630.4,84.1,292.8,128.3,0,180.8v105C34,263.4,71.4,246.7,110.4,234.2z"/>
	<path class="st1" d="M304.5,460.3c-9.7-44.3-15.9-88.9-32.6-131.4c-3.3-8.5-7.2-17.1-12.3-26.4c-2.1-3.8-4.3-7.6-6.8-11.2
		c-1.1-1.7-2.3-3.4-3.6-5.1c-0.4-0.4-1.9-2.2-2.3-2.7c-3.3-3.5-6.6-7.1-10.5-10.1c1.4,1.2-6-3.6-7.2-4.2c-0.4-0.2-4.9-2-4.2-1.9
		c-1-0.3-2-0.7-3-1c-2.4-0.7-4.8-1.3-7.2-1.7c-0.5-0.1-0.9-0.2-1.3-0.3c-0.2,0-0.6,0-1.1-0.1c-22.7-1.8-44.8,5.3-66.9,11.5
		c-24.3,6.8-48.4,14.9-71.3,25.6C47.8,313.7,22.4,329,0,347.7V550h335.4C320,522.4,311.1,490.9,304.5,460.3z"/>
	<path class="st1" d="M1887.3,492.4c-20.2,19.3-41.1,38.8-62.9,57.6H1942V439.1C1923.8,456.9,1905.7,474.8,1887.3,492.4z"/>
</g>
</svg>
