<?xml version="1.0" encoding="utf-8"?>
<!-- Generator: Adobe Illustrator 22.1.0, SVG Export Plug-In . SVG Version: 6.00 Build 0)  -->
<svg version="1.1" id="Layer_1" xmlns="http://www.w3.org/2000/svg" xmlns:xlink="http://www.w3.org/1999/xlink" x="0px" y="0px"
	 viewBox="0 0 300 300" style="enable-background:new 0 0 300 300;" xml:space="preserve">
<style type="text/css">
	.st0{fill:#E48868;}
	.st1{fill:#FCE0D3;}
	.st2{fill:#121C21;}
	.st3{fill:#483DF6;}
	.st4{fill:#37CFB1;}
	.st5{clip-path:url(#SVGID_2_);fill:#82635A;}
	.st6{fill:#82635A;}
	.st7{fill:#DCDBE9;}
	.st8{fill:none;stroke:#37B9B1;stroke-width:0.7577;stroke-linecap:round;stroke-linejoin:round;stroke-miterlimit:10;}
</style>
<g>
	<g>
		<g>
			<path class="st0" d="M146.5,146c0,0-4.3,10.7,4.4,19.6c9.1,9.2,21.7,17.8,21.7,17.8l15.2,37.6l6.3-0.4l-11.6-42.4
				c-0.1-0.7-0.5-1.3-0.9-1.8L162.5,153l0.1-4.3L146.5,146z"/>
			<path class="st0" d="M172.3,179.1c0,0-6.3,7.9,8.5,24.2L172.3,179.1z"/>
			<polygon class="st1" points="194.1,219.7 189.2,202.4 181.7,205.9 188.3,222.4 			"/>
			<path class="st2" d="M186.4,219.8c0.1-0.4,0.5-0.6,0.9-0.4c0.7,0.4,1.3,1.5,3,1c1.7-0.5,2.5-1.8,2.6-2.5c0.1-0.4,0.4-0.6,0.8-0.5
				l12.1,2.8c0.7,0.2,1.3,0.6,1.7,1.2l0,0c0.4,0.6,0,1.3-0.7,1.4l-18.7,2.8c-0.7,0.1-1.4-0.4-1.5-1.2l-0.4-4c0-0.1,0-0.1,0-0.2
				L186.4,219.8z"/>
		</g>
		<path class="st0" d="M151.7,129l-12.4,39.4L93,164.6l-1.8,7l50.2,9.3c3,0.6,6.2-0.6,8-3.1c5.1-6.7,14.7-21.2,17.2-37.5L151.7,129z
			"/>
		<path class="st0" d="M142.5,169.6c0,0-15.4-6.9-32.5-3.1L142.5,169.6z"/>
		<polygon class="st1" points="92.6,164.4 111.7,166.2 111.4,175.3 91.2,171.6 		"/>
		<path class="st2" d="M94.5,163.2c0.5,0.3,0.5,1,0.1,1.3c-0.9,0.7-2.5,0.8-2.8,3c-0.3,2.3,0.9,3.9,1.7,4.5c0.4,0.3,0.5,0.8,0.3,1.2
			L84.2,186c-0.6,0.7-1.4,1.2-2.4,1.3l0,0c-0.9,0.1-1.7-0.7-1.5-1.6l5.9-23.7c0.2-0.9,1.2-1.4,2.2-1.1l5.2,1.8
			c0.1,0,0.2,0.1,0.2,0.1L94.5,163.2z"/>
		<path class="st3" d="M161.3,142c1,4.8,9,16.9,9,16.9L155.5,169L161.3,142z"/>
		<path class="st3" d="M144.1,134.6c0,0-9.3,6.7-2.5,18.3l-2.2,9.4L156,171c0,0,10.5-17.4,11.1-32.7
			C167.2,138.3,157.3,128.7,144.1,134.6z"/>
		<path class="st0" d="M152.2,91.9L138.9,88c0,0-10.4-8.5-23.5-12l1.5,5.6l19.7,13.3l18,8.3L152.2,91.9z"/>
		<polygon class="st4" points="164.5,92.8 151,90.4 148.8,102.6 155.7,104.7 		"/>
		<g>
			<path class="st0" d="M167.5,100.3l-0.5-0.6c-1.7-2-1.5-5,0.5-6.7l11-9.5l7.2,8.4l-11.8,9.7C172.3,103,168.9,101.9,167.5,100.3z"
				/>
			<path class="st0" d="M175.7,91.8c0,0-3.8,3.5-0.7,8.9l2.6-2.1L175.7,91.8z"/>
			<path class="st0" d="M191.1,90.4c-3.4,4.6-9.8,5.5-14.4,2.2c-4.6-3.4-5.5-9.8-2.2-14.4c3.4-4.6,9.8-5.5,14.4-2.2
				C193.5,79.4,194.5,85.9,191.1,90.4z"/>
			<path class="st0" d="M177,98.2L177,98.2c-2.2-1.6-2.6-4.7-1-6.8l5.9-7.9l9.3,6.9l-4.8,6.5C184.2,99.7,180,100.4,177,98.2z"/>
			<path class="st0" d="M189.5,92.1l-0.2,4c-0.1,0.6-0.8,0.9-1.3,0.5l-2.4-1.2L189.5,92.1z"/>
			<g>
				<defs>
					<path id="SVGID_1_" d="M191.1,90.4c-3.4,4.6-9.8,5.5-14.4,2.2c-4.6-3.4-5.5-9.8-2.2-14.4c3.4-4.6,9.8-5.5,14.4-2.2
						C193.5,79.4,194.5,85.9,191.1,90.4z"/>
				</defs>
				<clipPath id="SVGID_2_">
					<use xlink:href="#SVGID_1_"  style="overflow:visible;"/>
				</clipPath>
				<path class="st5" d="M181,88.5c0,0,4.6-0.6,6.2-6c0,0,5.4,5.1,8.2,4c0,0,2.5-13.9-10.4-15.7c-12.9-1.8-16.5,11.8-16.5,11.8
					l6,7.8L181,88.5z"/>
			</g>
			<path class="st0" d="M181.4,88.8c-0.9,1.3-2.7,1.5-4,0.6c-1.3-0.9-1.5-2.7-0.6-4c0.9-1.3,2.7-1.5,4-0.6
				C182.1,85.8,182.4,87.6,181.4,88.8z"/>
			<path class="st6" d="M174,85.3l-2.7,4.1c0,0,3.6,4.1,6.5,0.2l-2.9-1.4L174,85.3z"/>
		</g>
		<path class="st0" d="M186,152.6c0.4,3.1-1.7,5.9-4.8,6.3c-3.1,0.4-5.9-1.7-6.3-4.8c-0.4-3.1,1.7-5.9,4.8-6.3
			C182.7,147.4,185.5,149.5,186,152.6z"/>
		<path class="st0" d="M117.3,78.9c0.4,3.1-1.7,5.9-4.8,6.3c-3.1,0.4-5.9-1.7-6.3-4.8c-0.4-3.1,1.7-5.9,4.8-6.3
			C114,73.7,116.9,75.8,117.3,78.9z"/>
		<path class="st4" d="M167.5,92.9c0,0-4.6-3.1-9.4,1.4c-4.8,4.5-11.9,17.2-14.1,40.3c0,0,13.9,0,23.1,3.7l3.9-16.9
			c0,0,9.2-14.3,2.6-23.8C173.6,97.6,170.9,94,167.5,92.9z"/>
		<path class="st0" d="M164,115.9l1.9,12.8c0.1,0.4,0.2,0.8,0.4,1.2l13.7,22.1l4.7-1.5l-10.7-22.8l-0.6-15.5L164,115.9z"/>
		<path class="st4" d="M166.8,99.7c0,0-8.7,3.5-4.3,19.5l13.7-1.4C176.2,117.8,177.3,98.9,166.8,99.7z"/>
		<path class="st7" d="M218.5,219.3c-0.8,7.5-7.5,12.9-15,12.1c-7.5-0.8-12.9-7.5-12.1-15c0.8-7.5,7.5-12.9,15-12.1
			C213.9,205.1,219.3,211.8,218.5,219.3z"/>
	</g>
	<path class="st8" d="M175.5,109.2c0,0-0.6-4.3-2.2-6.2c0,0-4.8-6.5-10.1,0.2c-4.9,6.2-0.6,16-0.6,16l1.9-0.2"/>
</g>
</svg>
