<?xml version="1.0" encoding="UTF-8" standalone="no"?>
<!DOCTYPE svg PUBLIC "-//W3C//DTD SVG 1.1//EN" "http://www.w3.org/Graphics/SVG/1.1/DTD/svg11.dtd">
<svg version="1.1" xmlns="http://www.w3.org/2000/svg" xmlns:xlink="http://www.w3.org/1999/xlink" preserveAspectRatio="xMidYMid meet" viewBox="0 0 380 380" width="380" height="380"><defs><path d="M57.02 -4.38L58.33 -4.32L59.63 -4.24L60.92 -4.14L62.21 -4.01L63.49 -3.87L64.77 -3.7L66.04 -3.51L67.3 -3.29L68.56 -3.06L69.81 -2.8L71.05 -2.52L72.29 -2.22L73.51 -1.9L74.73 -1.55L75.94 -1.19L77.14 -0.8L78.34 -0.39L79.52 0.04L80.69 0.49L81.86 0.96L83.01 1.45L84.15 1.96L85.29 2.49L86.41 3.04L87.52 3.62L88.61 4.21L89.7 4.82L90.78 5.45L91.84 6.11L92.89 6.78L93.92 7.47L94.95 8.18L95.95 8.91L96.95 9.66L97.93 10.43L98.9 11.22L99.85 12.03L100.79 12.85L101.7 13.7L102.6 14.55L103.48 15.42L104.33 16.3L105.17 17.2L105.98 18.11L106.77 19.03L107.54 19.96L108.29 20.9L109.02 21.86L109.72 22.82L110.4 23.8L111.06 24.79L111.7 25.78L112.31 26.79L112.9 27.81L113.47 28.84L114.02 29.88L114.54 30.92L115.04 31.98L115.52 33.04L115.97 34.11L116.4 35.19L116.81 36.28L117.19 37.38L117.55 38.48L117.88 39.59L118.19 40.71L118.48 41.83L118.74 42.96L118.98 44.1L119.19 45.24L119.38 46.39L119.54 47.54L119.68 48.7L119.8 49.87L119.89 51.03L119.95 52.21L119.99 53.38L120 54.56L119.99 55.74L119.95 56.92L119.89 58.09L119.8 59.26L119.68 60.42L119.54 61.58L119.38 62.73L119.19 63.88L118.98 65.02L118.74 66.16L118.48 67.29L118.19 68.41L117.88 69.53L117.55 70.64L117.19 71.75L116.81 72.84L116.4 73.93L115.97 75.01L115.52 76.08L115.04 77.15L114.54 78.2L114.02 79.25L113.47 80.29L112.9 81.31L112.31 82.33L111.7 83.34L111.06 84.34L110.4 85.33L109.72 86.3L109.02 87.27L108.29 88.23L107.54 89.17L106.77 90.1L105.98 91.02L105.17 91.93L104.33 92.82L103.48 93.7L102.6 94.57L101.7 95.43L100.79 96.27L99.85 97.1L98.9 97.91L97.93 98.69L96.95 99.46L95.95 100.21L94.95 100.94L93.92 101.66L92.89 102.35L91.84 103.02L90.78 103.67L89.7 104.3L88.61 104.92L87.52 105.51L86.41 106.08L85.29 106.63L84.15 107.17L83.01 107.68L81.86 108.17L80.69 108.64L79.52 109.09L78.34 109.52L77.14 109.92L75.94 110.31L74.73 110.68L73.51 111.02L72.29 111.34L71.05 111.64L69.81 111.92L68.56 112.18L67.3 112.41L66.04 112.63L64.77 112.82L63.49 112.99L62.21 113.14L60.92 113.26L59.63 113.36L58.33 113.44L57.02 113.5L55.72 113.54L54.4 113.55L53.09 113.54L51.78 113.5L50.48 113.44L49.18 113.36L47.89 113.26L46.6 113.14L45.32 112.99L44.04 112.82L42.77 112.63L41.51 112.41L40.25 112.18L39 111.92L37.76 111.64L36.52 111.34L35.29 111.02L34.08 110.68L32.86 110.31L31.66 109.92L30.47 109.52L29.29 109.09L28.11 108.64L26.95 108.17L25.8 107.68L24.65 107.17L23.52 106.63L22.4 106.08L21.29 105.51L20.19 104.92L19.1 104.3L18.03 103.67L16.97 103.02L15.92 102.35L14.88 101.65L13.86 100.94L12.85 100.21L11.86 99.46L10.87 98.69L9.91 97.9L8.96 97.1L8.02 96.27L7.1 95.43L6.2 94.57L5.33 93.7L4.47 92.82L3.64 91.93L2.82 91.02L2.03 90.1L1.26 89.17L0.52 88.22L-0.21 87.27L-0.91 86.3L-1.59 85.33L-2.25 84.34L-2.89 83.34L-3.5 82.33L-4.1 81.31L-4.66 80.29L-5.21 79.25L-5.73 78.2L-6.23 77.15L-6.71 76.08L-7.16 75.01L-7.59 73.93L-8 72.84L-8.38 71.74L-8.74 70.64L-9.07 69.53L-9.38 68.41L-9.67 67.29L-9.93 66.16L-10.17 65.02L-10.38 63.88L-10.57 62.73L-10.74 61.58L-10.87 60.42L-10.99 59.26L-11.08 58.09L-11.14 56.92L-11.18 55.74L-11.19 54.56L-11.18 53.38L-11.14 52.2L-11.08 51.03L-10.99 49.86L-10.87 48.7L-10.74 47.54L-10.57 46.39L-10.38 45.24L-10.17 44.1L-9.93 42.96L-9.67 41.83L-9.38 40.71L-9.07 39.59L-8.74 38.48L-8.38 37.38L-8 36.28L-7.59 35.19L-7.16 34.11L-6.71 33.04L-6.23 31.98L-5.73 30.92L-5.21 29.87L-4.66 28.84L-4.1 27.81L-3.5 26.79L-2.89 25.78L-2.25 24.79L-1.59 23.8L-0.91 22.82L-0.21 21.86L0.52 20.9L1.26 19.96L2.03 19.03L2.82 18.11L3.64 17.2L4.47 16.3L5.33 15.42L6.2 14.55L7.1 13.7L8.02 12.85L8.96 12.03L9.91 11.22L10.87 10.43L11.86 9.66L12.85 8.91L13.86 8.18L14.88 7.47L15.92 6.78L16.97 6.11L18.03 5.45L19.1 4.82L20.19 4.21L21.29 3.62L22.4 3.04L23.52 2.49L24.65 1.96L25.8 1.45L26.95 0.96L28.11 0.49L29.29 0.04L30.47 -0.39L31.66 -0.8L32.86 -1.19L34.07 -1.55L35.29 -1.9L36.52 -2.22L37.76 -2.52L39 -2.8L40.25 -3.06L41.51 -3.29L42.77 -3.51L44.04 -3.7L45.32 -3.87L46.6 -4.01L47.89 -4.14L49.18 -4.24L50.48 -4.32L51.78 -4.38L53.09 -4.41L54.4 -4.42L55.72 -4.41L57.02 -4.38ZM52.01 0.75L50.82 0.8L49.64 0.87L48.45 0.96L47.28 1.08L46.11 1.21L44.94 1.37L43.78 1.54L42.63 1.74L41.48 1.95L40.34 2.19L39.2 2.44L38.08 2.72L36.96 3.01L35.84 3.33L34.74 3.66L33.64 4.01L32.55 4.39L31.47 4.78L30.4 5.19L29.34 5.62L28.28 6.07L27.24 6.53L26.21 7.02L25.18 7.52L24.17 8.04L23.17 8.59L22.17 9.15L21.19 9.72L20.22 10.32L19.27 10.93L18.32 11.56L17.39 12.21L16.46 12.88L15.56 13.57L14.66 14.27L13.78 14.99L12.91 15.73L12.05 16.48L11.21 17.25L10.39 18.03L9.59 18.82L8.81 19.63L8.05 20.45L7.31 21.27L6.59 22.11L5.88 22.96L5.2 23.83L4.54 24.7L3.9 25.58L3.28 26.47L2.67 27.37L2.09 28.28L1.53 29.21L0.99 30.13L0.47 31.07L-0.03 32.02L-0.5 32.98L-0.96 33.94L-1.39 34.91L-1.81 35.89L-2.2 36.88L-2.57 37.87L-2.92 38.87L-3.25 39.88L-3.55 40.89L-3.84 41.91L-4.1 42.94L-4.34 43.97L-4.56 45.01L-4.75 46.05L-4.92 47.1L-5.07 48.15L-5.2 49.21L-5.3 50.27L-5.38 51.34L-5.44 52.41L-5.48 53.48L-5.49 54.56L-5.48 55.64L-5.44 56.71L-5.38 57.78L-5.3 58.85L-5.2 59.91L-5.07 60.97L-4.92 62.02L-4.75 63.07L-4.56 64.11L-4.34 65.15L-4.1 66.18L-3.84 67.21L-3.55 68.23L-3.25 69.24L-2.92 70.25L-2.57 71.25L-2.2 72.25L-1.81 73.23L-1.4 74.21L-0.96 75.18L-0.5 76.15L-0.03 77.1L0.47 78.05L0.99 78.99L1.53 79.92L2.09 80.84L2.67 81.75L3.27 82.65L3.9 83.54L4.54 84.42L5.2 85.3L5.88 86.16L6.59 87.01L7.31 87.85L8.05 88.68L8.81 89.49L9.59 90.3L10.39 91.09L11.21 91.88L12.05 92.64L12.91 93.4L13.78 94.14L14.66 94.86L15.56 95.56L16.47 96.24L17.39 96.91L18.32 97.56L19.27 98.19L20.22 98.81L21.19 99.4L22.17 99.98L23.17 100.54L24.17 101.08L25.18 101.6L26.21 102.11L27.24 102.59L28.28 103.06L29.34 103.51L30.4 103.94L31.47 104.35L32.55 104.74L33.64 105.11L34.74 105.46L35.84 105.8L36.96 106.11L38.08 106.4L39.2 106.68L40.34 106.93L41.48 107.17L42.63 107.38L43.78 107.58L44.94 107.75L46.11 107.91L47.28 108.04L48.45 108.16L49.64 108.25L50.82 108.32L52.01 108.38L53.21 108.41L54.4 108.42L55.6 108.41L56.8 108.38L57.99 108.32L59.17 108.25L60.35 108.16L61.53 108.04L62.7 107.91L63.86 107.75L65.02 107.58L66.18 107.38L67.33 107.17L68.47 106.93L69.6 106.68L70.73 106.4L71.85 106.11L72.96 105.8L74.07 105.46L75.17 105.11L76.25 104.74L77.34 104.35L78.41 103.94L79.47 103.51L80.52 103.06L81.57 102.59L82.6 102.11L83.62 101.6L84.64 101.08L85.64 100.54L86.63 99.98L87.61 99.4L88.58 98.81L89.54 98.19L90.49 97.56L91.42 96.91L92.34 96.24L93.25 95.56L94.14 94.86L95.03 94.14L95.9 93.4L96.75 92.64L97.59 91.88L98.41 91.09L99.21 90.3L99.99 89.49L100.75 88.68L101.5 87.85L102.22 87.01L102.92 86.16L103.6 85.3L104.27 84.42L104.91 83.54L105.53 82.65L106.13 81.75L106.71 80.84L107.27 79.92L107.81 78.99L108.33 78.05L108.83 77.1L109.31 76.15L109.77 75.18L110.2 74.21L110.61 73.23L111.01 72.24L111.38 71.25L111.73 70.25L112.05 69.24L112.36 68.23L112.64 67.21L112.91 66.18L113.14 65.15L113.36 64.11L113.56 63.07L113.73 62.02L113.88 60.97L114.01 59.91L114.11 58.85L114.19 57.78L114.25 56.71L114.28 55.64L114.29 54.56L114.28 53.48L114.25 52.41L114.19 51.34L114.11 50.27L114.01 49.21L113.88 48.15L113.73 47.1L113.56 46.05L113.36 45.01L113.14 43.97L112.91 42.94L112.64 41.91L112.36 40.89L112.05 39.88L111.73 38.87L111.38 37.87L111.01 36.88L110.61 35.89L110.2 34.91L109.77 33.94L109.31 32.98L108.83 32.02L108.33 31.07L107.81 30.13L107.27 29.21L106.71 28.28L106.13 27.37L105.53 26.47L104.91 25.58L104.27 24.7L103.6 23.83L102.92 22.96L102.22 22.11L101.5 21.27L100.75 20.45L99.99 19.63L99.21 18.82L98.41 18.03L97.59 17.25L96.75 16.48L95.9 15.73L95.03 14.99L94.14 14.27L93.25 13.57L92.34 12.88L91.42 12.21L90.49 11.56L89.54 10.93L88.58 10.32L87.61 9.72L86.63 9.15L85.64 8.59L84.64 8.04L83.62 7.52L82.6 7.02L81.57 6.53L80.52 6.07L79.47 5.62L78.41 5.19L77.34 4.78L76.25 4.39L75.17 4.01L74.07 3.66L72.96 3.33L71.85 3.01L70.73 2.72L69.6 2.44L68.47 2.19L67.33 1.95L66.18 1.74L65.02 1.54L63.86 1.37L62.7 1.21L61.53 1.08L60.35 0.96L59.17 0.87L57.99 0.8L56.8 0.75L55.6 0.71L54.4 0.7L53.21 0.71L52.01 0.75Z" id="emYFhfRP"></path><path d="M72.06 22.01L73.16 22.9L73.98 24.06L74.44 25.37L74.49 26.7L74.17 27.98L73.5 29.14L72.51 30.13L71.22 30.87L69.76 31.28L68.28 31.33L66.86 31.05L65.56 30.44L64.47 29.55L63.64 28.39L63.19 27.08L63.13 25.75L63.45 24.47L64.12 23.31L65.11 22.32L66.4 21.58L67.86 21.17L69.34 21.12L70.76 21.41L72.06 22.01Z" id="g38Cdam7q2"></path><path d="M20.72 50.22L21.82 51.11L22.64 52.27L23.1 53.58L23.15 54.91L22.83 56.19L22.17 57.36L21.17 58.34L19.88 59.09L18.42 59.5L16.95 59.55L15.52 59.26L14.23 58.66L13.13 57.76L12.3 56.6L11.85 55.29L11.79 53.96L12.11 52.68L12.78 51.52L13.77 50.53L15.06 49.79L16.52 49.38L18 49.33L19.42 49.62L20.72 50.22Z" id="g1kA4QZ6NQ"></path><path d="M68.8 110.85L43.14 110.85L34.58 105.4L54.55 95.04L74.51 105.4L68.8 110.85Z" id="a6UBkbUX7y"></path><path d="M54.55 13.4L34.58 3.03L43.14 -2.42L68.8 -2.42L74.51 3.03L54.55 13.4Z" id="a6lY07qiuG"></path><path d="M101.91 93.04L91.62 98.03L91.62 77.51L113.4 66.23L115.52 73.47L101.91 93.04Z" id="a1HJreInW"></path><path d="M-4.28 42.38L-4.88 32.96L8.73 13.39L16.9 11.94L17.47 33.92L-4.28 42.38Z" id="a2uwf6B8n"></path><path d="M17.47 98.03L5.88 93.04L-7.74 73.47L-5.62 66.23L17.47 77.51L17.47 98.03Z" id="a3gwruBLdP"></path><path d="M115.52 35.53L114.92 44.94L94.56 35.22L94.47 13.4L101.91 15.96L115.52 35.53Z" id="e3E9k2MuPg"></path><path d="M74.51 64.8L54.55 75.16L34.58 64.8L34.58 44.07L54.55 33.7L74.51 44.07L74.51 64.8ZM60.51 56.54L58.95 57L57.4 57.68L55.96 58.55L54.74 59.53L53.74 60.59L52.99 61.71L52.51 62.83L52.31 63.94L52.42 65L52.84 65.97L53.57 66.79L54.53 67.4L55.7 67.8L57.03 67.99L58.47 67.96L59.99 67.72L61.55 67.25L63.1 66.57L64.54 65.7L65.76 64.72L66.76 63.66L67.51 62.55L67.99 61.42L68.19 60.31L68.08 59.25L67.66 58.28L66.93 57.46L65.97 56.85L64.8 56.45L63.47 56.27L62.03 56.29L60.51 56.54Z" id="c2iG03VHUW"></path></defs><g><g><g><use xlink:href="#emYFhfRP" opacity="0.16" fill="#016bf8" fill-opacity="1"></use><g><use xlink:href="#emYFhfRP" opacity="0.16" fill-opacity="0" stroke="#000000" stroke-width="1" stroke-opacity="0"></use></g></g><g><use xlink:href="#g38Cdam7q2" opacity="0.16" fill="#016bf8" fill-opacity="1"></use><g><use xlink:href="#g38Cdam7q2" opacity="0.16" fill-opacity="0" stroke="#000000" stroke-width="1" stroke-opacity="0"></use></g></g><g><use xlink:href="#g1kA4QZ6NQ" opacity="0.16" fill="#016bf8" fill-opacity="1"></use><g><use xlink:href="#g1kA4QZ6NQ" opacity="0.16" fill-opacity="0" stroke="#000000" stroke-width="1" stroke-opacity="0"></use></g></g><g><use xlink:href="#a6UBkbUX7y" opacity="0.16" fill="#016bf8" fill-opacity="1"></use><g><use xlink:href="#a6UBkbUX7y" opacity="0.16" fill-opacity="0" stroke="#000000" stroke-width="1" stroke-opacity="0"></use></g></g><g><use xlink:href="#a6lY07qiuG" opacity="0.16" fill="#016bf8" fill-opacity="1"></use><g><use xlink:href="#a6lY07qiuG" opacity="0.16" fill-opacity="0" stroke="#000000" stroke-width="1" stroke-opacity="0"></use></g></g><g><use xlink:href="#a1HJreInW" opacity="0.16" fill="#016bf8" fill-opacity="1"></use><g><use xlink:href="#a1HJreInW" opacity="0.16" fill-opacity="0" stroke="#000000" stroke-width="1" stroke-opacity="0"></use></g></g><g><use xlink:href="#a2uwf6B8n" opacity="0.16" fill="#016bf8" fill-opacity="1"></use><g><use xlink:href="#a2uwf6B8n" opacity="0.16" fill-opacity="0" stroke="#000000" stroke-width="1" stroke-opacity="0"></use></g></g><g><use xlink:href="#a3gwruBLdP" opacity="0.16" fill="#016bf8" fill-opacity="1"></use><g><use xlink:href="#a3gwruBLdP" opacity="0.16" fill-opacity="0" stroke="#000000" stroke-width="1" stroke-opacity="0"></use></g></g><g><use xlink:href="#e3E9k2MuPg" opacity="0.16" fill="#016bf8" fill-opacity="1"></use><g><use xlink:href="#e3E9k2MuPg" opacity="0.16" fill-opacity="0" stroke="#000000" stroke-width="1" stroke-opacity="0"></use></g></g><g><use xlink:href="#c2iG03VHUW" opacity="0.16" fill="#016bf8" fill-opacity="1"></use><g><use xlink:href="#c2iG03VHUW" opacity="0.16" fill-opacity="0" stroke="#000000" stroke-width="1" stroke-opacity="0"></use></g></g></g></g></svg>