<?xml version="1.0" encoding="utf-8"?>
<!-- Generator: Adobe Illustrator 22.1.0, SVG Export Plug-In . SVG Version: 6.00 Build 0)  -->
<svg version="1.1" id="Layer_1" xmlns="http://www.w3.org/2000/svg" xmlns:xlink="http://www.w3.org/1999/xlink" x="0px" y="0px"
	 viewBox="0 0 1920 973" style="enable-background:new 0 0 1920 973;" xml:space="preserve">
<style type="text/css">
	.st0{fill:#FAFAFE;}
	.st1{opacity:6.000000e-02;fill:#483DF6;}
</style>
<rect x="-45" y="-55" class="st0" width="1994" height="1066"/>
<path class="st1" d="M1498.7,470.7c-48.6-26.1-108-25.2-152.2-60.6c-39.6-31.8-51.6-86.7-92.2-117.6c-24.3-18.5-55-23.6-84.7-18.8
	c-28.8,4.6-55.6,16.6-83.6,24.1c-29.1,7.7-58.9,7.4-88.8,5.3c-30.4-2.2-60.8-7.2-89.7-16.8c-14.2-4.7-28-10.5-41.1-17.6
	c-13.6-7.3-25.9-16.4-38.4-25.3c-22.1-15.8-45.3-33.3-72.1-39.9c-29.2-7.2-57.1,3.7-80.7,20.7c-24.3,17.4-45.5,38-66.1,59.6
	c-19.7,20.7-39.2,41.7-61.6,59.6c-11.4,9.1-23.4,17.3-36.2,24.2c-12.8,7-25.4,14-36,24.3c-16.2,15.7-23.9,36.2-22.2,58.7
	c1.7,22.5,10.5,44.1,19.2,64.7c17.8,42.1,39.4,84.7,33.4,131.7c-3.2,24.9-9.2,49.5-11.5,74.5c-1,10.7-1.6,22,1.1,32.5
	c0.5,1.8,1.1,3.5,1.9,5c5.1,3.2,10.3,6.2,15.6,9.1c46.3,25.2,98.9,39.9,151.6,42.4c50.2,2.4,102.9-6.8,145.2-35.5
	c23.3-15.9,40.5-38.5,60-58.5c9.4-9.6,19.5-18.7,30.8-26c12.7-8.1,26.9-14.1,41-19.3c30.7-11.5,63.3-18,96.2-19
	c32.3-1,66.2,2.5,96.6,13.5c55.9,20.3,99.2,62.8,148.4,94.7c24.4,15.8,51.1,28.9,80.4,31.9c28.2,2.9,57.3-2.3,84.8-8.2
	c42.9-9.1,79.4-38.2,102-75.4c22.4-36.9,31.9-81.8,25.3-124.5C1567.9,537.7,1540.6,493.3,1498.7,470.7z"/>
</svg>
