<?xml version="1.0" encoding="utf-8"?>
<!-- Generator: Adobe Illustrator 22.1.0, SVG Export Plug-In . SVG Version: 6.00 Build 0)  -->
<svg version="1.1" id="Layer_1" xmlns="http://www.w3.org/2000/svg" xmlns:xlink="http://www.w3.org/1999/xlink" x="0px" y="0px"
	 viewBox="0 0 698.5 698.5" style="enable-background:new 0 0 698.5 698.5;" xml:space="preserve">
<style type="text/css">
	.st0{opacity:0.86;fill:#4A53FF;stroke:#000000;stroke-miterlimit:10;}
	.st1{fill:#483DF6;}
	.st2{fill:#656D78;}
	.st3{fill:#E6E9ED;}
	.st4{fill:#CCD1D9;}
	.st5{fill:#E48868;}
	.st6{fill:#464473;}
	.st7{fill:#4A53FF;}
	.st8{fill:#ED5565;}
</style>
<circle class="st0" cx="349.3" cy="349.3" r="348.8"/>
<g>
	<path class="st1" d="M544.3,470.3c-24.3-9.1-106.5-56.1-106.5-56.1l-92.5,31.7l-92.6-31.7c0,0-82.2,47-106.5,56.1
		c-32.5,12.1-48.8,24.4-48.8,56.9V576H593c0,0,0-16.3,0-48.8S576.8,482.4,544.3,470.3z"/>
	<path class="st2" d="M605.3,389c2.2,0,4.1,1.8,4.1,4.1v178.8c0,2.2-1.8,4.1-4.1,4.1H459c-2.2,0-4.1-1.8-4.1-4.1V393.1
		c0-2.2,1.8-4.1,4.1-4.1H605.3z"/>
	<path class="st3" d="M471.2,405.3h121.9v154.4H471.2V405.3z"/>
	<path class="st3" d="M345.2,419.2v26.8l36.6,24.4l56-56.1v-40.7L345.2,419.2z"/>
	<path class="st3" d="M345.2,419.2v26.8l-36.6,24.4l-56-56.1v-40.7L345.2,419.2z"/>
	<g>
		<path class="st4" d="M495.8,450c-2.2,0-4.1-1.8-4.1-4.1s1.8-4.1,4-4.1h0.1c2.2,0,4.1,1.8,4.1,4.1S498,450,495.8,450z"/>
		<path class="st4" d="M495.8,474.4c-2.2,0-4.1-1.8-4.1-4.1s1.8-4.1,4-4.1h0.1c2.2,0,4.1,1.8,4.1,4.1S498,474.4,495.8,474.4z"/>
		<path class="st4" d="M495.8,498.7c-2.2,0-4.1-1.8-4.1-4.1s1.8-4.1,4-4.1h0.1c2.2,0,4.1,1.8,4.1,4.1S498,498.7,495.8,498.7z"/>
		<path class="st4" d="M495.8,523.1c-2.2,0-4.1-1.8-4.1-4.1s1.8-4.1,4-4.1h0.1c2.2,0,4.1,1.8,4.1,4.1S498,523.1,495.8,523.1z"/>
	</g>
	<path class="st1" d="M487.4,389h89.4l-8.1,16.3h-73.1L487.4,389z"/>
	<path class="st4" d="M568.7,450h-48.8c-2.2,0-4.1-1.8-4.1-4.1s1.8-4.1,4.1-4.1h48.8c2.2,0,4.1,1.8,4.1,4.1S570.9,450,568.7,450z"/>
	<path class="st4" d="M568.7,474.4h-48.8c-2.2,0-4.1-1.8-4.1-4.1s1.8-4.1,4.1-4.1h48.8c2.2,0,4.1,1.8,4.1,4.1
		S570.9,474.4,568.7,474.4z"/>
	<path class="st4" d="M568.7,498.7h-48.8c-2.2,0-4.1-1.8-4.1-4.1s1.8-4.1,4.1-4.1h48.8c2.2,0,4.1,1.8,4.1,4.1
		S570.9,498.7,568.7,498.7z"/>
	<path class="st4" d="M568.7,523.1h-48.8c-2.2,0-4.1-1.8-4.1-4.1s1.8-4.1,4.1-4.1h48.8c2.2,0,4.1,1.8,4.1,4.1
		S570.9,523.1,568.7,523.1z"/>
	<path class="st2" d="M345.2,519.1c-1.8,0-3.5-1.2-3.9-3.1c-0.5-2.2,0.8-4.4,3-4.9c93-23,98.5-93.2,98.5-93.9
		c0.1-2.2,1.9-4.1,4.3-3.8c2.2,0.1,3.9,2.1,3.8,4.3c0,0.8-5.9,76.8-104.7,101.2C345.8,519,345.5,519.1,345.2,519.1z"/>
	<path class="st2" d="M345.2,519.1c-0.3,0-0.7,0-1-0.1c-98.8-24.4-104.6-100.5-104.7-101.2c-0.1-2.2,1.6-4.2,3.8-4.3
		c2.2-0.3,4.2,1.6,4.3,3.8c0.2,2.9,5.7,70.9,98.5,93.9c2.2,0.5,3.5,2.7,3,4.9C348.7,517.8,347,519.1,345.2,519.1z"/>
	<path class="st5" d="M345.2,104.6c-78.5,0-142.2,61.4-142.2,154.4v17.7c0,0,6.5,51.8,49,40.1c42.5-11.7,68.3-31.1,84.6-15.5
		c5.9,5.6,8.6,11.6,8.6,17.5c0-5.9,2.8-11.9,8.6-17.5c16.3-15.6,42.1,3.8,84.6,15.5c42.5,11.7,49-40.1,49-40.1V259
		C487.4,165.9,423.7,104.6,345.2,104.6z"/>
	<path class="st5" d="M394.1,356.7c-31-8-48.9-22.8-48.9-38c0,15.1-18,29.9-48.9,38c-14.2,3.7-54.4-8.8-71.8-15.1l14.7,23
		c4,5.7,8.2,11.1,12.5,16.3c29.1,34.5,65.7,56.9,93.5,56.9s64.4-22.4,93.5-56.9c4.3-5.1,8.5-10.6,12.5-16.3l14.7-23
		C448.5,347.9,408.3,360.4,394.1,356.7z"/>
	<path class="st6" d="M336.6,301.3c5.9,5.6,8.6,11.6,8.6,17.5c0,6.7-3.6,13.4-10.3,19.5c-3.2,2.8-7.1,5.6-11.7,8.1
		c-7.3,4.1-16.3,7.6-26.9,10.3c-24.2,6.3-61.8-3.6-82.5-23.7c-15.6-15-14.2-51.9-10.8-59.8c0,0,6.5,55.3,49,43.6
		C294.5,305.1,320.3,285.6,336.6,301.3z"/>
	<path class="st6" d="M353.8,301.3c-5.9,5.6-8.6,11.6-8.6,17.5c0,6.7,3.6,13.4,10.3,19.5c3.2,2.8,7.1,5.6,11.7,8.1
		c7.3,4.1,16.3,7.6,26.9,10.3c24.2,6.3,61.8-3.6,82.5-23.7c15.6-15,14.2-51.9,10.8-59.8c0,0-6.5,55.3-49,43.6
		C395.9,305.1,370,285.6,353.8,301.3z"/>
	<path class="st2" d="M487.4,242.7H186.7c0-3.7,5.9-7.8,16.3-11.8c27.3-10.6,85.1-20.7,142.2-20.7s114.9,10.1,142.2,20.7
		c10.3,4,16.3,8.1,16.3,11.8H487.4z"/>
	<path class="st7" d="M345.2,210.2c-57.1,0-114.9,10.1-142.2,20.7v-16.7c0-78.6,63.6-142.2,142.2-142.2s142.2,63.6,142.2,142.2V231
		C460.1,220.3,402.3,210.2,345.2,210.2z"/>
	<path class="st8" d="M350,138.8l10.8,1.5L353,148l1.9,10.7l-9.7-5l-9.7,5l1.9-10.7l-7.8-7.6l10.8-1.5l4.8-9.8L350,138.8z"/>
	<path class="st1" d="M345.2,116.8c20.2,0,36.6,16.3,36.6,36.6s-16.3,36.6-36.6,36.6s-36.6-16.3-36.6-36.6S324.9,116.8,345.2,116.8z
		"/>
	<path class="st7" d="M365.5,147.4l-14.1-2l-6.2-12.8l-6.2,12.8l-14.1,2l10.2,9.9l-2.4,14l12.6-6.6l12.6,6.6l-2.4-14L365.5,147.4z"
		/>
	<path class="st8" d="M345.2,519.1c-9,0-16.3,7.3-16.3,16.3s7.3,16.3,16.3,16.3v16.3h16.3v-32.5
		C361.4,526.3,354.2,519.1,345.2,519.1z"/>
</g>
</svg>
