<?xml version="1.0" encoding="utf-8"?>
<!-- Generator: Adobe Illustrator 22.1.0, SVG Export Plug-In . SVG Version: 6.00 Build 0)  -->
<svg version="1.1" id="Capa_1" xmlns="http://www.w3.org/2000/svg" xmlns:xlink="http://www.w3.org/1999/xlink" x="0px" y="0px"
	 viewBox="0 0 663.7 663.7" style="enable-background:new 0 0 663.7 663.7;" xml:space="preserve">
<style type="text/css">
	.st0{opacity:0.1;fill:#37CFB1;}
	.st1{fill:#37CFB1;}
</style>
<circle class="st0" cx="331.8" cy="331.8" r="331.8"/>
<g>
	<g>
		<g>
			<g>
				<path class="st1" d="M566.6,298.7c8.5-8.5,13.1-19.7,13.1-31.7c0-12-4.7-23.2-13.1-31.7c-8.5-8.5-19.7-13.1-31.7-13.1
					c-12,0-23.3,4.7-31.7,13.1l-1.5,1.5c-24.2-16.4-52.8-27-83.9-29.5h-17.9c-5,0-9,4-9,9v28.3c0,4.2-3.4,7.6-7.6,7.6h-35.1
					c-3.1,0-5.9-1.9-7-4.8l-13.8-34.5c-1.4-3.4-4.7-5.6-8.3-5.6H76.7c-2.7,0-5.2,1.2-6.9,3.3c-1.7,2.1-2.4,4.8-1.9,7.4l26.9,134.6
					c0.8,4.2,4.5,7.2,8.8,7.2h57.7c34.8,0,64.9,24,71.5,57.1c16.3,81.3,88.4,140.3,171.4,140.3c6.9,0,14-0.4,20.9-1.2
					c84.1-9.8,147.2-75.7,153.5-160.4c2.4-32.5-4.4-63.7-18-91L566.6,298.7z M399.7,449.5c-34.6,0-62.8-28.2-62.8-62.8
					s28.2-62.8,62.8-62.8s62.8,28.2,62.8,62.8S434.4,449.5,399.7,449.5z M551.7,288.2c-0.4-0.7-1-1.4-1.4-2c-1.9-2.9-3.9-5.8-6-8.6
					c-0.3-0.4-0.6-0.7-0.8-1.1c-8-10.6-17.1-20.2-27.3-28.8c10.2-10,27.7-9.9,37.8,0.2c5.1,5.1,7.9,11.8,7.9,19
					c0,7.2-2.8,13.9-7.9,19L551.7,288.2z"/>
			</g>
		</g>
	</g>
</g>
</svg>
